<svg xmlns="http://www.w3.org/2000/svg" xmlns:xlink="http://www.w3.org/1999/xlink" xmlns:lucid="lucid" width="1074.71" height="986.47"><g transform="translate(0 0)" lucid:page-tab-id="HWEp-vi-RSFO"><path d="M113.2 46c0-3.3 2.7-6 6-6h840.76c3.3 0 6 2.7 6 6v29.16c0 3.3-2.7 6-6 6H119.2c-3.3 0-6-2.7-6-6z" stroke="#000" stroke-opacity="0" stroke-width="2" fill="#fff" fill-opacity="0"/><use xlink:href="#a" transform="matrix(1,0,0,1,117.20580470457651,44) translate(334.8698765432099 23.657777777777778)"/><use xlink:href="#b" transform="matrix(1,0,0,1,117.20580470457651,44) translate(412.00691358024693 23.657777777777778)"/><path d="M389.7 79.8h309.35M389.7 79.8h-1M699.02 79.8h1.03" stroke="#7b2a95" stroke-width="2" fill="none"/><path d="M113.2 87.16c0-3.32 2.7-6 6-6h841.7c3.33 0 6 2.68 6 6V94c0 3.3-2.67 6-6 6H119.2c-3.3 0-6-2.7-6-6z" stroke="#000" stroke-opacity="0" stroke-width="2" fill="#fff" fill-opacity="0"/><use xlink:href="#c" transform="matrix(1,0,0,1,117.20580470457685,85.15522395689881) translate(298.28849794238687 14.917037037037037)"/><use xlink:href="#d" transform="matrix(1,0,0,1,117.20580470457685,85.15522395689881) translate(341.5855144032922 14.917037037037037)"/><use xlink:href="#e" transform="matrix(1,0,0,1,117.20580470457685,85.15522395689881) translate(425.58767489711937 14.917037037037037)"/><use xlink:href="#f" transform="matrix(1,0,0,1,117.20580470457685,85.15522395689881) translate(438.0371604938272 14.917037037037037)"/><use xlink:href="#g" transform="matrix(1,0,0,1,117.20580470457685,85.15522395689881) translate(503.34384773662555 14.917037037037037)"/><use xlink:href="#h" transform="matrix(1,0,0,1,117.20580470457685,85.15522395689881) translate(520.3397325102881 14.917037037037037)"/><path d="M639.56 187c0-3.3 2.7-6 6-6h348c3.3 0 6 2.7 6 6v252c0 3.3-2.7 6-6 6h-348c-3.3 0-6-2.7-6-6z" stroke="#d54d88" stroke-width="2" fill="#f3aca2"/><path d="M639.56 218.6h360m-360 102.3h360" stroke="#d54d88" stroke-width="2" fill="none"/><use xlink:href="#i" transform="matrix(1,0,0,1,647.5592519192334,189) translate(0 14.6)"/><use xlink:href="#j" transform="matrix(1,0,0,1,651.5592519192334,226.6) translate(0 25.5)"/><use xlink:href="#k" transform="matrix(1,0,0,1,651.5592519192334,226.6) translate(10.95 25.5)"/><use xlink:href="#l" transform="matrix(1,0,0,1,651.5592519192334,226.6) translate(153.7 25.5)"/><use xlink:href="#m" transform="matrix(1,0,0,1,651.5592519192334,226.6) translate(169.2 25.5)"/><use xlink:href="#j" transform="matrix(1,0,0,1,651.5592519192334,226.6) translate(0 47.1)"/><use xlink:href="#n" transform="matrix(1,0,0,1,651.5592519192334,226.6) translate(10.95 47.1)"/><use xlink:href="#l" transform="matrix(1,0,0,1,651.5592519192334,226.6) translate(169.7 47.1)"/><use xlink:href="#o" transform="matrix(1,0,0,1,651.5592519192334,226.6) translate(185.2 47.1)"/><use xlink:href="#j" transform="matrix(1,0,0,1,651.5592519192334,226.6) translate(0 68.7)"/><use xlink:href="#p" transform="matrix(1,0,0,1,651.5592519192334,226.6) translate(10.95 68.7)"/><use xlink:href="#l" transform="matrix(1,0,0,1,651.5592519192334,226.6) translate(205.7 68.7)"/><use xlink:href="#q" transform="matrix(1,0,0,1,651.5592519192334,226.6) translate(221.2 68.7)"/><use xlink:href="#j" transform="matrix(1,0,0,1,651.5592519192334,328.9) translate(0 25.19999999999999)"/><use xlink:href="#r" transform="matrix(1,0,0,1,651.5592519192334,328.9) translate(10.95 25.19999999999999)"/><use xlink:href="#j" transform="matrix(1,0,0,1,651.5592519192334,328.9) translate(0 46.79999999999999)"/><use xlink:href="#s" transform="matrix(1,0,0,1,651.5592519192334,328.9) translate(10.95 46.79999999999999)"/><use xlink:href="#t" transform="matrix(1,0,0,1,651.5592519192334,328.9) translate(199.74999999999997 46.79999999999999)"/><use xlink:href="#j" transform="matrix(1,0,0,1,651.5592519192334,328.9) translate(0 68.39999999999999)"/><use xlink:href="#u" transform="matrix(1,0,0,1,651.5592519192334,328.9) translate(10.95 68.39999999999999)"/><use xlink:href="#v" transform="matrix(1,0,0,1,651.5592519192334,328.9) translate(178.74999999999997 68.39999999999999)"/><use xlink:href="#j" transform="matrix(1,0,0,1,651.5592519192334,328.9) translate(0 90)"/><use xlink:href="#w" transform="matrix(1,0,0,1,651.5592519192334,328.9) translate(10.95 90)"/><path d="M99.56 689.5c0-3.3 2.7-6 6-6h348c3.3 0 6 2.7 6 6v252c0 3.3-2.7 6-6 6h-348c-3.3 0-6-2.7-6-6z" stroke="#d54d88" stroke-width="2" fill="#f3aca2"/><path d="M99.56 721.1h360M99.56 845h360" stroke="#d54d88" stroke-width="2" fill="none"/><use xlink:href="#x" transform="matrix(1,0,0,1,107.55925191923336,691.499999999909) translate(0 14.6)"/><use xlink:href="#j" transform="matrix(1,0,0,1,111.55925191923336,729.0999999999091) translate(0 25.19999999999999)"/><use xlink:href="#y" transform="matrix(1,0,0,1,111.55925191923336,729.0999999999091) translate(10.95 25.19999999999999)"/><use xlink:href="#l" transform="matrix(1,0,0,1,111.55925191923336,729.0999999999091) translate(165.8 25.19999999999999)"/><use xlink:href="#z" transform="matrix(1,0,0,1,111.55925191923336,729.0999999999091) translate(181.3 25.19999999999999)"/><use xlink:href="#j" transform="matrix(1,0,0,1,111.55925191923336,729.0999999999091) translate(0 46.79999999999999)"/><use xlink:href="#A" transform="matrix(1,0,0,1,111.55925191923336,729.0999999999091) translate(10.95 46.79999999999999)"/><use xlink:href="#l" transform="matrix(1,0,0,1,111.55925191923336,729.0999999999091) translate(129.65 46.79999999999999)"/><use xlink:href="#B" transform="matrix(1,0,0,1,111.55925191923336,729.0999999999091) translate(145.15 46.79999999999999)"/><use xlink:href="#j" transform="matrix(1,0,0,1,111.55925191923336,729.0999999999091) translate(0 68.39999999999999)"/><use xlink:href="#C" transform="matrix(1,0,0,1,111.55925191923336,729.0999999999091) translate(10.95 68.39999999999999)"/><use xlink:href="#l" transform="matrix(1,0,0,1,111.55925191923336,729.0999999999091) translate(92.85000000000001 68.39999999999999)"/><use xlink:href="#m" transform="matrix(1,0,0,1,111.55925191923336,729.0999999999091) translate(108.35000000000001 68.39999999999999)"/><use xlink:href="#j" transform="matrix(1,0,0,1,111.55925191923336,729.0999999999091) translate(0 90)"/><use xlink:href="#D" transform="matrix(1,0,0,1,111.55925191923336,729.0999999999091) translate(10.95 90)"/><use xlink:href="#l" transform="matrix(1,0,0,1,111.55925191923336,729.0999999999091) translate(167.64999999999998 90)"/><use xlink:href="#E" transform="matrix(1,0,0,1,111.55925191923336,729.0999999999091) translate(183.14999999999998 90)"/><use xlink:href="#j" transform="matrix(1,0,0,1,111.55925191923336,852.999999999909) translate(0 25.5)"/><use xlink:href="#r" transform="matrix(1,0,0,1,111.55925191923336,852.999999999909) translate(10.95 25.5)"/><use xlink:href="#j" transform="matrix(1,0,0,1,111.55925191923336,852.999999999909) translate(0 47.1)"/><use xlink:href="#F" transform="matrix(1,0,0,1,111.55925191923336,852.999999999909) translate(10.95 47.1)"/><use xlink:href="#j" transform="matrix(1,0,0,1,111.55925191923336,852.999999999909) translate(0 68.7)"/><use xlink:href="#G" transform="matrix(1,0,0,1,111.55925191923336,852.999999999909) translate(10.95 68.7)"/><use xlink:href="#H" transform="matrix(1,0,0,1,111.55925191923336,852.999999999909) translate(170.79999999999995 68.7)"/><path d="M639.56 468.5c0-3.3 2.7-6 6-6h348c3.3 0 6 2.7 6 6v230c0 3.3-2.7 6-6 6h-348c-3.3 0-6-2.7-6-6z" stroke="#d54d88" stroke-width="2" fill="#f3aca2"/><path d="M639.56 500.1h360m-360 102.3h360" stroke="#d54d88" stroke-width="2" fill="none"/><use xlink:href="#I" transform="matrix(1,0,0,1,647.5592519192334,470.49999999990894) translate(0 14.6)"/><use xlink:href="#j" transform="matrix(1,0,0,1,651.5592519192334,508.09999999990896) translate(0 25.5)"/><use xlink:href="#J" transform="matrix(1,0,0,1,651.5592519192334,508.09999999990896) translate(10.95 25.5)"/><use xlink:href="#l" transform="matrix(1,0,0,1,651.5592519192334,508.09999999990896) translate(97.45 25.5)"/><use xlink:href="#m" transform="matrix(1,0,0,1,651.5592519192334,508.09999999990896) translate(112.95 25.5)"/><use xlink:href="#j" transform="matrix(1,0,0,1,651.5592519192334,508.09999999990896) translate(0 47.1)"/><use xlink:href="#K" transform="matrix(1,0,0,1,651.5592519192334,508.09999999990896) translate(10.95 47.1)"/><use xlink:href="#L" transform="matrix(1,0,0,1,651.5592519192334,508.09999999990896) translate(109.85000000000001 47.1)"/><use xlink:href="#M" transform="matrix(1,0,0,1,651.5592519192334,508.09999999990896) translate(130.35000000000002 47.1)"/><use xlink:href="#j" transform="matrix(1,0,0,1,651.5592519192334,508.09999999990896) translate(0 68.7)"/><use xlink:href="#N" transform="matrix(1,0,0,1,651.5592519192334,508.09999999990896) translate(10.95 68.7)"/><use xlink:href="#l" transform="matrix(1,0,0,1,651.5592519192334,508.09999999990896) translate(207.64999999999998 68.7)"/><use xlink:href="#O" transform="matrix(1,0,0,1,651.5592519192334,508.09999999990896) translate(223.14999999999998 68.7)"/><use xlink:href="#j" transform="matrix(1,0,0,1,651.5592519192334,610.3999999999089) translate(0 25.5)"/><use xlink:href="#r" transform="matrix(1,0,0,1,651.5592519192334,610.3999999999089) translate(10.95 25.5)"/><use xlink:href="#j" transform="matrix(1,0,0,1,651.5592519192334,610.3999999999089) translate(0 47.1)"/><use xlink:href="#P" transform="matrix(1,0,0,1,651.5592519192334,610.3999999999089) translate(10.95 47.1)"/><use xlink:href="#j" transform="matrix(1,0,0,1,651.5592519192334,610.3999999999089) translate(0 68.7)"/><use xlink:href="#Q" transform="matrix(1,0,0,1,651.5592519192334,610.3999999999089) translate(10.95 68.7)"/><use xlink:href="#R" transform="matrix(1,0,0,1,651.5592519192334,610.3999999999089) translate(136.75 68.7)"/><path d="M639.56 774.5c0-3.3 2.7-6 6-6h348c3.3 0 6 2.7 6 6v144c0 3.3-2.7 6-6 6h-348c-3.3 0-6-2.7-6-6z" stroke="#d54d88" stroke-width="2" fill="#f3aca2"/><path d="M639.56 806.1h360m-360 59.1h360" stroke="#d54d88" stroke-width="2" fill="none"/><g><use xlink:href="#S" transform="matrix(1,0,0,1,647.5592519192334,776.499999999909) translate(0 14.6)"/></g><g><use xlink:href="#j" transform="matrix(1,0,0,1,651.5592519192334,814.0999999999091) translate(0 25.6)"/><use xlink:href="#K" transform="matrix(1,0,0,1,651.5592519192334,814.0999999999091) translate(10.95 25.6)"/><use xlink:href="#l" transform="matrix(1,0,0,1,651.5592519192334,814.0999999999091) translate(109.85000000000001 25.6)"/><use xlink:href="#T" transform="matrix(1,0,0,1,651.5592519192334,814.0999999999091) translate(125.35000000000001 25.6)"/></g><g><use xlink:href="#U" transform="matrix(1,0,0,1,651.5592519192334,873.1999999999091) translate(0 25.6)"/><use xlink:href="#V" transform="matrix(1,0,0,1,651.5592519192334,873.1999999999091) translate(15.95 25.6)"/></g><path d="M99.56 474c0-3.3 2.7-6 6-6h348c3.3 0 6 2.7 6 6v144c0 3.3-2.7 6-6 6h-348c-3.3 0-6-2.7-6-6z" stroke="#d54d88" stroke-width="2" fill="#f3aca2"/><path d="M99.56 505.6h360m-360 59.1h360" stroke="#d54d88" stroke-width="2" fill="none"/><g><use xlink:href="#W" transform="matrix(1,0,0,1,107.55925191923336,475.9999999999493) translate(0 14.6)"/></g><g><use xlink:href="#j" transform="matrix(1,0,0,1,111.55925191923336,513.5999999999493) translate(0 25.6)"/><use xlink:href="#K" transform="matrix(1,0,0,1,111.55925191923336,513.5999999999493) translate(10.95 25.6)"/><use xlink:href="#l" transform="matrix(1,0,0,1,111.55925191923336,513.5999999999493) translate(109.85000000000001 25.6)"/><use xlink:href="#T" transform="matrix(1,0,0,1,111.55925191923336,513.5999999999493) translate(125.35000000000001 25.6)"/></g><g><use xlink:href="#U" transform="matrix(1,0,0,1,111.55925191923336,572.6999999999493) translate(0 25.6)"/><use xlink:href="#V" transform="matrix(1,0,0,1,111.55925191923336,572.6999999999493) translate(15.95 25.6)"/></g><path d="M454.92 449H429.1l-2.65.7-1.78 1.8-.7 2.63V466h-2v-12.13l.9-3.42 2.54-2.53 3.43-.92h26.1m165.13-133H565.7l-2.65.7-1.78 1.8-.7 2.63v123l-.93 3.42-2.53 2.53-3.4.92h-16.83v-2h16.56l2.64-.7 1.77-1.8.72-2.63v-123l.92-3.42 2.53-2.53 3.43-.92h54.63" fill="#7b2a95"/><path d="M423.96 467h-2v-1.03h2M635.32 313l-14.26 4.64v-9.28z" fill="#7b2a95"/><path d="M638.56 313l-18.5 6v-12m2 9.26L632.1 313l-10.04-3.26" fill="#7b2a95"/><g><use xlink:href="#X" transform="matrix(1,0,0,1,387.95935575768584,446.1716174217424) translate(0 14.4)"/></g><g><use xlink:href="#Y" transform="matrix(1,0,0,1,606.6527839201852,287.40000000000003) translate(0 14.4)"/></g><g><use xlink:href="#Z" transform="matrix(1,0,0,1,454.9187493692579,437.1999999999492) translate(0 14.4)"/></g><path d="M279.56 626v9.1m0 9.13v18.22m0 9.12v9.1" stroke="#7b2a95" stroke-width="2" fill="none"/><path d="M280.56 626.03h-2V625h2" fill="#7b2a95"/><path d="M269.38 663.32l10.18 17.22 10.18-17.22" stroke="#7b2a95" stroke-width="2" fill="none"/><path d="M550.56 809.63l-.92 3.42-2.53 2.53-3.4.92h-82.14v-2h81.87l2.64-.7 1.77-1.8.72-2.63V710.3h2m69.5-125.8H555.7l-2.65.7-1.78 1.8-.7 2.63v99.07h-2v-99.33l.9-3.42 2.54-2.53 3.43-.92h64.63" fill="#7b2a95"/><path d="M461.58 816.5h-1.02v-2h1.02M635.32 583.5l-14.26 4.64v-9.28z" fill="#7b2a95"/><path d="M638.56 583.5l-18.5 6v-12m2 9.26l10.03-3.26-10.04-3.26" fill="#7b2a95"/><g><use xlink:href="#aa" transform="matrix(1,0,0,1,490.5404152711323,789.899999999909) translate(0 14.4)"/></g><g><use xlink:href="#Y" transform="matrix(1,0,0,1,611.3530359487224,553.2647450842848) translate(0 14.4)"/></g><g><use xlink:href="#ab" transform="matrix(1,0,0,1,518.0842519192333,688.6999999999091) translate(0 14.4)"/></g><path d="M820.56 749h-2v-6.2h2m0-21.6h-2v-14.7h2" fill="#7b2a95"/><path d="M820.56 706.53h-2v-1.03h2M819.56 764.26L814.92 750h9.27z" fill="#7b2a95"/><path d="M819.56 767.5l-6-18.5h12m-9.26 2l3.26 10.03 3.26-10.03" fill="#7b2a95"/><g><use xlink:href="#Y" transform="matrix(1,0,0,1,801.5592519192334,704.7408758160924) translate(0 14.4)"/></g><g><use xlink:href="#Y" transform="matrix(1,0,0,1,796.9239970036092,744.2949049248294) translate(0 14.4)"/></g><g><use xlink:href="#ac" transform="matrix(1,0,0,1,799.6092519192333,721.2103037398559) translate(0 14.4)"/></g><path d="M99.56 187c0-3.3 2.7-6 6-6h348c3.3 0 6 2.7 6 6v220c0 3.3-2.7 6-6 6h-348c-3.3 0-6-2.7-6-6z" stroke="#d54d88" stroke-width="2" fill="#f3aca2"/><path d="M99.56 218.6h360m-360 129.5h360" stroke="#d54d88" stroke-width="2" fill="none"/><g><use xlink:href="#ad" transform="matrix(1,0,0,1,107.55925191923336,189) translate(0 14.6)"/></g><g><use xlink:href="#ae" transform="matrix(1,0,0,1,111.55925191923336,226.6) translate(0 17.39999999999999)"/><use xlink:href="#af" transform="matrix(1,0,0,1,111.55925191923336,226.6) translate(15.5 17.39999999999999)"/><use xlink:href="#ag" transform="matrix(1,0,0,1,111.55925191923336,226.6) translate(180.34999999999997 17.39999999999999)"/><use xlink:href="#ae" transform="matrix(1,0,0,1,111.55925191923336,226.6) translate(0 38.99999999999999)"/><use xlink:href="#ah" transform="matrix(1,0,0,1,111.55925191923336,226.6) translate(15.5 38.99999999999999)"/><use xlink:href="#ag" transform="matrix(1,0,0,1,111.55925191923336,226.6) translate(103 38.99999999999999)"/><use xlink:href="#ae" transform="matrix(1,0,0,1,111.55925191923336,226.6) translate(0 60.599999999999994)"/><use xlink:href="#ai" transform="matrix(1,0,0,1,111.55925191923336,226.6) translate(15.5 60.599999999999994)"/><use xlink:href="#ag" transform="matrix(1,0,0,1,111.55925191923336,226.6) translate(148.25 60.599999999999994)"/><use xlink:href="#ae" transform="matrix(1,0,0,1,111.55925191923336,226.6) translate(0 82.20000000000002)"/><use xlink:href="#aj" transform="matrix(1,0,0,1,111.55925191923336,226.6) translate(15.5 82.20000000000002)"/><use xlink:href="#ag" transform="matrix(1,0,0,1,111.55925191923336,226.6) translate(130.3 82.20000000000002)"/><use xlink:href="#ae" transform="matrix(1,0,0,1,111.55925191923336,226.6) translate(0 103.80000000000001)"/><use xlink:href="#ak" transform="matrix(1,0,0,1,111.55925191923336,226.6) translate(15.5 103.80000000000001)"/><use xlink:href="#al" transform="matrix(1,0,0,1,111.55925191923336,226.6) translate(117.35000000000001 103.80000000000001)"/></g><g><use xlink:href="#ae" transform="matrix(1,0,0,1,111.55925191923336,356.0999999999418) translate(0 17.299999999999997)"/><use xlink:href="#r" transform="matrix(1,0,0,1,111.55925191923336,356.0999999999418) translate(15.5 17.299999999999997)"/><use xlink:href="#ae" transform="matrix(1,0,0,1,111.55925191923336,356.0999999999418) translate(0 38.9)"/><use xlink:href="#am" transform="matrix(1,0,0,1,111.55925191923336,356.0999999999418) translate(15.5 38.9)"/></g><path d="M279.56 415v8.36m0 8.37v16.72m0 8.37v8.36" stroke="#7b2a95" stroke-width="2" fill="none"/><path d="M280.56 415.03h-2V414h2" fill="#7b2a95"/><path d="M269.38 447.82l10.18 17.22 10.18-17.22" stroke="#7b2a95" stroke-width="2" fill="none"/><g><use xlink:href="#an" transform="matrix(1,0,0,1,261.55925191923336,413.4455304143304) translate(0 14.4)"/></g><g><use xlink:href="#ao" transform="matrix(1,0,0,1,251.37842360422593,445.66296903416014) translate(0 14.4)"/></g><path d="M461.56 297h11m11 0h11l3.03-.82 2.14-2.15.82-3.03v-10.58m0-10.6v-21.15m0-10.6v-21.15m0-10.6v-21.15m0-10.6V164l.82-3.03 2.15-2.15 3.03-.82h10.23m10.23 0h20.46m10.23 0h20.46m10.23 0h20.46m10.23 0h20.46m10.23 0h20.46m10.23 0H701m10.23 0h20.46m10.23 0h20.46m10.23 0h20.46m10.23 0h10.23l3.03.82 2.14 2.15.82 3.03v14.18" stroke="#7b2a95" stroke-width="2" fill="none"/><path d="M461.58 298h-1.02v-2h1.02" fill="#7b2a95"/><path d="M809.38 160.82l10.18 17.22 10.18-17.22" stroke="#7b2a95" stroke-width="2" fill="none"/><g><use xlink:href="#an" transform="matrix(1,0,0,1,460.55925191923336,300.99999999999994) translate(0 14.4)"/></g><g><use xlink:href="#ap" transform="matrix(1,0,0,1,837.7400802342407,159.19999999999968) translate(0 14.4)"/></g><path d="M1041.56 577.63l-.92 3.42-2.53 2.53-3.4.92h-10.87v-2h10.6l2.64-.7 1.77-1.8.72-2.63v-10.14h2m-28.46 17.27h-10.72v-2h10.72m28.46-25.55h-2V536.4h2m0-10.27h-2v-20.55h2m0-10.27h-2v-20.54h2m0-10.27h-2v-20.56h2m0-10.27h-2v-20.55h2m0-10.27h-2V382.3h2m0-10.28h-2v-20.54h2m0-10.28h-2v-20.55h2m0-10.27h-2v-20.55h2m0-10.27h-2V259h2m0-10.26h-2V228.2h2m0-10.28h-2v-20.55h2m0-10.27h-2v-20.55h2m-761 12.45h-2v-11h2m15-27h-9.87l-2.65.7-1.78 1.8-.7 2.63V157h-2v-11.13l.9-3.42 2.54-2.53 3.43-.92h10.12m742.56.92l2.54 2.53.92 3.42v10.4h-2v-10.14l-.72-2.64-1.77-1.8-2.64-.7h-9.86v-2h10.12m-709.2 2h-19.97v-2h19.98m29.97 2H335.5v-2h19.97m29.96 2h-19.98v-2h19.98m29.96 2h-20v-2h20m29.95 2h-19.98v-2h19.98m29.96 2h-19.97v-2h19.98m29.97 2H485.3v-2h19.97m29.96 2h-19.98v-2h19.98m29.96 2h-20v-2h20m29.95 2h-19.98v-2h19.98m29.96 2h-19.97v-2h19.98m29.97 2H635.1v-2h19.97m29.96 2h-19.98v-2h19.98m29.96 2h-20v-2h20m29.95 2h-19.98v-2h19.98m29.96 2h-19.97v-2h19.98m29.97 2H784.9v-2h19.97m29.96 2h-19.98v-2h19.98m29.96 2h-20v-2h20m29.95 2h-19.98v-2h19.98m29.96 2h-19.97v-2h19.98m29.97 2H934.7v-2h19.97m29.96 2h-19.98v-2h19.98m29.96 2h-20v-2h20" fill="#7b2a95"/><path d="M280.56 180h-2v-1.03h2M1020.25 574.18l-15.76 9.32 15.75 9.32-1.02 1.72-18.67-11.04 18.67-11.04" fill="#7b2a95"/><g><use xlink:href="#an" transform="matrix(1,0,0,1,287.55925191923336,159.2) translate(0 14.4)"/></g><g><use xlink:href="#ao" transform="matrix(1,0,0,1,999.5592519192337,597.6808283149164) translate(0 14.4)"/></g><path d="M97.56 297h-11m-11 0h-11l-3.03.82-2.15 2.15-.82 3.03v9.93m0 9.93v19.87m0 9.93v19.86m0 9.93v19.86m0 9.95v19.86m0 9.94v19.86m0 9.93v19.87m0 9.93v19.86m0 9.92v19.86m0 9.94v19.86m0 9.93v19.87m0 9.93v19.87m0 9.93v19.86m0 9.93v19.85m0 9.94v19.85m0 9.93v19.86m0 9.93v19.87m0 9.93v9.93l.82 3.03 2.15 2.15 3.03.82H75.3m10.7 0h10.74" stroke="#7b2a95" stroke-width="2" fill="none"/><path d="M98.56 298h-1.03v-2h1.03" fill="#7b2a95"/><path d="M79.38 825.68l17.2-10.18-17.2-10.18" stroke="#7b2a95" stroke-width="2" fill="none"/><g><use xlink:href="#an" transform="matrix(1,0,0,1,89.55925191923333,271.4) translate(0 14.4)"/></g><g><use xlink:href="#aq" transform="matrix(1,0,0,1,88.55925191923342,779.7191716849017) translate(0 14.4)"/></g><path d="M40.56 959.37l.7 2.64 1.8 1.8 2.63.7h9.7v2h-9.97l-3.42-.92-2.52-2.53-.92-3.42v-10.18h2m44.38 17.05h-19.7v-2h19.7m29.54 2h-19.7v-2h19.7m29.54 2h-19.7v-2h19.7m29.54 2h-19.7v-2h19.7m29.54 2h-19.7v-2h19.7m29.54 2h-19.7v-2h19.7m29.53 2h-19.7v-2h19.7m29.54 2h-19.68v-2h19.7m29.53 2h-19.7v-2h19.7m29.54 2h-19.7v-2h19.7m29.53 2h-19.7v-2h19.7m29.54 2h-19.7v-2h19.7m29.54 2h-19.7v-2h19.7m29.54 2h-19.7v-2h19.7m29.54 2h-19.7v-2h19.7m29.54 2h-19.7v-2h19.7m29.54 2h-19.7v-2h19.7m29.54 2h-19.7v-2h19.7m29.54 2h-19.7v-2h19.7m29.53 2h-19.7v-2h19.7m29.54 2h-19.68v-2h19.7m29.53 2h-19.7v-2h19.7m29.54 2h-19.7v-2h19.7m29.53 2h-19.7v-2h19.7m29.54 2h-19.7v-2h19.7m26.7-4.87l-.93 3.42-2.53 2.53-3.4.92h-10v-2h9.73l2.64-.7 1.77-1.8.72-2.63v-10.6h2m-780-9.37h-2v-20.1h2m780 18.75h-2v-10.73h2m-780-18.08h-2v-20.1h2m0-10.05h-2v-20.12h2m0-10.05h-2v-20.1h2m0-10.05h-2v-20.1h2m0-10.06h-2v-20.1h2m0-10.05h-2v-20.1h2m0-10.06h-2v-20.1h2m0-10.04h-2v-20.1h2m0-10.06h-2v-20.1h2m0-10.05h-2v-20.1h2m0-10.05h-2v-20.1h2m0-10.06h-2v-20.1h2m0-10.05h-2v-20.12h2m0-10.05h-2v-20.1h2m0-10.05h-2v-20.1h2m0-10.06h-2v-20.1h2m0-10.05h-2v-20.1h2m0-10.06h-2v-20.1h2m0-10.04h-2v-20.1h2m0-10.06h-2v-20.1h2m0-10.05h-2v-20.1h2m0-10.06h-2v-20.1h2m13.67-25.1H45.7l-2.65.7-1.78 1.78-.7 2.64v9.92h-2v-10.18l.9-3.42 2.54-2.53 3.43-.9h8.8m43.33 2H88.9v-2h8.66m-17.33 2H62.9v-2h17.33" fill="#7b2a95"/><path d="M98.56 230.8h-1.03v-2h1.03M830.6 944.17l-1.72 1.02-9.32-15.77-9.32 15.76-1.72-1.03 11.04-18.67" fill="#7b2a95"/><g><use xlink:href="#an" transform="matrix(1,0,0,1,89.55925191923333,204.1880987927441) translate(0 14.4)"/></g><g><use xlink:href="#ao" transform="matrix(1,0,0,1,791.3784236042259,924.6999999999097) translate(0 14.4)"/></g><defs><path fill="#461765" d="M67-125c0 53 21 87 73 88 37 1 54-22 65-47l45 17C233-25 199 4 140 4 58 4 20-42 15-125 8-235 124-281 211-232c18 10 29 29 36 50l-46 12c-8-25-30-41-62-41-52 0-71 34-72 86" id="ar"/><path fill="#461765" d="M25 0v-261h50V0H25" id="as"/><path fill="#461765" d="M133-34C117-15 103 5 69 4 32 3 11-16 11-54c-1-60 55-63 116-61 1-26-3-47-28-47-18 1-26 9-28 27l-52-2c7-38 36-58 82-57s74 22 75 68l1 82c-1 14 12 18 25 15v27c-30 8-71 5-69-32zm-48 3c29 0 43-24 42-57-32 0-66-3-65 30 0 17 8 27 23 27" id="at"/><path fill="#461765" d="M137-138c1-29-70-34-71-4 15 46 118 7 119 86 1 83-164 76-172 9l43-7c4 19 20 25 44 25 33 8 57-30 24-41C81-84 22-81 20-136c-2-80 154-74 161-7" id="au"/><g id="a"><use transform="matrix(0.0728395061728395,0,0,0.0728395061728395,0,0)" xlink:href="#ar"/><use transform="matrix(0.0728395061728395,0,0,0.0728395061728395,18.86543209876543,0)" xlink:href="#as"/><use transform="matrix(0.0728395061728395,0,0,0.0728395061728395,26.14938271604938,0)" xlink:href="#at"/><use transform="matrix(0.0728395061728395,0,0,0.0728395061728395,40.717283950617286,0)" xlink:href="#au"/><use transform="matrix(0.0728395061728395,0,0,0.0728395061728395,55.28518518518518,0)" xlink:href="#au"/></g><path fill="#461765" d="M24-248c120-7 223 5 221 122C244-46 201 0 124 0H24v-248zM76-40c74 7 117-18 117-86 0-67-45-88-117-82v168" id="av"/><path fill="#461765" d="M25-224v-37h50v37H25zM25 0v-190h50V0H25" id="aw"/><path fill="#461765" d="M195-6C206 82 75 100 31 46c-4-6-6-13-8-21l49-6c3 16 16 24 34 25 40 0 42-37 40-79-11 22-30 35-61 35-53 0-70-43-70-97 0-56 18-96 73-97 30 0 46 14 59 34l2-30h47zm-90-29c32 0 41-27 41-63 0-35-9-62-40-62-32 0-39 29-40 63 0 36 9 62 39 62" id="ax"/><path fill="#461765" d="M135-150c-39-12-60 13-60 57V0H25l-1-190h47c2 13-1 29 3 40 6-28 27-53 61-41v41" id="ay"/><path fill="#461765" d="M220-157c-53 9-28 100-34 157h-49v-107c1-27-5-49-29-50C55-147 81-57 75 0H25l-1-190h47c2 12-1 28 3 38 10-53 101-56 108 0 13-22 24-43 59-42 82 1 51 116 57 194h-49v-107c-1-25-5-48-29-50" id="az"/><g id="b"><use transform="matrix(0.0728395061728395,0,0,0.0728395061728395,0,0)" xlink:href="#av"/><use transform="matrix(0.0728395061728395,0,0,0.0728395061728395,18.86543209876543,0)" xlink:href="#aw"/><use transform="matrix(0.0728395061728395,0,0,0.0728395061728395,26.14938271604938,0)" xlink:href="#at"/><use transform="matrix(0.0728395061728395,0,0,0.0728395061728395,40.717283950617286,0)" xlink:href="#ax"/><use transform="matrix(0.0728395061728395,0,0,0.0728395061728395,56.66913580246913,0)" xlink:href="#ay"/><use transform="matrix(0.0728395061728395,0,0,0.0728395061728395,66.86666666666666,0)" xlink:href="#at"/><use transform="matrix(0.0728395061728395,0,0,0.0728395061728395,81.43456790123457,0)" xlink:href="#az"/></g><path fill="#461765" d="M205 0l-28-72H64L36 0H1l101-248h38L239 0h-34zm-38-99l-47-123c-12 45-31 82-46 123h93" id="aA"/><path fill="#461765" d="M115-194c53 0 69 39 70 98 0 66-23 100-70 100C84 3 66-7 56-30L54 0H23l1-261h32v101c10-23 28-34 59-34zm-8 174c40 0 45-34 45-75 0-40-5-75-45-74-42 0-51 32-51 76 0 43 10 73 51 73" id="aB"/><path fill="#461765" d="M85-194c31 0 48 13 60 33l-1-100h32l1 261h-30c-2-10 0-23-3-31C134-8 116 4 85 4 32 4 16-35 15-94c0-66 23-100 70-100zm9 24c-40 0-46 34-46 75 0 40 6 74 45 74 42 0 51-32 51-76 0-42-9-74-50-73" id="aC"/><path fill="#461765" d="M84 4C-5 8 30-112 23-190h32v120c0 31 7 50 39 49 72-2 45-101 50-169h31l1 190h-30c-1-10 1-25-2-33-11 22-28 36-60 37" id="aD"/><path fill="#461765" d="M24 0v-261h32V0H24" id="aE"/><g id="c"><use transform="matrix(0.04248971193415638,0,0,0.04248971193415638,0,0)" xlink:href="#aA"/><use transform="matrix(0.04248971193415638,0,0,0.04248971193415638,10.19753086419753,0)" xlink:href="#aB"/><use transform="matrix(0.04248971193415638,0,0,0.04248971193415638,18.695473251028805,0)" xlink:href="#aC"/><use transform="matrix(0.04248971193415638,0,0,0.04248971193415638,27.193415637860078,0)" xlink:href="#aD"/><use transform="matrix(0.04248971193415638,0,0,0.04248971193415638,35.691358024691354,0)" xlink:href="#aE"/></g><path fill="#461765" d="M240 0l2-218c-23 76-54 145-80 218h-23L58-218 59 0H30v-248h44l77 211c21-75 51-140 76-211h43V0h-30" id="aF"/><path fill="#461765" d="M59-47c-2 24 18 29 38 22v24C64 9 27 4 27-40v-127H5v-23h24l9-43h21v43h35v23H59v120" id="aG"/><path fill="#461765" d="M141-36C126-15 110 5 73 4 37 3 15-17 15-53c-1-64 63-63 125-63 3-35-9-54-41-54-24 1-41 7-42 31l-33-3c5-37 33-52 76-52 45 0 72 20 72 64v82c-1 20 7 32 28 27v20c-31 9-61-2-59-35zM48-53c0 20 12 33 32 33 41-3 63-29 60-74-43 2-92-5-92 41" id="aH"/><path fill="#461765" d="M143 0L79-87 56-68V0H24v-261h32v163l83-92h37l-77 82L181 0h-38" id="aI"/><path fill="#461765" d="M24-231v-30h32v30H24zM24 0v-190h32V0H24" id="aJ"/><path fill="#461765" d="M114-163C36-179 61-72 57 0H25l-1-190h30c1 12-1 29 2 39 6-27 23-49 58-41v29" id="aK"/><g id="d"><use transform="matrix(0.04248971193415638,0,0,0.04248971193415638,0,0)" xlink:href="#aF"/><use transform="matrix(0.04248971193415638,0,0,0.04248971193415638,12.704423868312757,0)" xlink:href="#aD"/><use transform="matrix(0.04248971193415638,0,0,0.04248971193415638,21.20236625514403,0)" xlink:href="#aG"/><use transform="matrix(0.04248971193415638,0,0,0.04248971193415638,25.45133744855967,0)" xlink:href="#aH"/><use transform="matrix(0.04248971193415638,0,0,0.04248971193415638,33.949279835390946,0)" xlink:href="#aI"/><use transform="matrix(0.04248971193415638,0,0,0.04248971193415638,41.59742798353909,0)" xlink:href="#aH"/><use transform="matrix(0.04248971193415638,0,0,0.04248971193415638,50.09537037037037,0)" xlink:href="#aB"/><use transform="matrix(0.04248971193415638,0,0,0.04248971193415638,58.593312757201645,0)" xlink:href="#aB"/><use transform="matrix(0.04248971193415638,0,0,0.04248971193415638,67.09125514403291,0)" xlink:href="#aJ"/><use transform="matrix(0.04248971193415638,0,0,0.04248971193415638,70.44794238683127,0)" xlink:href="#aK"/></g><path fill="#461765" d="M32 76v-337h29V76H32" id="aL"/><use transform="matrix(0.04248971193415638,0,0,0.04248971193415638,0,0)" xlink:href="#aL" id="e"/><path fill="#461765" d="M63-220v92h138v28H63V0H30v-248h175v28H63" id="aM"/><path fill="#461765" d="M100-194c63 0 86 42 84 106H49c0 40 14 67 53 68 26 1 43-12 49-29l28 8c-11 28-37 45-77 45C44 4 14-33 15-96c1-61 26-98 85-98zm52 81c6-60-76-77-97-28-3 7-6 17-6 28h103" id="aN"/><path fill="#461765" d="M179-190L93 31C79 59 56 82 12 73V49c39 6 53-20 64-50L1-190h34L92-34l54-156h33" id="aO"/><g id="f"><use transform="matrix(0.04248971193415638,0,0,0.04248971193415638,0,0)" xlink:href="#aM"/><use transform="matrix(0.04248971193415638,0,0,0.04248971193415638,9.305246913580246,0)" xlink:href="#aN"/><use transform="matrix(0.04248971193415638,0,0,0.04248971193415638,17.80318930041152,0)" xlink:href="#aB"/><use transform="matrix(0.04248971193415638,0,0,0.04248971193415638,26.301131687242794,0)" xlink:href="#aK"/><use transform="matrix(0.04248971193415638,0,0,0.04248971193415638,31.357407407407408,0)" xlink:href="#aD"/><use transform="matrix(0.04248971193415638,0,0,0.04248971193415638,39.85534979423868,0)" xlink:href="#aH"/><use transform="matrix(0.04248971193415638,0,0,0.04248971193415638,48.35329218106995,0)" xlink:href="#aK"/><use transform="matrix(0.04248971193415638,0,0,0.04248971193415638,53.40956790123455,0)" xlink:href="#aO"/></g><path fill="#461765" d="M134-131c28 9 52 24 51 62-1 50-34 73-85 73S17-19 16-69c0-36 21-54 49-61-75-25-45-126 34-121 46 3 78 18 79 63 0 33-17 51-44 57zm-34-11c31 1 46-15 46-44 0-28-17-43-47-42-29 0-46 13-45 42 1 28 16 44 46 44zm1 122c35 0 51-18 51-52 0-30-18-46-53-46-33 0-51 17-51 47 0 34 19 51 53 51" id="aP"/><path fill="#461765" d="M68-38c1 34 0 65-14 84H32c9-13 17-26 17-46H33v-38h35" id="aQ"/><g id="g"><use transform="matrix(0.04248971193415638,0,0,0.04248971193415638,0,0)" xlink:href="#aP"/><use transform="matrix(0.04248971193415638,0,0,0.04248971193415638,8.497942386831275,0)" xlink:href="#aQ"/></g><path fill="#461765" d="M101-251c82-7 93 87 43 132L82-64C71-53 59-42 53-27h129V0H18c2-99 128-94 128-182 0-28-16-43-45-43s-46 15-49 41l-32-3c6-41 34-60 81-64" id="aR"/><path fill="#461765" d="M101-251c68 0 85 55 85 127S166 4 100 4C33 4 14-52 14-124c0-73 17-127 87-127zm-1 229c47 0 54-49 54-102s-4-102-53-102c-51 0-55 48-55 102 0 53 5 102 54 102" id="aS"/><g id="h"><use transform="matrix(0.04248971193415638,0,0,0.04248971193415638,0,0)" xlink:href="#aR"/><use transform="matrix(0.04248971193415638,0,0,0.04248971193415638,8.497942386831275,0)" xlink:href="#aS"/><use transform="matrix(0.04248971193415638,0,0,0.04248971193415638,16.99588477366255,0)" xlink:href="#aR"/><use transform="matrix(0.04248971193415638,0,0,0.04248971193415638,25.493827160493822,0)" xlink:href="#aR"/></g><path fill="#461765" d="M33 0v-248h34V0H33" id="aT"/><path fill="#461765" d="M117-194c89-4 53 116 60 194h-32v-121c0-31-8-49-39-48C34-167 62-67 57 0H25l-1-190h30c1 10-1 24 2 32 11-22 29-35 61-36" id="aU"/><path fill="#461765" d="M135-143c-3-34-86-38-87 0 15 53 115 12 119 90S17 21 10-45l28-5c4 36 97 45 98 0-10-56-113-15-118-90-4-57 82-63 122-42 12 7 21 19 24 35" id="aV"/><path fill="#461765" d="M115-194c55 1 70 41 70 98S169 2 115 4C84 4 66-9 55-30l1 105H24l-1-265h31l2 30c10-21 28-34 59-34zm-8 174c40 0 45-34 45-75s-6-73-45-74c-42 0-51 32-51 76 0 43 10 73 51 73" id="aW"/><path fill="#461765" d="M96-169c-40 0-48 33-48 73s9 75 48 75c24 0 41-14 43-38l32 2c-6 37-31 61-74 61-59 0-76-41-82-99-10-93 101-131 147-64 4 7 5 14 7 22l-32 3c-4-21-16-35-41-35" id="aX"/><path fill="#461765" d="M100-194c62-1 85 37 85 99 1 63-27 99-86 99S16-35 15-95c0-66 28-99 85-99zM99-20c44 1 53-31 53-75 0-43-8-75-51-75s-53 32-53 75 10 74 51 75" id="aY"/><g id="i"><use transform="matrix(0.05,0,0,0.05,0,0)" xlink:href="#aT"/><use transform="matrix(0.05,0,0,0.05,5,0)" xlink:href="#aU"/><use transform="matrix(0.05,0,0,0.05,15,0)" xlink:href="#aV"/><use transform="matrix(0.05,0,0,0.05,24,0)" xlink:href="#aW"/><use transform="matrix(0.05,0,0,0.05,34,0)" xlink:href="#aN"/><use transform="matrix(0.05,0,0,0.05,44,0)" xlink:href="#aX"/><use transform="matrix(0.05,0,0,0.05,53,0)" xlink:href="#aG"/><use transform="matrix(0.05,0,0,0.05,58,0)" xlink:href="#aY"/><use transform="matrix(0.05,0,0,0.05,68,0)" xlink:href="#aK"/></g><path fill="#461765" d="M16-82v-28h88v28H16" id="aZ"/><use transform="matrix(0.05,0,0,0.05,0,0)" xlink:href="#aZ" id="j"/><path fill="#461765" d="M210-169c-67 3-38 105-44 169h-31v-121c0-29-5-50-35-48C34-165 62-65 56 0H25l-1-190h30c1 10-1 24 2 32 10-44 99-50 107 0 11-21 27-35 58-36 85-2 47 119 55 194h-31v-121c0-29-5-49-35-48" id="ba"/><path fill="#461765" d="M-5 72V49h209v23H-5" id="bb"/><path fill="#461765" d="M33-154v-36h34v36H33zM33 0v-36h34V0H33" id="bc"/><g id="k"><use transform="matrix(0.05,0,0,0.05,0,0)" xlink:href="#aX"/><use transform="matrix(0.05,0,0,0.05,9,0)" xlink:href="#aY"/><use transform="matrix(0.05,0,0,0.05,19,0)" xlink:href="#ba"/><use transform="matrix(0.05,0,0,0.05,33.95,0)" xlink:href="#aW"/><use transform="matrix(0.05,0,0,0.05,43.95,0)" xlink:href="#aY"/><use transform="matrix(0.05,0,0,0.05,53.95,0)" xlink:href="#aN"/><use transform="matrix(0.05,0,0,0.05,63.95,0)" xlink:href="#aU"/><use transform="matrix(0.05,0,0,0.05,73.95,0)" xlink:href="#aG"/><use transform="matrix(0.05,0,0,0.05,78.95,0)" xlink:href="#bb"/><use transform="matrix(0.05,0,0,0.05,88.95,0)" xlink:href="#aE"/><use transform="matrix(0.05,0,0,0.05,92.9,0)" xlink:href="#aJ"/><use transform="matrix(0.05,0,0,0.05,96.85000000000001,0)" xlink:href="#aV"/><use transform="matrix(0.05,0,0,0.05,105.85000000000001,0)" xlink:href="#aG"/><use transform="matrix(0.05,0,0,0.05,110.85000000000001,0)" xlink:href="#bc"/><use transform="matrix(0.05,0,0,0.05,115.85000000000001,0)" xlink:href="#aE"/><use transform="matrix(0.05,0,0,0.05,119.80000000000001,0)" xlink:href="#aJ"/><use transform="matrix(0.05,0,0,0.05,123.75,0)" xlink:href="#aV"/><use transform="matrix(0.05,0,0,0.05,132.75,0)" xlink:href="#aG"/></g><path fill="#461765" d="M18-150v-26h174v26H18zm0 90v-26h174v26H18" id="bd"/><use transform="matrix(0.05,0,0,0.05,0,0)" xlink:href="#bd" id="l"/><path fill="#461765" d="M190 0L58-211 59 0H30v-248h39L202-35l-2-213h31V0h-41" id="be"/><g id="m"><use transform="matrix(0.05,0,0,0.05,0,0)" xlink:href="#be"/><use transform="matrix(0.05,0,0,0.05,12.950000000000001,0)" xlink:href="#aY"/><use transform="matrix(0.05,0,0,0.05,22.950000000000003,0)" xlink:href="#aU"/><use transform="matrix(0.05,0,0,0.05,32.95,0)" xlink:href="#aN"/></g><path fill="#461765" d="M206 0h-36l-40-164L89 0H53L-1-190h32L70-26l43-164h34l41 164 42-164h31" id="bf"/><path fill="#461765" d="M177-190C167-65 218 103 67 71c-23-6-38-20-44-43l32-5c15 47 100 32 89-28v-30C133-14 115 1 83 1 29 1 15-40 15-95c0-56 16-97 71-98 29-1 48 16 59 35 1-10 0-23 2-32h30zM94-22c36 0 50-32 50-73 0-42-14-75-50-75-39 0-46 34-46 75s6 73 46 73" id="bg"/><g id="n"><use transform="matrix(0.05,0,0,0.05,0,0)" xlink:href="#aJ"/><use transform="matrix(0.05,0,0,0.05,3.95,0)" xlink:href="#aV"/><use transform="matrix(0.05,0,0,0.05,12.949999999999998,0)" xlink:href="#bb"/><use transform="matrix(0.05,0,0,0.05,22.95,0)" xlink:href="#bf"/><use transform="matrix(0.05,0,0,0.05,35.9,0)" xlink:href="#aY"/><use transform="matrix(0.05,0,0,0.05,45.9,0)" xlink:href="#aK"/><use transform="matrix(0.05,0,0,0.05,51.85,0)" xlink:href="#aI"/><use transform="matrix(0.05,0,0,0.05,60.85,0)" xlink:href="#aJ"/><use transform="matrix(0.05,0,0,0.05,64.8,0)" xlink:href="#aU"/><use transform="matrix(0.05,0,0,0.05,74.8,0)" xlink:href="#bg"/><use transform="matrix(0.05,0,0,0.05,84.8,0)" xlink:href="#bc"/><use transform="matrix(0.05,0,0,0.05,89.8,0)" xlink:href="#aB"/><use transform="matrix(0.05,0,0,0.05,99.8,0)" xlink:href="#aY"/><use transform="matrix(0.05,0,0,0.05,109.80000000000001,0)" xlink:href="#aY"/><use transform="matrix(0.05,0,0,0.05,119.80000000000001,0)" xlink:href="#aE"/><use transform="matrix(0.05,0,0,0.05,123.75,0)" xlink:href="#aN"/><use transform="matrix(0.05,0,0,0.05,133.75,0)" xlink:href="#aH"/><use transform="matrix(0.05,0,0,0.05,143.75,0)" xlink:href="#aU"/></g><g id="o"><use transform="matrix(0.05,0,0,0.05,0,0)" xlink:href="#aM"/><use transform="matrix(0.05,0,0,0.05,10.950000000000001,0)" xlink:href="#aH"/><use transform="matrix(0.05,0,0,0.05,20.950000000000003,0)" xlink:href="#aE"/><use transform="matrix(0.05,0,0,0.05,24.900000000000002,0)" xlink:href="#aV"/><use transform="matrix(0.05,0,0,0.05,33.900000000000006,0)" xlink:href="#aN"/></g><path fill="#461765" d="M212-179c-10-28-35-45-73-45-59 0-87 40-87 99 0 60 29 101 89 101 43 0 62-24 78-52l27 14C228-24 195 4 139 4 59 4 22-46 18-125c-6-104 99-153 187-111 19 9 31 26 39 46" id="bh"/><g id="p"><use transform="matrix(0.05,0,0,0.05,0,0)" xlink:href="#bf"/><use transform="matrix(0.05,0,0,0.05,12.950000000000001,0)" xlink:href="#aY"/><use transform="matrix(0.05,0,0,0.05,22.950000000000003,0)" xlink:href="#aK"/><use transform="matrix(0.05,0,0,0.05,28.900000000000002,0)" xlink:href="#aI"/><use transform="matrix(0.05,0,0,0.05,37.900000000000006,0)" xlink:href="#aJ"/><use transform="matrix(0.05,0,0,0.05,41.85000000000001,0)" xlink:href="#aU"/><use transform="matrix(0.05,0,0,0.05,51.85,0)" xlink:href="#bg"/><use transform="matrix(0.05,0,0,0.05,61.85,0)" xlink:href="#bb"/><use transform="matrix(0.05,0,0,0.05,71.85000000000001,0)" xlink:href="#aY"/><use transform="matrix(0.05,0,0,0.05,81.85000000000001,0)" xlink:href="#aU"/><use transform="matrix(0.05,0,0,0.05,91.85000000000001,0)" xlink:href="#bc"/><use transform="matrix(0.05,0,0,0.05,96.85000000000001,0)" xlink:href="#bh"/><use transform="matrix(0.05,0,0,0.05,109.80000000000001,0)" xlink:href="#aY"/><use transform="matrix(0.05,0,0,0.05,119.80000000000001,0)" xlink:href="#ba"/><use transform="matrix(0.05,0,0,0.05,134.75,0)" xlink:href="#aW"/><use transform="matrix(0.05,0,0,0.05,144.75,0)" xlink:href="#aY"/><use transform="matrix(0.05,0,0,0.05,154.75,0)" xlink:href="#aU"/><use transform="matrix(0.05,0,0,0.05,164.75,0)" xlink:href="#aN"/><use transform="matrix(0.05,0,0,0.05,174.75,0)" xlink:href="#aU"/><use transform="matrix(0.05,0,0,0.05,184.75,0)" xlink:href="#aG"/></g><g id="q"><use transform="matrix(0.05,0,0,0.05,0,0)" xlink:href="#be"/><use transform="matrix(0.05,0,0,0.05,12.950000000000001,0)" xlink:href="#aY"/><use transform="matrix(0.05,0,0,0.05,22.950000000000003,0)" xlink:href="#aU"/><use transform="matrix(0.05,0,0,0.05,32.95,0)" xlink:href="#aN"/></g><path fill="#461765" d="M87 75C49 33 22-17 22-94c0-76 28-126 65-167h31c-38 41-64 92-64 168S80 34 118 75H87" id="bi"/><path fill="#461765" d="M33-261c38 41 65 92 65 168S71 34 33 75H2C39 34 66-17 66-93S39-220 2-261h31" id="bj"/><g id="r"><use transform="matrix(0.05,0,0,0.05,0,0)" xlink:href="#bb"/><use transform="matrix(0.05,0,0,0.05,10,0)" xlink:href="#aJ"/><use transform="matrix(0.05,0,0,0.05,13.949999999999998,0)" xlink:href="#aU"/><use transform="matrix(0.05,0,0,0.05,23.95,0)" xlink:href="#aJ"/><use transform="matrix(0.05,0,0,0.05,27.899999999999995,0)" xlink:href="#aG"/><use transform="matrix(0.05,0,0,0.05,32.9,0)" xlink:href="#bb"/><use transform="matrix(0.05,0,0,0.05,42.9,0)" xlink:href="#bi"/><use transform="matrix(0.05,0,0,0.05,48.85,0)" xlink:href="#bj"/></g><g id="s"><use transform="matrix(0.05,0,0,0.05,0,0)" xlink:href="#bg"/><use transform="matrix(0.05,0,0,0.05,10,0)" xlink:href="#aN"/><use transform="matrix(0.05,0,0,0.05,20,0)" xlink:href="#aG"/><use transform="matrix(0.05,0,0,0.05,25,0)" xlink:href="#bb"/><use transform="matrix(0.05,0,0,0.05,35,0)" xlink:href="#aU"/><use transform="matrix(0.05,0,0,0.05,45,0)" xlink:href="#aN"/><use transform="matrix(0.05,0,0,0.05,55,0)" xlink:href="#bf"/><use transform="matrix(0.05,0,0,0.05,67.95,0)" xlink:href="#bb"/><use transform="matrix(0.05,0,0,0.05,77.95,0)" xlink:href="#aX"/><use transform="matrix(0.05,0,0,0.05,86.95,0)" xlink:href="#aY"/><use transform="matrix(0.05,0,0,0.05,96.95,0)" xlink:href="#ba"/><use transform="matrix(0.05,0,0,0.05,111.9,0)" xlink:href="#aW"/><use transform="matrix(0.05,0,0,0.05,121.9,0)" xlink:href="#aY"/><use transform="matrix(0.05,0,0,0.05,131.9,0)" xlink:href="#aU"/><use transform="matrix(0.05,0,0,0.05,141.9,0)" xlink:href="#aN"/><use transform="matrix(0.05,0,0,0.05,151.9,0)" xlink:href="#aU"/><use transform="matrix(0.05,0,0,0.05,161.9,0)" xlink:href="#aG"/><use transform="matrix(0.05,0,0,0.05,166.9,0)" xlink:href="#bi"/><use transform="matrix(0.05,0,0,0.05,172.85,0)" xlink:href="#bj"/><use transform="matrix(0.05,0,0,0.05,178.79999999999998,0)" xlink:href="#bc"/></g><g id="t"><use transform="matrix(0.05,0,0,0.05,0,0)" xlink:href="#bh"/><use transform="matrix(0.05,0,0,0.05,12.950000000000001,0)" xlink:href="#aY"/><use transform="matrix(0.05,0,0,0.05,22.950000000000003,0)" xlink:href="#ba"/><use transform="matrix(0.05,0,0,0.05,37.900000000000006,0)" xlink:href="#aW"/><use transform="matrix(0.05,0,0,0.05,47.900000000000006,0)" xlink:href="#aY"/><use transform="matrix(0.05,0,0,0.05,57.900000000000006,0)" xlink:href="#aU"/><use transform="matrix(0.05,0,0,0.05,67.9,0)" xlink:href="#aN"/><use transform="matrix(0.05,0,0,0.05,77.9,0)" xlink:href="#aU"/><use transform="matrix(0.05,0,0,0.05,87.9,0)" xlink:href="#aG"/></g><g id="u"><use transform="matrix(0.05,0,0,0.05,0,0)" xlink:href="#aJ"/><use transform="matrix(0.05,0,0,0.05,3.95,0)" xlink:href="#aU"/><use transform="matrix(0.05,0,0,0.05,13.949999999999998,0)" xlink:href="#aV"/><use transform="matrix(0.05,0,0,0.05,22.95,0)" xlink:href="#aW"/><use transform="matrix(0.05,0,0,0.05,32.95,0)" xlink:href="#aN"/><use transform="matrix(0.05,0,0,0.05,42.95,0)" xlink:href="#aX"/><use transform="matrix(0.05,0,0,0.05,51.95,0)" xlink:href="#aG"/><use transform="matrix(0.05,0,0,0.05,56.95,0)" xlink:href="#bb"/><use transform="matrix(0.05,0,0,0.05,66.95,0)" xlink:href="#aX"/><use transform="matrix(0.05,0,0,0.05,75.95,0)" xlink:href="#aY"/><use transform="matrix(0.05,0,0,0.05,85.95,0)" xlink:href="#ba"/><use transform="matrix(0.05,0,0,0.05,100.9,0)" xlink:href="#aW"/><use transform="matrix(0.05,0,0,0.05,110.9,0)" xlink:href="#aY"/><use transform="matrix(0.05,0,0,0.05,120.9,0)" xlink:href="#aN"/><use transform="matrix(0.05,0,0,0.05,130.9,0)" xlink:href="#aU"/><use transform="matrix(0.05,0,0,0.05,140.9,0)" xlink:href="#aG"/><use transform="matrix(0.05,0,0,0.05,145.9,0)" xlink:href="#bi"/><use transform="matrix(0.05,0,0,0.05,151.85,0)" xlink:href="#bj"/><use transform="matrix(0.05,0,0,0.05,157.79999999999998,0)" xlink:href="#bc"/></g><g id="v"><use transform="matrix(0.05,0,0,0.05,0,0)" xlink:href="#aB"/><use transform="matrix(0.05,0,0,0.05,10,0)" xlink:href="#aY"/><use transform="matrix(0.05,0,0,0.05,20,0)" xlink:href="#aY"/><use transform="matrix(0.05,0,0,0.05,30,0)" xlink:href="#aE"/><use transform="matrix(0.05,0,0,0.05,33.95,0)" xlink:href="#aN"/><use transform="matrix(0.05,0,0,0.05,43.95,0)" xlink:href="#aH"/><use transform="matrix(0.05,0,0,0.05,53.95,0)" xlink:href="#aU"/></g><g id="w"><use transform="matrix(0.05,0,0,0.05,0,0)" xlink:href="#aV"/><use transform="matrix(0.05,0,0,0.05,9,0)" xlink:href="#aN"/><use transform="matrix(0.05,0,0,0.05,19,0)" xlink:href="#aU"/><use transform="matrix(0.05,0,0,0.05,29,0)" xlink:href="#aC"/><use transform="matrix(0.05,0,0,0.05,39,0)" xlink:href="#bb"/><use transform="matrix(0.05,0,0,0.05,49,0)" xlink:href="#aX"/><use transform="matrix(0.05,0,0,0.05,58,0)" xlink:href="#aY"/><use transform="matrix(0.05,0,0,0.05,68,0)" xlink:href="#ba"/><use transform="matrix(0.05,0,0,0.05,82.95,0)" xlink:href="#aW"/><use transform="matrix(0.05,0,0,0.05,92.95,0)" xlink:href="#aY"/><use transform="matrix(0.05,0,0,0.05,102.95,0)" xlink:href="#aU"/><use transform="matrix(0.05,0,0,0.05,112.95,0)" xlink:href="#aN"/><use transform="matrix(0.05,0,0,0.05,122.95,0)" xlink:href="#aU"/><use transform="matrix(0.05,0,0,0.05,132.95,0)" xlink:href="#aG"/><use transform="matrix(0.05,0,0,0.05,137.95,0)" xlink:href="#bi"/><use transform="matrix(0.05,0,0,0.05,143.89999999999998,0)" xlink:href="#bj"/></g><path fill="#461765" d="M160-131c35 5 61 23 61 61C221 17 115-2 30 0v-248c76 3 177-17 177 60 0 33-19 50-47 57zm-97-11c50-1 110 9 110-42 0-47-63-36-110-37v79zm0 115c55-2 124 14 124-45 0-56-70-42-124-44v89" id="bk"/><path fill="#461765" d="M101-234c-31-9-42 10-38 44h38v23H63V0H32v-167H5v-23h27c-7-52 17-82 69-68v24" id="bl"/><g id="x"><use transform="matrix(0.05,0,0,0.05,0,0)" xlink:href="#bk"/><use transform="matrix(0.05,0,0,0.05,12,0)" xlink:href="#aD"/><use transform="matrix(0.05,0,0,0.05,22,0)" xlink:href="#bl"/><use transform="matrix(0.05,0,0,0.05,26.649999999999995,0)" xlink:href="#bl"/><use transform="matrix(0.05,0,0,0.05,31.649999999999995,0)" xlink:href="#aN"/><use transform="matrix(0.05,0,0,0.05,41.65,0)" xlink:href="#aK"/></g><g id="y"><use transform="matrix(0.05,0,0,0.05,0,0)" xlink:href="#aJ"/><use transform="matrix(0.05,0,0,0.05,3.95,0)" xlink:href="#aV"/><use transform="matrix(0.05,0,0,0.05,12.949999999999998,0)" xlink:href="#bb"/><use transform="matrix(0.05,0,0,0.05,22.95,0)" xlink:href="#aN"/><use transform="matrix(0.05,0,0,0.05,32.95,0)" xlink:href="#ba"/><use transform="matrix(0.05,0,0,0.05,47.900000000000006,0)" xlink:href="#aW"/><use transform="matrix(0.05,0,0,0.05,57.900000000000006,0)" xlink:href="#aO"/><use transform="matrix(0.05,0,0,0.05,66.9,0)" xlink:href="#aG"/><use transform="matrix(0.05,0,0,0.05,71.9,0)" xlink:href="#aO"/><use transform="matrix(0.05,0,0,0.05,80.9,0)" xlink:href="#bc"/><use transform="matrix(0.05,0,0,0.05,85.9,0)" xlink:href="#aB"/><use transform="matrix(0.05,0,0,0.05,95.9,0)" xlink:href="#aY"/><use transform="matrix(0.05,0,0,0.05,105.9,0)" xlink:href="#aY"/><use transform="matrix(0.05,0,0,0.05,115.9,0)" xlink:href="#aE"/><use transform="matrix(0.05,0,0,0.05,119.85000000000001,0)" xlink:href="#aN"/><use transform="matrix(0.05,0,0,0.05,129.85000000000002,0)" xlink:href="#aH"/><use transform="matrix(0.05,0,0,0.05,139.85000000000002,0)" xlink:href="#aU"/></g><path fill="#461765" d="M127-220V0H93v-220H8v-28h204v28h-85" id="bm"/><g id="z"><use transform="matrix(0.05,0,0,0.05,0,0)" xlink:href="#bm"/><use transform="matrix(0.05,0,0,0.05,10.3,0)" xlink:href="#aK"/><use transform="matrix(0.05,0,0,0.05,16.25,0)" xlink:href="#aD"/><use transform="matrix(0.05,0,0,0.05,26.25,0)" xlink:href="#aN"/></g><g id="A"><use transform="matrix(0.05,0,0,0.05,0,0)" xlink:href="#aW"/><use transform="matrix(0.05,0,0,0.05,10,0)" xlink:href="#aK"/><use transform="matrix(0.05,0,0,0.05,15.949999999999998,0)" xlink:href="#aJ"/><use transform="matrix(0.05,0,0,0.05,19.9,0)" xlink:href="#aY"/><use transform="matrix(0.05,0,0,0.05,29.899999999999995,0)" xlink:href="#aK"/><use transform="matrix(0.05,0,0,0.05,35.85,0)" xlink:href="#aJ"/><use transform="matrix(0.05,0,0,0.05,39.800000000000004,0)" xlink:href="#aG"/><use transform="matrix(0.05,0,0,0.05,44.800000000000004,0)" xlink:href="#aO"/><use transform="matrix(0.05,0,0,0.05,53.800000000000004,0)" xlink:href="#bc"/><use transform="matrix(0.05,0,0,0.05,58.800000000000004,0)" xlink:href="#aJ"/><use transform="matrix(0.05,0,0,0.05,62.75,0)" xlink:href="#aU"/><use transform="matrix(0.05,0,0,0.05,72.75,0)" xlink:href="#aG"/><use transform="matrix(0.05,0,0,0.05,77.75,0)" xlink:href="#aN"/><use transform="matrix(0.05,0,0,0.05,87.75,0)" xlink:href="#bg"/><use transform="matrix(0.05,0,0,0.05,97.75,0)" xlink:href="#aN"/><use transform="matrix(0.05,0,0,0.05,107.75,0)" xlink:href="#aK"/></g><use transform="matrix(0.05,0,0,0.05,0,0)" xlink:href="#aS" id="B"/><path fill="#461765" d="M145-31C134-9 116 4 85 4 32 4 16-35 15-94c0-59 17-99 70-100 32-1 48 14 60 33 0-11-1-24 2-32h30l-1 268h-32zM93-21c41 0 51-33 51-76s-8-73-50-73c-40 0-46 35-46 75s5 74 45 74" id="bn"/><g id="C"><use transform="matrix(0.05,0,0,0.05,0,0)" xlink:href="#bn"/><use transform="matrix(0.05,0,0,0.05,10,0)" xlink:href="#aD"/><use transform="matrix(0.05,0,0,0.05,20,0)" xlink:href="#aN"/><use transform="matrix(0.05,0,0,0.05,30,0)" xlink:href="#aD"/><use transform="matrix(0.05,0,0,0.05,40,0)" xlink:href="#aN"/><use transform="matrix(0.05,0,0,0.05,50,0)" xlink:href="#bc"/><use transform="matrix(0.05,0,0,0.05,55,0)" xlink:href="#aE"/><use transform="matrix(0.05,0,0,0.05,58.95,0)" xlink:href="#aJ"/><use transform="matrix(0.05,0,0,0.05,62.900000000000006,0)" xlink:href="#aV"/><use transform="matrix(0.05,0,0,0.05,71.9,0)" xlink:href="#aG"/></g><g id="D"><use transform="matrix(0.05,0,0,0.05,0,0)" xlink:href="#bn"/><use transform="matrix(0.05,0,0,0.05,10,0)" xlink:href="#aD"/><use transform="matrix(0.05,0,0,0.05,20,0)" xlink:href="#aN"/><use transform="matrix(0.05,0,0,0.05,30,0)" xlink:href="#aD"/><use transform="matrix(0.05,0,0,0.05,40,0)" xlink:href="#aN"/><use transform="matrix(0.05,0,0,0.05,50,0)" xlink:href="#bb"/><use transform="matrix(0.05,0,0,0.05,60,0)" xlink:href="#aE"/><use transform="matrix(0.05,0,0,0.05,63.95,0)" xlink:href="#aJ"/><use transform="matrix(0.05,0,0,0.05,67.9,0)" xlink:href="#ba"/><use transform="matrix(0.05,0,0,0.05,82.85000000000001,0)" xlink:href="#aJ"/><use transform="matrix(0.05,0,0,0.05,86.80000000000001,0)" xlink:href="#aG"/><use transform="matrix(0.05,0,0,0.05,91.80000000000001,0)" xlink:href="#bc"/><use transform="matrix(0.05,0,0,0.05,96.80000000000001,0)" xlink:href="#aJ"/><use transform="matrix(0.05,0,0,0.05,100.75000000000001,0)" xlink:href="#aU"/><use transform="matrix(0.05,0,0,0.05,110.75,0)" xlink:href="#aG"/><use transform="matrix(0.05,0,0,0.05,115.75,0)" xlink:href="#aN"/><use transform="matrix(0.05,0,0,0.05,125.75,0)" xlink:href="#bg"/><use transform="matrix(0.05,0,0,0.05,135.75,0)" xlink:href="#aN"/><use transform="matrix(0.05,0,0,0.05,145.75,0)" xlink:href="#aK"/></g><use transform="matrix(0.05,0,0,0.05,0,0)" xlink:href="#aR" id="E"/><g id="F"><use transform="matrix(0.05,0,0,0.05,0,0)" xlink:href="#aJ"/><use transform="matrix(0.05,0,0,0.05,3.95,0)" xlink:href="#aU"/><use transform="matrix(0.05,0,0,0.05,13.949999999999998,0)" xlink:href="#aV"/><use transform="matrix(0.05,0,0,0.05,22.95,0)" xlink:href="#aN"/><use transform="matrix(0.05,0,0,0.05,32.95,0)" xlink:href="#aK"/><use transform="matrix(0.05,0,0,0.05,38.900000000000006,0)" xlink:href="#aG"/><use transform="matrix(0.05,0,0,0.05,43.900000000000006,0)" xlink:href="#bb"/><use transform="matrix(0.05,0,0,0.05,53.900000000000006,0)" xlink:href="#aX"/><use transform="matrix(0.05,0,0,0.05,62.900000000000006,0)" xlink:href="#aY"/><use transform="matrix(0.05,0,0,0.05,72.9,0)" xlink:href="#ba"/><use transform="matrix(0.05,0,0,0.05,87.85000000000001,0)" xlink:href="#aW"/><use transform="matrix(0.05,0,0,0.05,97.85000000000001,0)" xlink:href="#aY"/><use transform="matrix(0.05,0,0,0.05,107.85000000000001,0)" xlink:href="#aN"/><use transform="matrix(0.05,0,0,0.05,117.85000000000001,0)" xlink:href="#aU"/><use transform="matrix(0.05,0,0,0.05,127.85000000000001,0)" xlink:href="#aG"/><use transform="matrix(0.05,0,0,0.05,132.85000000000002,0)" xlink:href="#bi"/><use transform="matrix(0.05,0,0,0.05,138.8,0)" xlink:href="#bh"/><use transform="matrix(0.05,0,0,0.05,151.75,0)" xlink:href="#aY"/><use transform="matrix(0.05,0,0,0.05,161.75,0)" xlink:href="#ba"/><use transform="matrix(0.05,0,0,0.05,176.7,0)" xlink:href="#aW"/><use transform="matrix(0.05,0,0,0.05,186.7,0)" xlink:href="#aY"/><use transform="matrix(0.05,0,0,0.05,196.7,0)" xlink:href="#aU"/><use transform="matrix(0.05,0,0,0.05,206.69999999999996,0)" xlink:href="#aN"/><use transform="matrix(0.05,0,0,0.05,216.69999999999996,0)" xlink:href="#aU"/><use transform="matrix(0.05,0,0,0.05,226.69999999999996,0)" xlink:href="#aG"/><use transform="matrix(0.05,0,0,0.05,231.69999999999996,0)" xlink:href="#bj"/></g><g id="G"><use transform="matrix(0.05,0,0,0.05,0,0)" xlink:href="#aV"/><use transform="matrix(0.05,0,0,0.05,9,0)" xlink:href="#aN"/><use transform="matrix(0.05,0,0,0.05,19,0)" xlink:href="#aU"/><use transform="matrix(0.05,0,0,0.05,29,0)" xlink:href="#aC"/><use transform="matrix(0.05,0,0,0.05,39,0)" xlink:href="#bb"/><use transform="matrix(0.05,0,0,0.05,49,0)" xlink:href="#aX"/><use transform="matrix(0.05,0,0,0.05,58,0)" xlink:href="#aY"/><use transform="matrix(0.05,0,0,0.05,68,0)" xlink:href="#ba"/><use transform="matrix(0.05,0,0,0.05,82.95,0)" xlink:href="#aW"/><use transform="matrix(0.05,0,0,0.05,92.95,0)" xlink:href="#aY"/><use transform="matrix(0.05,0,0,0.05,102.95,0)" xlink:href="#aU"/><use transform="matrix(0.05,0,0,0.05,112.95,0)" xlink:href="#aN"/><use transform="matrix(0.05,0,0,0.05,122.95,0)" xlink:href="#aU"/><use transform="matrix(0.05,0,0,0.05,132.95,0)" xlink:href="#aG"/><use transform="matrix(0.05,0,0,0.05,137.95,0)" xlink:href="#bi"/><use transform="matrix(0.05,0,0,0.05,143.89999999999998,0)" xlink:href="#bj"/><use transform="matrix(0.05,0,0,0.05,149.84999999999997,0)" xlink:href="#bc"/></g><g id="H"><use transform="matrix(0.05,0,0,0.05,0,0)" xlink:href="#bh"/><use transform="matrix(0.05,0,0,0.05,12.950000000000001,0)" xlink:href="#aY"/><use transform="matrix(0.05,0,0,0.05,22.950000000000003,0)" xlink:href="#ba"/><use transform="matrix(0.05,0,0,0.05,37.900000000000006,0)" xlink:href="#aW"/><use transform="matrix(0.05,0,0,0.05,47.900000000000006,0)" xlink:href="#aY"/><use transform="matrix(0.05,0,0,0.05,57.900000000000006,0)" xlink:href="#aU"/><use transform="matrix(0.05,0,0,0.05,67.9,0)" xlink:href="#aN"/><use transform="matrix(0.05,0,0,0.05,77.9,0)" xlink:href="#aU"/><use transform="matrix(0.05,0,0,0.05,87.9,0)" xlink:href="#aG"/></g><path fill="#461765" d="M266 0h-40l-56-210L115 0H75L2-248h35L96-30l15-64 43-154h32l59 218 59-218h35" id="bo"/><g id="I"><use transform="matrix(0.05,0,0,0.05,0,0)" xlink:href="#bo"/><use transform="matrix(0.05,0,0,0.05,16.599999999999998,0)" xlink:href="#aY"/><use transform="matrix(0.05,0,0,0.05,26.599999999999994,0)" xlink:href="#aK"/><use transform="matrix(0.05,0,0,0.05,32.55,0)" xlink:href="#aI"/><use transform="matrix(0.05,0,0,0.05,41.55,0)" xlink:href="#aV"/><use transform="matrix(0.05,0,0,0.05,50.55,0)" xlink:href="#aG"/><use transform="matrix(0.05,0,0,0.05,55.54999999999999,0)" xlink:href="#aH"/><use transform="matrix(0.05,0,0,0.05,65.55,0)" xlink:href="#aG"/><use transform="matrix(0.05,0,0,0.05,70.55,0)" xlink:href="#aJ"/><use transform="matrix(0.05,0,0,0.05,74.5,0)" xlink:href="#aY"/><use transform="matrix(0.05,0,0,0.05,84.5,0)" xlink:href="#aU"/></g><g id="J"><use transform="matrix(0.05,0,0,0.05,0,0)" xlink:href="#aB"/><use transform="matrix(0.05,0,0,0.05,10,0)" xlink:href="#aD"/><use transform="matrix(0.05,0,0,0.05,20,0)" xlink:href="#bl"/><use transform="matrix(0.05,0,0,0.05,24.65,0)" xlink:href="#bl"/><use transform="matrix(0.05,0,0,0.05,29.649999999999995,0)" xlink:href="#aN"/><use transform="matrix(0.05,0,0,0.05,39.65,0)" xlink:href="#aK"/><use transform="matrix(0.05,0,0,0.05,45.6,0)" xlink:href="#aV"/><use transform="matrix(0.05,0,0,0.05,54.6,0)" xlink:href="#bc"/><use transform="matrix(0.05,0,0,0.05,59.6,0)" xlink:href="#aE"/><use transform="matrix(0.05,0,0,0.05,63.550000000000004,0)" xlink:href="#aJ"/><use transform="matrix(0.05,0,0,0.05,67.5,0)" xlink:href="#aV"/><use transform="matrix(0.05,0,0,0.05,76.5,0)" xlink:href="#aG"/></g><g id="K"><use transform="matrix(0.05,0,0,0.05,0,0)" xlink:href="#aG"/><use transform="matrix(0.05,0,0,0.05,5,0)" xlink:href="#aO"/><use transform="matrix(0.05,0,0,0.05,14,0)" xlink:href="#aW"/><use transform="matrix(0.05,0,0,0.05,24,0)" xlink:href="#aN"/><use transform="matrix(0.05,0,0,0.05,34,0)" xlink:href="#bc"/><use transform="matrix(0.05,0,0,0.05,39,0)" xlink:href="#aJ"/><use transform="matrix(0.05,0,0,0.05,42.95,0)" xlink:href="#aU"/><use transform="matrix(0.05,0,0,0.05,52.95,0)" xlink:href="#aG"/><use transform="matrix(0.05,0,0,0.05,57.95,0)" xlink:href="#aN"/><use transform="matrix(0.05,0,0,0.05,67.95,0)" xlink:href="#bg"/><use transform="matrix(0.05,0,0,0.05,77.95,0)" xlink:href="#aN"/><use transform="matrix(0.05,0,0,0.05,87.95,0)" xlink:href="#aK"/></g><use transform="matrix(0.05,0,0,0.05,0,0)" xlink:href="#bd" id="L"/><use transform="matrix(0.05,0,0,0.05,0,0)" xlink:href="#aS" id="M"/><g id="N"><use transform="matrix(0.05,0,0,0.05,0,0)" xlink:href="#aW"/><use transform="matrix(0.05,0,0,0.05,10,0)" xlink:href="#aK"/><use transform="matrix(0.05,0,0,0.05,15.949999999999998,0)" xlink:href="#aY"/><use transform="matrix(0.05,0,0,0.05,25.950000000000003,0)" xlink:href="#aC"/><use transform="matrix(0.05,0,0,0.05,35.95,0)" xlink:href="#aD"/><use transform="matrix(0.05,0,0,0.05,45.95,0)" xlink:href="#aX"/><use transform="matrix(0.05,0,0,0.05,54.95,0)" xlink:href="#aG"/><use transform="matrix(0.05,0,0,0.05,59.95,0)" xlink:href="#bb"/><use transform="matrix(0.05,0,0,0.05,69.95,0)" xlink:href="#aB"/><use transform="matrix(0.05,0,0,0.05,79.95,0)" xlink:href="#aD"/><use transform="matrix(0.05,0,0,0.05,89.95,0)" xlink:href="#aJ"/><use transform="matrix(0.05,0,0,0.05,93.9,0)" xlink:href="#aE"/><use transform="matrix(0.05,0,0,0.05,97.85000000000001,0)" xlink:href="#aC"/><use transform="matrix(0.05,0,0,0.05,107.85000000000001,0)" xlink:href="#aJ"/><use transform="matrix(0.05,0,0,0.05,111.80000000000001,0)" xlink:href="#aU"/><use transform="matrix(0.05,0,0,0.05,121.80000000000001,0)" xlink:href="#bg"/><use transform="matrix(0.05,0,0,0.05,131.8,0)" xlink:href="#bc"/><use transform="matrix(0.05,0,0,0.05,136.8,0)" xlink:href="#aJ"/><use transform="matrix(0.05,0,0,0.05,140.75,0)" xlink:href="#aU"/><use transform="matrix(0.05,0,0,0.05,150.75,0)" xlink:href="#aG"/><use transform="matrix(0.05,0,0,0.05,155.75,0)" xlink:href="#aN"/><use transform="matrix(0.05,0,0,0.05,165.75,0)" xlink:href="#bg"/><use transform="matrix(0.05,0,0,0.05,175.75,0)" xlink:href="#aN"/><use transform="matrix(0.05,0,0,0.05,185.75,0)" xlink:href="#aK"/></g><use transform="matrix(0.05,0,0,0.05,0,0)" xlink:href="#aS" id="O"/><g id="P"><use transform="matrix(0.05,0,0,0.05,0,0)" xlink:href="#aC"/><use transform="matrix(0.05,0,0,0.05,10,0)" xlink:href="#aN"/><use transform="matrix(0.05,0,0,0.05,20,0)" xlink:href="#bn"/><use transform="matrix(0.05,0,0,0.05,30,0)" xlink:href="#aD"/><use transform="matrix(0.05,0,0,0.05,40,0)" xlink:href="#aN"/><use transform="matrix(0.05,0,0,0.05,50,0)" xlink:href="#aD"/><use transform="matrix(0.05,0,0,0.05,60,0)" xlink:href="#aN"/><use transform="matrix(0.05,0,0,0.05,70,0)" xlink:href="#bb"/><use transform="matrix(0.05,0,0,0.05,80,0)" xlink:href="#aB"/><use transform="matrix(0.05,0,0,0.05,90,0)" xlink:href="#aD"/><use transform="matrix(0.05,0,0,0.05,100,0)" xlink:href="#bl"/><use transform="matrix(0.05,0,0,0.05,104.65,0)" xlink:href="#bl"/><use transform="matrix(0.05,0,0,0.05,109.65,0)" xlink:href="#aN"/><use transform="matrix(0.05,0,0,0.05,119.65,0)" xlink:href="#aK"/><use transform="matrix(0.05,0,0,0.05,125.60000000000001,0)" xlink:href="#bi"/><use transform="matrix(0.05,0,0,0.05,131.55,0)" xlink:href="#bj"/></g><g id="Q"><use transform="matrix(0.05,0,0,0.05,0,0)" xlink:href="#aB"/><use transform="matrix(0.05,0,0,0.05,10,0)" xlink:href="#aD"/><use transform="matrix(0.05,0,0,0.05,20,0)" xlink:href="#aJ"/><use transform="matrix(0.05,0,0,0.05,23.95,0)" xlink:href="#aC"/><use transform="matrix(0.05,0,0,0.05,33.95,0)" xlink:href="#bb"/><use transform="matrix(0.05,0,0,0.05,43.95,0)" xlink:href="#aW"/><use transform="matrix(0.05,0,0,0.05,53.95,0)" xlink:href="#aK"/><use transform="matrix(0.05,0,0,0.05,59.900000000000006,0)" xlink:href="#aY"/><use transform="matrix(0.05,0,0,0.05,69.9,0)" xlink:href="#aC"/><use transform="matrix(0.05,0,0,0.05,79.9,0)" xlink:href="#aD"/><use transform="matrix(0.05,0,0,0.05,89.9,0)" xlink:href="#aX"/><use transform="matrix(0.05,0,0,0.05,98.9,0)" xlink:href="#aG"/><use transform="matrix(0.05,0,0,0.05,103.9,0)" xlink:href="#bi"/><use transform="matrix(0.05,0,0,0.05,109.85000000000001,0)" xlink:href="#bj"/><use transform="matrix(0.05,0,0,0.05,115.80000000000001,0)" xlink:href="#bc"/></g><path fill="#461765" d="M30-248c87 1 191-15 191 75 0 78-77 80-158 76V0H30v-248zm33 125c57 0 124 11 124-50 0-59-68-47-124-48v98" id="bp"/><g id="R"><use transform="matrix(0.05,0,0,0.05,0,0)" xlink:href="#bp"/><use transform="matrix(0.05,0,0,0.05,12,0)" xlink:href="#aK"/><use transform="matrix(0.05,0,0,0.05,17.95,0)" xlink:href="#aY"/><use transform="matrix(0.05,0,0,0.05,27.950000000000003,0)" xlink:href="#aC"/><use transform="matrix(0.05,0,0,0.05,37.95,0)" xlink:href="#aD"/><use transform="matrix(0.05,0,0,0.05,47.95,0)" xlink:href="#aX"/><use transform="matrix(0.05,0,0,0.05,56.95,0)" xlink:href="#aG"/></g><g id="S"><use transform="matrix(0.05,0,0,0.05,0,0)" xlink:href="#bp"/><use transform="matrix(0.05,0,0,0.05,12,0)" xlink:href="#aK"/><use transform="matrix(0.05,0,0,0.05,17.95,0)" xlink:href="#aY"/><use transform="matrix(0.05,0,0,0.05,27.950000000000003,0)" xlink:href="#aC"/><use transform="matrix(0.05,0,0,0.05,37.95,0)" xlink:href="#aD"/><use transform="matrix(0.05,0,0,0.05,47.95,0)" xlink:href="#aX"/><use transform="matrix(0.05,0,0,0.05,56.95,0)" xlink:href="#aG"/></g><use transform="matrix(0.05,0,0,0.05,0,0)" xlink:href="#aS" id="T"/><use transform="matrix(0.05,0,0,0.05,0,0)" xlink:href="#aZ" id="U"/><g id="V"><use transform="matrix(0.05,0,0,0.05,0,0)" xlink:href="#bb"/><use transform="matrix(0.05,0,0,0.05,10,0)" xlink:href="#aJ"/><use transform="matrix(0.05,0,0,0.05,13.949999999999998,0)" xlink:href="#aU"/><use transform="matrix(0.05,0,0,0.05,23.95,0)" xlink:href="#aJ"/><use transform="matrix(0.05,0,0,0.05,27.899999999999995,0)" xlink:href="#aG"/><use transform="matrix(0.05,0,0,0.05,32.9,0)" xlink:href="#bb"/><use transform="matrix(0.05,0,0,0.05,42.9,0)" xlink:href="#bi"/><use transform="matrix(0.05,0,0,0.05,48.85,0)" xlink:href="#bj"/></g><g id="W"><use transform="matrix(0.05,0,0,0.05,0,0)" xlink:href="#bh"/><use transform="matrix(0.05,0,0,0.05,12.950000000000001,0)" xlink:href="#aY"/><use transform="matrix(0.05,0,0,0.05,22.950000000000003,0)" xlink:href="#ba"/><use transform="matrix(0.05,0,0,0.05,37.900000000000006,0)" xlink:href="#aW"/><use transform="matrix(0.05,0,0,0.05,47.900000000000006,0)" xlink:href="#aY"/><use transform="matrix(0.05,0,0,0.05,57.900000000000006,0)" xlink:href="#aU"/><use transform="matrix(0.05,0,0,0.05,67.9,0)" xlink:href="#aN"/><use transform="matrix(0.05,0,0,0.05,77.9,0)" xlink:href="#aU"/><use transform="matrix(0.05,0,0,0.05,87.9,0)" xlink:href="#aG"/></g><path fill="#461765" d="M33 0v-38h34V0H33" id="bq"/><path fill="#461765" d="M80-196l47-18 7 23-49 13 32 44-20 13-27-46-27 45-21-12 33-44-49-13 8-23 47 19-2-53h23" id="br"/><g id="X"><use transform="matrix(0.05,0,0,0.05,0,0)" xlink:href="#aS"/><use transform="matrix(0.05,0,0,0.05,10,0)" xlink:href="#bq"/><use transform="matrix(0.05,0,0,0.05,15,0)" xlink:href="#bq"/><use transform="matrix(0.05,0,0,0.05,20,0)" xlink:href="#br"/></g><path fill="#461765" d="M27 0v-27h64v-190l-56 39v-29l58-41h29v221h61V0H27" id="bs"/><use transform="matrix(0.05,0,0,0.05,0,0)" xlink:href="#bs" id="Y"/><g id="Z"><use transform="matrix(0.05,0,0,0.05,0,0)" xlink:href="#aT"/><use transform="matrix(0.05,0,0,0.05,5,0)" xlink:href="#aU"/><use transform="matrix(0.05,0,0,0.05,15,0)" xlink:href="#aV"/><use transform="matrix(0.05,0,0,0.05,24,0)" xlink:href="#aW"/><use transform="matrix(0.05,0,0,0.05,34,0)" xlink:href="#aN"/><use transform="matrix(0.05,0,0,0.05,44,0)" xlink:href="#aX"/><use transform="matrix(0.05,0,0,0.05,53,0)" xlink:href="#aG"/><use transform="matrix(0.05,0,0,0.05,58,0)" xlink:href="#aJ"/><use transform="matrix(0.05,0,0,0.05,61.95,0)" xlink:href="#aY"/><use transform="matrix(0.05,0,0,0.05,71.95,0)" xlink:href="#aU"/></g><g id="aa"><use transform="matrix(0.05,0,0,0.05,0,0)" xlink:href="#bs"/><use transform="matrix(0.05,0,0,0.05,10,0)" xlink:href="#bq"/><use transform="matrix(0.05,0,0,0.05,15,0)" xlink:href="#bq"/><use transform="matrix(0.05,0,0,0.05,20,0)" xlink:href="#aR"/></g><path fill="#461765" d="M185-189c-5-48-123-54-124 2 14 75 158 14 163 119 3 78-121 87-175 55-17-10-28-26-33-46l33-7c5 56 141 63 141-1 0-78-155-14-162-118-5-82 145-84 179-34 5 7 8 16 11 25" id="bt"/><g id="ab"><use transform="matrix(0.05,0,0,0.05,0,0)" xlink:href="#bt"/><use transform="matrix(0.05,0,0,0.05,12,0)" xlink:href="#aG"/><use transform="matrix(0.05,0,0,0.05,17,0)" xlink:href="#aY"/><use transform="matrix(0.05,0,0,0.05,27,0)" xlink:href="#aK"/><use transform="matrix(0.05,0,0,0.05,32.95,0)" xlink:href="#aH"/><use transform="matrix(0.05,0,0,0.05,42.95,0)" xlink:href="#bg"/><use transform="matrix(0.05,0,0,0.05,52.95,0)" xlink:href="#aN"/></g><g id="ac"><use transform="matrix(0.05,0,0,0.05,0,0)" xlink:href="#bk"/><use transform="matrix(0.05,0,0,0.05,12,0)" xlink:href="#aD"/><use transform="matrix(0.05,0,0,0.05,22,0)" xlink:href="#aJ"/><use transform="matrix(0.05,0,0,0.05,25.950000000000003,0)" xlink:href="#aE"/><use transform="matrix(0.05,0,0,0.05,29.899999999999995,0)" xlink:href="#aC"/></g><path fill="#461765" d="M169-182c-1-43-94-46-97-3 18 66 151 10 154 114 3 95-165 93-204 36-6-8-10-19-12-30l50-8c3 46 112 56 116 5-17-69-150-10-154-114-4-87 153-88 188-35 5 8 8 18 10 28" id="bu"/><path fill="#461765" d="M85 4C-2 5 27-109 22-190h50c7 57-23 150 33 157 60-5 35-97 40-157h50l1 190h-47c-2-12 1-28-3-38-12 25-28 42-61 42" id="bv"/><path fill="#461765" d="M115-3C79 11 28 4 28-45v-112H4v-33h27l15-45h31v45h36v33H77v99c-1 23 16 31 38 25v30" id="bw"/><path fill="#461765" d="M110-194c64 0 96 36 96 99 0 64-35 99-97 99-61 0-95-36-95-99 0-62 34-99 96-99zm-1 164c35 0 45-28 45-65 0-40-10-65-43-65-34 0-45 26-45 65 0 36 10 65 43 65" id="bx"/><g id="ad"><use transform="matrix(0.05,0,0,0.05,0,0)" xlink:href="#bu"/><use transform="matrix(0.05,0,0,0.05,12,0)" xlink:href="#aw"/><use transform="matrix(0.05,0,0,0.05,17,0)" xlink:href="#az"/><use transform="matrix(0.05,0,0,0.05,33,0)" xlink:href="#bv"/><use transform="matrix(0.05,0,0,0.05,43.95,0)" xlink:href="#as"/><use transform="matrix(0.05,0,0,0.05,48.95,0)" xlink:href="#at"/><use transform="matrix(0.05,0,0,0.05,58.95,0)" xlink:href="#bw"/><use transform="matrix(0.05,0,0,0.05,64.9,0)" xlink:href="#bx"/><use transform="matrix(0.05,0,0,0.05,75.85000000000001,0)" xlink:href="#ay"/></g><path fill="#461765" d="M118-107v75H92v-75H18v-26h74v-75h26v75h74v26h-74" id="by"/><use transform="matrix(0.05,0,0,0.05,0,0)" xlink:href="#by" id="ae"/><g id="af"><use transform="matrix(0.05,0,0,0.05,0,0)" xlink:href="#aX"/><use transform="matrix(0.05,0,0,0.05,9,0)" xlink:href="#aY"/><use transform="matrix(0.05,0,0,0.05,19,0)" xlink:href="#ba"/><use transform="matrix(0.05,0,0,0.05,33.95,0)" xlink:href="#aW"/><use transform="matrix(0.05,0,0,0.05,43.95,0)" xlink:href="#aY"/><use transform="matrix(0.05,0,0,0.05,53.95,0)" xlink:href="#aU"/><use transform="matrix(0.05,0,0,0.05,63.95,0)" xlink:href="#aN"/><use transform="matrix(0.05,0,0,0.05,73.95,0)" xlink:href="#aG"/><use transform="matrix(0.05,0,0,0.05,78.95,0)" xlink:href="#bb"/><use transform="matrix(0.05,0,0,0.05,88.95,0)" xlink:href="#aG"/><use transform="matrix(0.05,0,0,0.05,93.95,0)" xlink:href="#aO"/><use transform="matrix(0.05,0,0,0.05,102.95,0)" xlink:href="#aW"/><use transform="matrix(0.05,0,0,0.05,112.95,0)" xlink:href="#aN"/><use transform="matrix(0.05,0,0,0.05,122.95,0)" xlink:href="#bb"/><use transform="matrix(0.05,0,0,0.05,132.95,0)" xlink:href="#aE"/><use transform="matrix(0.05,0,0,0.05,136.89999999999998,0)" xlink:href="#aJ"/><use transform="matrix(0.05,0,0,0.05,140.84999999999997,0)" xlink:href="#aV"/><use transform="matrix(0.05,0,0,0.05,149.84999999999997,0)" xlink:href="#aG"/><use transform="matrix(0.05,0,0,0.05,154.84999999999997,0)" xlink:href="#bc"/></g><g id="ag"><use transform="matrix(0.05,0,0,0.05,0,0)" xlink:href="#aE"/><use transform="matrix(0.05,0,0,0.05,3.95,0)" xlink:href="#aJ"/><use transform="matrix(0.05,0,0,0.05,7.9,0)" xlink:href="#aV"/><use transform="matrix(0.05,0,0,0.05,16.9,0)" xlink:href="#aG"/></g><g id="ah"><use transform="matrix(0.05,0,0,0.05,0,0)" xlink:href="#aB"/><use transform="matrix(0.05,0,0,0.05,10,0)" xlink:href="#aD"/><use transform="matrix(0.05,0,0,0.05,20,0)" xlink:href="#bl"/><use transform="matrix(0.05,0,0,0.05,24.65,0)" xlink:href="#bl"/><use transform="matrix(0.05,0,0,0.05,29.649999999999995,0)" xlink:href="#aN"/><use transform="matrix(0.05,0,0,0.05,39.65,0)" xlink:href="#aK"/><use transform="matrix(0.05,0,0,0.05,45.6,0)" xlink:href="#bb"/><use transform="matrix(0.05,0,0,0.05,55.6,0)" xlink:href="#aE"/><use transform="matrix(0.05,0,0,0.05,59.550000000000004,0)" xlink:href="#aJ"/><use transform="matrix(0.05,0,0,0.05,63.5,0)" xlink:href="#aV"/><use transform="matrix(0.05,0,0,0.05,72.5,0)" xlink:href="#aG"/><use transform="matrix(0.05,0,0,0.05,77.5,0)" xlink:href="#bc"/></g><g id="ai"><use transform="matrix(0.05,0,0,0.05,0,0)" xlink:href="#bf"/><use transform="matrix(0.05,0,0,0.05,12.950000000000001,0)" xlink:href="#aY"/><use transform="matrix(0.05,0,0,0.05,22.950000000000003,0)" xlink:href="#aK"/><use transform="matrix(0.05,0,0,0.05,28.900000000000002,0)" xlink:href="#aI"/><use transform="matrix(0.05,0,0,0.05,37.900000000000006,0)" xlink:href="#aV"/><use transform="matrix(0.05,0,0,0.05,46.900000000000006,0)" xlink:href="#aG"/><use transform="matrix(0.05,0,0,0.05,51.900000000000006,0)" xlink:href="#aH"/><use transform="matrix(0.05,0,0,0.05,61.900000000000006,0)" xlink:href="#aG"/><use transform="matrix(0.05,0,0,0.05,66.9,0)" xlink:href="#aJ"/><use transform="matrix(0.05,0,0,0.05,70.85000000000001,0)" xlink:href="#aY"/><use transform="matrix(0.05,0,0,0.05,80.85000000000001,0)" xlink:href="#aU"/><use transform="matrix(0.05,0,0,0.05,90.85000000000001,0)" xlink:href="#bb"/><use transform="matrix(0.05,0,0,0.05,100.85000000000001,0)" xlink:href="#aE"/><use transform="matrix(0.05,0,0,0.05,104.80000000000001,0)" xlink:href="#aJ"/><use transform="matrix(0.05,0,0,0.05,108.75,0)" xlink:href="#aV"/><use transform="matrix(0.05,0,0,0.05,117.75,0)" xlink:href="#aG"/><use transform="matrix(0.05,0,0,0.05,122.75,0)" xlink:href="#bc"/></g><g id="aj"><use transform="matrix(0.05,0,0,0.05,0,0)" xlink:href="#aJ"/><use transform="matrix(0.05,0,0,0.05,3.95,0)" xlink:href="#aU"/><use transform="matrix(0.05,0,0,0.05,13.949999999999998,0)" xlink:href="#aV"/><use transform="matrix(0.05,0,0,0.05,22.95,0)" xlink:href="#aW"/><use transform="matrix(0.05,0,0,0.05,32.95,0)" xlink:href="#aN"/><use transform="matrix(0.05,0,0,0.05,42.95,0)" xlink:href="#aX"/><use transform="matrix(0.05,0,0,0.05,51.95,0)" xlink:href="#aG"/><use transform="matrix(0.05,0,0,0.05,56.95,0)" xlink:href="#aY"/><use transform="matrix(0.05,0,0,0.05,66.95,0)" xlink:href="#aK"/><use transform="matrix(0.05,0,0,0.05,72.9,0)" xlink:href="#bb"/><use transform="matrix(0.05,0,0,0.05,82.9,0)" xlink:href="#aE"/><use transform="matrix(0.05,0,0,0.05,86.85000000000001,0)" xlink:href="#aJ"/><use transform="matrix(0.05,0,0,0.05,90.80000000000001,0)" xlink:href="#aV"/><use transform="matrix(0.05,0,0,0.05,99.80000000000001,0)" xlink:href="#aG"/><use transform="matrix(0.05,0,0,0.05,104.80000000000001,0)" xlink:href="#bc"/></g><g id="ak"><use transform="matrix(0.05,0,0,0.05,0,0)" xlink:href="#aW"/><use transform="matrix(0.05,0,0,0.05,10,0)" xlink:href="#aK"/><use transform="matrix(0.05,0,0,0.05,15.949999999999998,0)" xlink:href="#aY"/><use transform="matrix(0.05,0,0,0.05,25.950000000000003,0)" xlink:href="#aC"/><use transform="matrix(0.05,0,0,0.05,35.95,0)" xlink:href="#aD"/><use transform="matrix(0.05,0,0,0.05,45.95,0)" xlink:href="#aX"/><use transform="matrix(0.05,0,0,0.05,54.95,0)" xlink:href="#aG"/><use transform="matrix(0.05,0,0,0.05,59.95,0)" xlink:href="#bb"/><use transform="matrix(0.05,0,0,0.05,69.95,0)" xlink:href="#aE"/><use transform="matrix(0.05,0,0,0.05,73.9,0)" xlink:href="#aJ"/><use transform="matrix(0.05,0,0,0.05,77.85000000000001,0)" xlink:href="#aV"/><use transform="matrix(0.05,0,0,0.05,86.85000000000001,0)" xlink:href="#aG"/><use transform="matrix(0.05,0,0,0.05,91.85000000000001,0)" xlink:href="#bc"/></g><g id="al"><use transform="matrix(0.05,0,0,0.05,0,0)" xlink:href="#aE"/><use transform="matrix(0.05,0,0,0.05,3.95,0)" xlink:href="#aJ"/><use transform="matrix(0.05,0,0,0.05,7.9,0)" xlink:href="#aV"/><use transform="matrix(0.05,0,0,0.05,16.9,0)" xlink:href="#aG"/></g><g id="am"><use transform="matrix(0.05,0,0,0.05,0,0)" xlink:href="#aV"/><use transform="matrix(0.05,0,0,0.05,9,0)" xlink:href="#aG"/><use transform="matrix(0.05,0,0,0.05,14,0)" xlink:href="#aH"/><use transform="matrix(0.05,0,0,0.05,24,0)" xlink:href="#aK"/><use transform="matrix(0.05,0,0,0.05,29.950000000000003,0)" xlink:href="#aG"/><use transform="matrix(0.05,0,0,0.05,34.95,0)" xlink:href="#bi"/><use transform="matrix(0.05,0,0,0.05,40.900000000000006,0)" xlink:href="#bj"/></g><path d="M27 0v-27h64v-190l-56 39v-29l58-41h29v221h61V0H27" id="bz"/><use transform="matrix(0.05,0,0,0.05,0,0)" xlink:href="#bz" id="an"/><path d="M126-127c33 6 58 20 58 59 0 88-139 92-164 29-3-8-5-16-6-25l32-3c6 27 21 44 54 44 32 0 52-15 52-46 0-38-36-46-79-43v-28c39 1 72-4 72-42 0-27-17-43-46-43-28 0-47 15-49 41l-32-3c6-42 35-63 81-64 48-1 79 21 79 65 0 36-21 52-52 59" id="bA"/><use transform="matrix(0.05,0,0,0.05,0,0)" xlink:href="#bA" id="ao"/><path d="M101-251c82-7 93 87 43 132L82-64C71-53 59-42 53-27h129V0H18c2-99 128-94 128-182 0-28-16-43-45-43s-46 15-49 41l-32-3c6-41 34-60 81-64" id="bB"/><use transform="matrix(0.05,0,0,0.05,0,0)" xlink:href="#bB" id="ap"/><path d="M54-142c48-35 137-8 131 61C196 18 31 33 14-55l32-4c7 23 22 37 52 37 35-1 51-22 54-58 4-55-73-65-99-34H22l8-134h141v27H59" id="bC"/><use transform="matrix(0.05,0,0,0.05,0,0)" xlink:href="#bC" id="aq"/></defs></g></svg>