<svg xmlns="http://www.w3.org/2000/svg" xmlns:xlink="http://www.w3.org/1999/xlink" xmlns:lucid="lucid" width="1431" height="871"><g transform="translate(-209 -220)" lucid:page-tab-id="0_0"><path d="M309 772.5c0-3.3 2.68-6 6-6h150c3.32 0 6 2.7 6 6v63c0 3.3-2.68 6-6 6H315c-3.32 0-6-2.7-6-6z" stroke="#d54d88" stroke-width="2" fill="#f3aca2"/><path d="M309 804.1h162" stroke="#d54d88" stroke-width="2" fill="none"/><use xlink:href="#a" transform="matrix(1,0,0,1,316.99603688947474,774.5) translate(6.724999999999994 14.6)"/><use xlink:href="#b" transform="matrix(1,0,0,1,316.99603688947474,774.5) translate(40.625 14.6)"/><use xlink:href="#c" transform="matrix(1,0,0,1,320.99603688947474,812.1) translate(0 14.6)"/><use xlink:href="#d" transform="matrix(1,0,0,1,320.99603688947474,812.1) translate(10.95 14.6)"/><use xlink:href="#e" transform="matrix(1,0,0,1,320.99603688947474,812.1) translate(54.95 14.6)"/><path d="M580 421c0-3.3 2.7-6 6-6h148c3.3 0 6 2.7 6 6v68c0 3.3-2.7 6-6 6H586c-3.3 0-6-2.7-6-6z" stroke="#d54d88" stroke-width="2" fill="#f3aca2"/><path d="M580 452.6h160" stroke="#d54d88" stroke-width="2" fill="none"/><use xlink:href="#f" transform="matrix(1,0,0,1,588,423) translate(5.224999999999994 14.6)"/><use xlink:href="#b" transform="matrix(1,0,0,1,588,423) translate(39.125 14.6)"/><use xlink:href="#c" transform="matrix(1,0,0,1,592,460.6) translate(0 17.1)"/><use xlink:href="#d" transform="matrix(1,0,0,1,592,460.6) translate(10.95 17.1)"/><use xlink:href="#g" transform="matrix(1,0,0,1,592,460.6) translate(54.95 17.1)"/><path d="M309 906c0-3.3 2.68-6 6-6h150c3.32 0 6 2.7 6 6v68c0 3.3-2.68 6-6 6H315c-3.32 0-6-2.7-6-6z" stroke="#d54d88" stroke-width="2" fill="#f3aca2"/><path d="M309 937.6h162" stroke="#d54d88" stroke-width="2" fill="none"/><use xlink:href="#h" transform="matrix(1,0,0,1,316.99603688947474,908) translate(6.724999999999994 14.6)"/><use xlink:href="#b" transform="matrix(1,0,0,1,316.99603688947474,908) translate(40.625 14.6)"/><use xlink:href="#c" transform="matrix(1,0,0,1,320.99603688947474,945.6) translate(0 17.1)"/><use xlink:href="#d" transform="matrix(1,0,0,1,320.99603688947474,945.6) translate(10.95 17.1)"/><use xlink:href="#i" transform="matrix(1,0,0,1,320.99603688947474,945.6) translate(54.95 17.1)"/><path d="M1479 946c0-3.3 2.68-6 6-6h108c3.3 0 6 2.7 6 6v63c0 3.3-2.7 6-6 6h-108c-3.32 0-6-2.7-6-6z" stroke="#d54d88" stroke-width="2" fill="#f3aca2"/><path d="M1479 977.6h120" stroke="#d54d88" stroke-width="2" fill="none"/><use xlink:href="#j" transform="matrix(1,0,0,1,1486.996036889475,948) translate(1.624999999999993 14.6)"/><use xlink:href="#k" transform="matrix(1,0,0,1,1486.996036889475,948) translate(34.574999999999996 14.6)"/><use xlink:href="#c" transform="matrix(1,0,0,1,1490.996036889475,985.6) translate(0 14.6)"/><use xlink:href="#d" transform="matrix(1,0,0,1,1490.996036889475,985.6) translate(10.95 14.6)"/><use xlink:href="#g" transform="matrix(1,0,0,1,1490.996036889475,985.6) translate(54.95 14.6)"/><path d="M778 686c0-3.3 2.68-6 6-6h112c3.32 0 6 2.7 6 6v68c0 3.3-2.68 6-6 6H784c-3.32 0-6-2.7-6-6z" stroke="#d54d88" stroke-width="2" fill="#f3aca2"/><path d="M778 717.6h124" stroke="#d54d88" stroke-width="2" fill="none"/><use xlink:href="#l" transform="matrix(1,0,0,1,785.9920737789494,687.9999999997672) translate(4.124999999999993 14.6)"/><use xlink:href="#k" transform="matrix(1,0,0,1,785.9920737789494,687.9999999997672) translate(37.074999999999996 14.6)"/><use xlink:href="#c" transform="matrix(1,0,0,1,789.9920737789494,725.5999999997672) translate(0 17.1)"/><use xlink:href="#d" transform="matrix(1,0,0,1,789.9920737789494,725.5999999997672) translate(10.95 17.1)"/><use xlink:href="#e" transform="matrix(1,0,0,1,789.9920737789494,725.5999999997672) translate(54.95 17.1)"/><path d="M560 549c0-3.3 2.7-6 6-6h188c3.3 0 6 2.7 6 6v106c0 3.3-2.7 6-6 6H566c-3.3 0-6-2.7-6-6z" stroke="#d54d88" stroke-width="2" fill="#f3aca2"/><path d="M560 580.6h200" stroke="#d54d88" stroke-width="2" fill="none"/><use xlink:href="#m" transform="matrix(1,0,0,1,568,551) translate(38.62499999999999 14.6)"/><use xlink:href="#n" transform="matrix(1,0,0,1,568,551) translate(64.57499999999999 14.6)"/><use xlink:href="#c" transform="matrix(1,0,0,1,572,588.6) translate(0 14.500000000000002)"/><use xlink:href="#o" transform="matrix(1,0,0,1,572,588.6) translate(10.95 14.500000000000002)"/><use xlink:href="#p" transform="matrix(1,0,0,1,572,588.6) translate(131.8 14.500000000000002)"/><use xlink:href="#c" transform="matrix(1,0,0,1,572,588.6) translate(0 36.1)"/><use xlink:href="#q" transform="matrix(1,0,0,1,572,588.6) translate(10.95 36.1)"/><use xlink:href="#r" transform="matrix(1,0,0,1,572,588.6) translate(105.75 36.1)"/><use xlink:href="#c" transform="matrix(1,0,0,1,572,588.6) translate(0 57.7)"/><use xlink:href="#s" transform="matrix(1,0,0,1,572,588.6) translate(10.95 57.7)"/><use xlink:href="#t" transform="matrix(1,0,0,1,572,588.6) translate(112.80000000000001 57.7)"/><path d="M540 751c0-3.3 2.7-6 6-6h208c3.3 0 6 2.7 6 6v106c0 3.3-2.7 6-6 6H546c-3.3 0-6-2.7-6-6z" stroke="#d54d88" stroke-width="2" fill="#f3aca2"/><path d="M540 782.6h220" stroke="#d54d88" stroke-width="2" fill="none"/><use xlink:href="#u" transform="matrix(1,0,0,1,548,753) translate(48.62499999999999 14.6)"/><use xlink:href="#n" transform="matrix(1,0,0,1,548,753) translate(74.57499999999999 14.6)"/><use xlink:href="#c" transform="matrix(1,0,0,1,552,790.6) translate(0 14.500000000000002)"/><use xlink:href="#o" transform="matrix(1,0,0,1,552,790.6) translate(10.95 14.500000000000002)"/><use xlink:href="#v" transform="matrix(1,0,0,1,552,790.6) translate(131.8 14.500000000000002)"/><use xlink:href="#c" transform="matrix(1,0,0,1,552,790.6) translate(0 36.1)"/><use xlink:href="#q" transform="matrix(1,0,0,1,552,790.6) translate(10.95 36.1)"/><use xlink:href="#r" transform="matrix(1,0,0,1,552,790.6) translate(105.75 36.1)"/><use xlink:href="#c" transform="matrix(1,0,0,1,552,790.6) translate(0 57.7)"/><use xlink:href="#s" transform="matrix(1,0,0,1,552,790.6) translate(10.95 57.7)"/><use xlink:href="#w" transform="matrix(1,0,0,1,552,790.6) translate(112.80000000000001 57.7)"/><path d="M1420 751c0-3.3 2.7-6 6-6h188c3.3 0 6 2.7 6 6v108c0 3.3-2.7 6-6 6h-188c-3.3 0-6-2.7-6-6z" stroke="#d54d88" stroke-width="2" fill="#f3aca2"/><path d="M1420 782.6h200" stroke="#d54d88" stroke-width="2" fill="none"/><use xlink:href="#x" transform="matrix(1,0,0,1,1428,753) translate(21.375 14.6)"/><use xlink:href="#y" transform="matrix(1,0,0,1,1428,753) translate(59.275 14.6)"/><use xlink:href="#c" transform="matrix(1,0,0,1,1432,790.6) translate(0 15.500000000000002)"/><use xlink:href="#z" transform="matrix(1,0,0,1,1432,790.6) translate(10.95 15.500000000000002)"/><use xlink:href="#A" transform="matrix(1,0,0,1,1432,790.6) translate(75.55 15.500000000000002)"/><use xlink:href="#c" transform="matrix(1,0,0,1,1432,790.6) translate(0 37.1)"/><use xlink:href="#d" transform="matrix(1,0,0,1,1432,790.6) translate(10.95 37.1)"/><use xlink:href="#B" transform="matrix(1,0,0,1,1432,790.6) translate(54.95 37.1)"/><use xlink:href="#c" transform="matrix(1,0,0,1,1432,790.6) translate(0 58.7)"/><use xlink:href="#C" transform="matrix(1,0,0,1,1432,790.6) translate(10.95 58.7)"/><use xlink:href="#g" transform="matrix(1,0,0,1,1432,790.6) translate(152.75 58.7)"/><path d="M1200 667c0-3.3 2.7-6 6-6h188c3.3 0 6 2.7 6 6v108c0 3.3-2.7 6-6 6h-188c-3.3 0-6-2.7-6-6z" stroke="#d54d88" stroke-width="2" fill="#f3aca2"/><path d="M1200 698.6h200" stroke="#d54d88" stroke-width="2" fill="none"/><use xlink:href="#D" transform="matrix(1,0,0,1,1208,669) translate(21.375 14.6)"/><use xlink:href="#y" transform="matrix(1,0,0,1,1208,669) translate(59.275 14.6)"/><use xlink:href="#c" transform="matrix(1,0,0,1,1212,706.6) translate(0 15.500000000000002)"/><use xlink:href="#z" transform="matrix(1,0,0,1,1212,706.6) translate(10.95 15.500000000000002)"/><use xlink:href="#E" transform="matrix(1,0,0,1,1212,706.6) translate(75.55 15.500000000000002)"/><use xlink:href="#F" transform="matrix(1,0,0,1,1212,706.6) translate(112.55 15.500000000000002)"/><use xlink:href="#c" transform="matrix(1,0,0,1,1212,706.6) translate(0 37.1)"/><use xlink:href="#d" transform="matrix(1,0,0,1,1212,706.6) translate(10.95 37.1)"/><use xlink:href="#G" transform="matrix(1,0,0,1,1212,706.6) translate(54.95 37.1)"/><use xlink:href="#c" transform="matrix(1,0,0,1,1212,706.6) translate(0 58.7)"/><use xlink:href="#C" transform="matrix(1,0,0,1,1212,706.6) translate(10.95 58.7)"/><use xlink:href="#i" transform="matrix(1,0,0,1,1212,706.6) translate(152.75 58.7)"/><path d="M960 667c0-3.3 2.7-6 6-6h188c3.3 0 6 2.7 6 6v108c0 3.3-2.7 6-6 6H966c-3.3 0-6-2.7-6-6z" stroke="#d54d88" stroke-width="2" fill="#f3aca2"/><path d="M960 698.6h200" stroke="#d54d88" stroke-width="2" fill="none"/><use xlink:href="#H" transform="matrix(1,0,0,1,968,669) translate(21.375 14.6)"/><use xlink:href="#y" transform="matrix(1,0,0,1,968,669) translate(59.275 14.6)"/><use xlink:href="#c" transform="matrix(1,0,0,1,972,706.6) translate(0 15.500000000000002)"/><use xlink:href="#z" transform="matrix(1,0,0,1,972,706.6) translate(10.95 15.500000000000002)"/><use xlink:href="#I" transform="matrix(1,0,0,1,972,706.6) translate(75.55 15.500000000000002)"/><use xlink:href="#J" transform="matrix(1,0,0,1,972,706.6) translate(112.55 15.500000000000002)"/><use xlink:href="#c" transform="matrix(1,0,0,1,972,706.6) translate(0 37.1)"/><use xlink:href="#d" transform="matrix(1,0,0,1,972,706.6) translate(10.95 37.1)"/><use xlink:href="#K" transform="matrix(1,0,0,1,972,706.6) translate(54.95 37.1)"/><use xlink:href="#c" transform="matrix(1,0,0,1,972,706.6) translate(0 58.7)"/><use xlink:href="#C" transform="matrix(1,0,0,1,972,706.6) translate(10.95 58.7)"/><use xlink:href="#e" transform="matrix(1,0,0,1,972,706.6) translate(152.75 58.7)"/><path d="M780.5 409c0-3.3 2.7-6 6-6h207c3.3 0 6 2.7 6 6v128c0 3.3-2.7 6-6 6h-207c-3.3 0-6-2.7-6-6z" stroke="#d54d88" stroke-width="2" fill="#f3aca2"/><path d="M780.5 440.6h219" stroke="#d54d88" stroke-width="2" fill="none"/><use xlink:href="#L" transform="matrix(1,0,0,1,788.5019815552625,411) translate(58.14999999999999 14.6)"/><use xlink:href="#M" transform="matrix(1,0,0,1,788.5019815552625,411) translate(92.05 14.6)"/><use xlink:href="#c" transform="matrix(1,0,0,1,792.5019815552625,448.6) translate(0 14.69999999999999)"/><use xlink:href="#N" transform="matrix(1,0,0,1,792.5019815552625,448.6) translate(10.95 14.69999999999999)"/><use xlink:href="#O" transform="matrix(1,0,0,1,792.5019815552625,448.6) translate(101.85000000000001 14.69999999999999)"/><use xlink:href="#c" transform="matrix(1,0,0,1,792.5019815552625,448.6) translate(0 36.29999999999999)"/><use xlink:href="#P" transform="matrix(1,0,0,1,792.5019815552625,448.6) translate(10.95 36.29999999999999)"/><use xlink:href="#G" transform="matrix(1,0,0,1,792.5019815552625,448.6) translate(74.75 36.29999999999999)"/><use xlink:href="#c" transform="matrix(1,0,0,1,792.5019815552625,448.6) translate(0 57.89999999999999)"/><use xlink:href="#Q" transform="matrix(1,0,0,1,792.5019815552625,448.6) translate(10.95 57.89999999999999)"/><use xlink:href="#R" transform="matrix(1,0,0,1,792.5019815552625,448.6) translate(70.95 57.89999999999999)"/><use xlink:href="#S" transform="matrix(1,0,0,1,792.5019815552625,448.6) translate(80.95 57.89999999999999)"/><use xlink:href="#c" transform="matrix(1,0,0,1,792.5019815552625,448.6) translate(0 79.5)"/><use xlink:href="#T" transform="matrix(1,0,0,1,792.5019815552625,448.6) translate(10.95 79.5)"/><use xlink:href="#U" transform="matrix(1,0,0,1,792.5019815552625,448.6) translate(167.64999999999998 79.5)"/><use xlink:href="#e" transform="matrix(1,0,0,1,792.5019815552625,448.6) translate(183.14999999999998 79.5)"/><path d="M1020 409c0-3.3 2.7-6 6-6h207c3.3 0 6 2.7 6 6v128c0 3.3-2.7 6-6 6h-207c-3.3 0-6-2.7-6-6z" stroke="#d54d88" stroke-width="2" fill="#f3aca2"/><path d="M1020 440.6h219" stroke="#d54d88" stroke-width="2" fill="none"/><use xlink:href="#V" transform="matrix(1,0,0,1,1028,411) translate(58.14999999999999 14.6)"/><use xlink:href="#M" transform="matrix(1,0,0,1,1028,411) translate(92.05 14.6)"/><use xlink:href="#c" transform="matrix(1,0,0,1,1032,448.6) translate(0 14.69999999999999)"/><use xlink:href="#N" transform="matrix(1,0,0,1,1032,448.6) translate(10.95 14.69999999999999)"/><use xlink:href="#O" transform="matrix(1,0,0,1,1032,448.6) translate(101.85000000000001 14.69999999999999)"/><use xlink:href="#c" transform="matrix(1,0,0,1,1032,448.6) translate(0 36.29999999999999)"/><use xlink:href="#P" transform="matrix(1,0,0,1,1032,448.6) translate(10.95 36.29999999999999)"/><use xlink:href="#W" transform="matrix(1,0,0,1,1032,448.6) translate(74.75 36.29999999999999)"/><use xlink:href="#c" transform="matrix(1,0,0,1,1032,448.6) translate(0 57.89999999999999)"/><use xlink:href="#Q" transform="matrix(1,0,0,1,1032,448.6) translate(10.95 57.89999999999999)"/><use xlink:href="#R" transform="matrix(1,0,0,1,1032,448.6) translate(70.95 57.89999999999999)"/><use xlink:href="#S" transform="matrix(1,0,0,1,1032,448.6) translate(80.95 57.89999999999999)"/><use xlink:href="#c" transform="matrix(1,0,0,1,1032,448.6) translate(0 79.5)"/><use xlink:href="#T" transform="matrix(1,0,0,1,1032,448.6) translate(10.95 79.5)"/><use xlink:href="#U" transform="matrix(1,0,0,1,1032,448.6) translate(167.64999999999998 79.5)"/><use xlink:href="#e" transform="matrix(1,0,0,1,1032,448.6) translate(183.14999999999998 79.5)"/><path d="M800 886c0-3.3 2.7-6 6-6h207c3.3 0 6 2.7 6 6v128c0 3.3-2.7 6-6 6H806c-3.3 0-6-2.7-6-6z" stroke="#d54d88" stroke-width="2" fill="#f3aca2"/><path d="M800 917.6h219" stroke="#d54d88" stroke-width="2" fill="none"/><use xlink:href="#X" transform="matrix(1,0,0,1,808,888) translate(58.14999999999999 14.6)"/><use xlink:href="#M" transform="matrix(1,0,0,1,808,888) translate(92.05 14.6)"/><use xlink:href="#c" transform="matrix(1,0,0,1,812,925.6) translate(0 14.69999999999999)"/><use xlink:href="#N" transform="matrix(1,0,0,1,812,925.6) translate(10.95 14.69999999999999)"/><use xlink:href="#O" transform="matrix(1,0,0,1,812,925.6) translate(101.85000000000001 14.69999999999999)"/><use xlink:href="#c" transform="matrix(1,0,0,1,812,925.6) translate(0 36.29999999999999)"/><use xlink:href="#P" transform="matrix(1,0,0,1,812,925.6) translate(10.95 36.29999999999999)"/><use xlink:href="#W" transform="matrix(1,0,0,1,812,925.6) translate(74.75 36.29999999999999)"/><use xlink:href="#c" transform="matrix(1,0,0,1,812,925.6) translate(0 57.89999999999999)"/><use xlink:href="#Q" transform="matrix(1,0,0,1,812,925.6) translate(10.95 57.89999999999999)"/><use xlink:href="#R" transform="matrix(1,0,0,1,812,925.6) translate(70.95 57.89999999999999)"/><use xlink:href="#S" transform="matrix(1,0,0,1,812,925.6) translate(80.95 57.89999999999999)"/><use xlink:href="#c" transform="matrix(1,0,0,1,812,925.6) translate(0 79.5)"/><use xlink:href="#T" transform="matrix(1,0,0,1,812,925.6) translate(10.95 79.5)"/><use xlink:href="#U" transform="matrix(1,0,0,1,812,925.6) translate(167.64999999999998 79.5)"/><use xlink:href="#e" transform="matrix(1,0,0,1,812,925.6) translate(183.14999999999998 79.5)"/><path d="M1260 406c0-3.3 2.7-6 6-6h207c3.3 0 6 2.7 6 6v128c0 3.3-2.7 6-6 6h-207c-3.3 0-6-2.7-6-6z" stroke="#d54d88" stroke-width="2" fill="#f3aca2"/><path d="M1260 437.6h219" stroke="#d54d88" stroke-width="2" fill="none"/><g><use xlink:href="#Y" transform="matrix(1,0,0,1,1268,408) translate(58.14999999999999 14.6)"/><use xlink:href="#M" transform="matrix(1,0,0,1,1268,408) translate(92.05 14.6)"/></g><g><use xlink:href="#c" transform="matrix(1,0,0,1,1272,445.6) translate(0 14.69999999999999)"/><use xlink:href="#N" transform="matrix(1,0,0,1,1272,445.6) translate(10.95 14.69999999999999)"/><use xlink:href="#O" transform="matrix(1,0,0,1,1272,445.6) translate(101.85000000000001 14.69999999999999)"/><use xlink:href="#c" transform="matrix(1,0,0,1,1272,445.6) translate(0 36.29999999999999)"/><use xlink:href="#P" transform="matrix(1,0,0,1,1272,445.6) translate(10.95 36.29999999999999)"/><use xlink:href="#Z" transform="matrix(1,0,0,1,1272,445.6) translate(74.75 36.29999999999999)"/><use xlink:href="#c" transform="matrix(1,0,0,1,1272,445.6) translate(0 57.89999999999999)"/><use xlink:href="#Q" transform="matrix(1,0,0,1,1272,445.6) translate(10.95 57.89999999999999)"/><use xlink:href="#R" transform="matrix(1,0,0,1,1272,445.6) translate(70.95 57.89999999999999)"/><use xlink:href="#S" transform="matrix(1,0,0,1,1272,445.6) translate(80.95 57.89999999999999)"/><use xlink:href="#c" transform="matrix(1,0,0,1,1272,445.6) translate(0 79.5)"/><use xlink:href="#T" transform="matrix(1,0,0,1,1272,445.6) translate(10.95 79.5)"/><use xlink:href="#U" transform="matrix(1,0,0,1,1272,445.6) translate(167.64999999999998 79.5)"/><use xlink:href="#e" transform="matrix(1,0,0,1,1272,445.6) translate(183.14999999999998 79.5)"/></g><path d="M1060 886c0-3.3 2.7-6 6-6h207c3.3 0 6 2.7 6 6v128c0 3.3-2.7 6-6 6h-207c-3.3 0-6-2.7-6-6z" stroke="#d54d88" stroke-width="2" fill="#f3aca2"/><path d="M1060 917.6h219" stroke="#d54d88" stroke-width="2" fill="none"/><g><use xlink:href="#aa" transform="matrix(1,0,0,1,1068,888) translate(58.14999999999999 14.6)"/><use xlink:href="#M" transform="matrix(1,0,0,1,1068,888) translate(92.05 14.6)"/></g><g><use xlink:href="#c" transform="matrix(1,0,0,1,1072,925.6) translate(0 14.69999999999999)"/><use xlink:href="#N" transform="matrix(1,0,0,1,1072,925.6) translate(10.95 14.69999999999999)"/><use xlink:href="#O" transform="matrix(1,0,0,1,1072,925.6) translate(101.85000000000001 14.69999999999999)"/><use xlink:href="#c" transform="matrix(1,0,0,1,1072,925.6) translate(0 36.29999999999999)"/><use xlink:href="#P" transform="matrix(1,0,0,1,1072,925.6) translate(10.95 36.29999999999999)"/><use xlink:href="#Z" transform="matrix(1,0,0,1,1072,925.6) translate(74.75 36.29999999999999)"/><use xlink:href="#c" transform="matrix(1,0,0,1,1072,925.6) translate(0 57.89999999999999)"/><use xlink:href="#Q" transform="matrix(1,0,0,1,1072,925.6) translate(10.95 57.89999999999999)"/><use xlink:href="#R" transform="matrix(1,0,0,1,1072,925.6) translate(70.95 57.89999999999999)"/><use xlink:href="#S" transform="matrix(1,0,0,1,1072,925.6) translate(80.95 57.89999999999999)"/><use xlink:href="#c" transform="matrix(1,0,0,1,1072,925.6) translate(0 79.5)"/><use xlink:href="#T" transform="matrix(1,0,0,1,1072,925.6) translate(10.95 79.5)"/><use xlink:href="#U" transform="matrix(1,0,0,1,1072,925.6) translate(167.64999999999998 79.5)"/><use xlink:href="#e" transform="matrix(1,0,0,1,1072,925.6) translate(183.14999999999998 79.5)"/></g><path d="M1309.5 951c0-3.3 2.68-6 6-6h108c3.3 0 6 2.7 6 6v63c0 3.3-2.7 6-6 6h-108c-3.32 0-6-2.7-6-6z" stroke="#d54d88" stroke-width="2" fill="#f3aca2"/><path d="M1309.5 982.6h120" stroke="#d54d88" stroke-width="2" fill="none"/><g><use xlink:href="#ab" transform="matrix(1,0,0,1,1317.4980184447375,953) translate(1.624999999999993 14.6)"/><use xlink:href="#k" transform="matrix(1,0,0,1,1317.4980184447375,953) translate(34.574999999999996 14.6)"/></g><g><use xlink:href="#c" transform="matrix(1,0,0,1,1321.4980184447375,990.6) translate(0 14.6)"/><use xlink:href="#d" transform="matrix(1,0,0,1,1321.4980184447375,990.6) translate(10.95 14.6)"/><use xlink:href="#i" transform="matrix(1,0,0,1,1321.4980184447375,990.6) translate(54.95 14.6)"/></g><path d="M240 421c0-3.3 2.7-6 6-6h288c3.3 0 6 2.7 6 6v133c0 3.3-2.7 6-6 6H246c-3.3 0-6-2.7-6-6z" stroke="#d54d88" stroke-width="2" fill="#f3aca2"/><path d="M240 452.6h300" stroke="#d54d88" stroke-width="2" fill="none"/><g><use xlink:href="#ac" transform="matrix(1,0,0,1,248.00000000000003,423) translate(54.67499999999998 14.6)"/><use xlink:href="#ad" transform="matrix(1,0,0,1,248.00000000000003,423) translate(146.475 14.6)"/></g><g><use xlink:href="#c" transform="matrix(1,0,0,1,252.00000000000003,460.6) translate(0 17.19999999999999)"/><use xlink:href="#ae" transform="matrix(1,0,0,1,252.00000000000003,460.6) translate(10.95 17.19999999999999)"/><use xlink:href="#af" transform="matrix(1,0,0,1,252.00000000000003,460.6) translate(98.45 17.19999999999999)"/><use xlink:href="#ag" transform="matrix(1,0,0,1,252.00000000000003,460.6) translate(135.45 17.19999999999999)"/><use xlink:href="#ah" transform="matrix(1,0,0,1,252.00000000000003,460.6) translate(167.45 17.19999999999999)"/><use xlink:href="#ai" transform="matrix(1,0,0,1,252.00000000000003,460.6) translate(199.45 17.19999999999999)"/><use xlink:href="#F" transform="matrix(1,0,0,1,252.00000000000003,460.6) translate(231.45 17.19999999999999)"/><use xlink:href="#c" transform="matrix(1,0,0,1,252.00000000000003,460.6) translate(0 38.79999999999999)"/><use xlink:href="#aj" transform="matrix(1,0,0,1,252.00000000000003,460.6) translate(10.95 38.79999999999999)"/><use xlink:href="#ak" transform="matrix(1,0,0,1,252.00000000000003,460.6) translate(143.7 38.79999999999999)"/><use xlink:href="#al" transform="matrix(1,0,0,1,252.00000000000003,460.6) translate(185.64999999999998 38.79999999999999)"/><use xlink:href="#am" transform="matrix(1,0,0,1,252.00000000000003,460.6) translate(222.59999999999997 38.79999999999999)"/><use xlink:href="#c" transform="matrix(1,0,0,1,252.00000000000003,460.6) translate(0 60.39999999999999)"/><use xlink:href="#an" transform="matrix(1,0,0,1,252.00000000000003,460.6) translate(10.95 60.39999999999999)"/><use xlink:href="#ao" transform="matrix(1,0,0,1,252.00000000000003,460.6) translate(125.75000000000001 60.39999999999999)"/><use xlink:href="#ap" transform="matrix(1,0,0,1,252.00000000000003,460.6) translate(155.75 60.39999999999999)"/><use xlink:href="#aq" transform="matrix(1,0,0,1,252.00000000000003,460.6) translate(0 82)"/><use xlink:href="#ar" transform="matrix(1,0,0,1,252.00000000000003,460.6) translate(15.5 82)"/><use xlink:href="#as" transform="matrix(1,0,0,1,252.00000000000003,460.6) translate(103.45 82)"/></g><path d="M762 602h10.04m10.04 0h20.1m10.03 0h20.1m10.03 0h20.1m10.03 0h20.08m10.04 0h20.1m10.03 0h20.1m10.03 0h20.1m10.03 0h20.08m10.04 0h20.1m10.03 0h20.1m10.03 0h20.08m10.06 0h10.04l3.03-.82 2.15-2.15.82-3.03v-8.5m0-8.5v-17m0-8.5V545" stroke="#7b2a95" stroke-width="2" fill="none"/><path d="M762.03 603H761v-2h1.03M1130.5 545.03h-2V544h2" fill="#7b2a95"/><path d="M762 633.64h10.02m10.03 0h20.05m10.02 0h20.05m10.03 0h20.05m10.02 0h20.05m10.03 0h20.05m10.02 0h20.05m10.03 0h20.05m10.02 0h20.05m10.03 0h20.05m10.02 0h20.05m10.03 0h20.05m10.02 0h20.05m10.03 0H1163m10.02 0h20.05m10.03 0h20.05m10.02 0h20.05m10.03 0h20.05m10.02 0h20.05m10.03 0h20.05m10.02 0h10.03l3.03-.82 2.15-2.15.82-3.03v-9.52m0-9.5v-19.04m0-9.52v-19.03m0-9.5V542" stroke="#7b2a95" stroke-width="2" fill="none"/><path d="M762.03 634.64H761v-2h1.03M1370.5 542.03h-2V541h2" fill="#7b2a95"/><path d="M762 825.3h10.3m10.3 0h20.58m10.3 0h20.58m10.3 0h20.6m10.28 0h20.6m10.3 0h20.58m10.3 0h20.58m10.3 0h20.6m10.28 0h20.6m10.3 0h20.57m10.3 0h20.6m10.28 0h20.6m10.3 0h20.58m10.3 0h10.3l3.03.83 2.15 2.15.82 3.03v7.8m0 7.77v15.57m0 7.78V878" stroke="#7b2a95" stroke-width="2" fill="none"/><path d="M762.03 826.3H761v-2h1.03M1170.5 879h-2v-1.03h2" fill="#7b2a95"/><path d="M762 849.06h9.43m9.44 0h18.86m9.44 0h18.86m9.44 0h18.86m9.44 0h18.86m9.43 0h9.44l3.03.82 2.15 2.15.82 3.03v7.64m0 7.65V878" stroke="#7b2a95" stroke-width="2" fill="none"/><path d="M762.03 850.06H761v-2h1.03M910.5 879h-2v-1.03h2" fill="#7b2a95"/><path d="M890 401v-15c0-3.3 2.7-6 6-6h588c3.3 0 6 2.7 6 6v328c0 3.3 2.7 6 6 6h18.5c3.04 0 5.5 2.46 5.5 5.5" stroke="#7b2a95" stroke-width="2" fill="none"/><path d="M891 402h-2v-1.03h2" fill="#7b2a95"/><path d="M1520 740.76l-4.64-14.26h9.28z" stroke="#7b2a95" stroke-width="2" fill="#7b2a95"/><path d="M1539 867v53.5" stroke="#7b2a95" stroke-width="2" fill="none"/><path d="M1540 867.03h-2V866h2" fill="#7b2a95"/><path d="M1539 935.76l-4.64-14.26h9.27z" stroke="#7b2a95" stroke-width="2" fill="#7b2a95"/><path d="M1096 545v29c0 3.3-2.7 6-6 6h-24c-3.3 0-6 2.7-6 6v55.5" stroke="#7b2a95" stroke-width="2" fill="none"/><path d="M1097 545.03h-2V544h2" fill="#7b2a95"/><path d="M1060 656.76l-4.64-14.26h9.28z" stroke="#7b2a95" stroke-width="2" fill="#7b2a95"/><path d="M962.74 878v-22c0-3.3 2.7-6 6-6H1054c3.3 0 6-2.7 6-6v-43.5" stroke="#7b2a95" stroke-width="2" fill="none"/><path d="M963.74 879h-2v-1.03h2" fill="#7b2a95"/><path d="M1060 785.24l4.64 14.26h-9.28z" stroke="#7b2a95" stroke-width="2" fill="#7b2a95"/><path d="M958 720h-36.5" stroke="#7b2a95" stroke-width="2" fill="none"/><path d="M959 721h-1.03v-2H959" fill="#7b2a95"/><path d="M906.24 720l14.27-4.64v9.28z" stroke="#7b2a95" stroke-width="2" fill="#7b2a95"/><path d="M1353.64 783v142.5" stroke="#7b2a95" stroke-width="2" fill="none"/><path d="M1354.64 783.03h-2V782h2" fill="#7b2a95"/><path d="M1353.64 940.76L1349 926.5h9.28z" stroke="#7b2a95" stroke-width="2" fill="#7b2a95"/><path d="M1444.66 542v173c0 3.3-2.7 6-6 6h-19.16" stroke="#7b2a95" stroke-width="2" fill="none"/><path d="M1445.66 542.03h-2V541h2" fill="#7b2a95"/><path d="M1404.24 721l14.26-4.64v9.28z" stroke="#7b2a95" stroke-width="2" fill="#7b2a95"/><path d="M1281 950h13c3.3 0 6-2.7 6-6V800.5" stroke="#7b2a95" stroke-width="2" fill="none"/><path d="M1281.02 951H1280v-2h1.02" fill="#7b2a95"/><path d="M1300 785.24l4.64 14.26h-9.28z" stroke="#7b2a95" stroke-width="2" fill="#7b2a95"/><path d="M473 804h47.5" stroke="#7b2a95" stroke-width="2" fill="none"/><path d="M473.03 805H472v-2h1.03" fill="#7b2a95"/><path d="M535.76 804l-14.26 4.64v-9.28z" stroke="#7b2a95" stroke-width="2" fill="#7b2a95"/><path d="M473 940h189c3.32 0 6-2.7 6-6v-51.5" stroke="#7b2a95" stroke-width="2" fill="none"/><path d="M473.03 941H472v-2h1.03" fill="#7b2a95"/><path d="M668 867.24l4.64 14.26h-9.27z" stroke="#7b2a95" stroke-width="2" fill="#7b2a95"/><path d="M660 497v26.5" stroke="#7b2a95" stroke-width="2" fill="none"/><path d="M661 497.03h-2V496h2" fill="#7b2a95"/><path d="M660 538.76l-4.64-14.26h9.28z" stroke="#7b2a95" stroke-width="2" fill="#7b2a95"/><path d="M549.92 246c0-3.3 2.7-6 6-6h840.75c3.32 0 6 2.7 6 6v29.16c0 3.3-2.68 6-6 6H555.92c-3.3 0-6-2.7-6-6z" stroke="#000" stroke-opacity="0" stroke-width="2" fill="#fff" fill-opacity="0"/><g><use xlink:href="#at" transform="matrix(1,0,0,1,553.9246781962447,244) translate(329.0791358024691 25.782777777777778)"/><use xlink:href="#au" transform="matrix(1,0,0,1,553.9246781962447,244) translate(417.79765432098765 25.782777777777778)"/></g><path d="M826.4 279.8h309.37M826.43 279.8h-1.03M1135.74 279.8h1.03" stroke="#7b2a95" stroke-width="2" fill="none"/><path d="M549.92 287.16c0-3.32 2.7-6 6-6h841.7c3.33 0 6 2.68 6 6V294c0 3.3-2.67 6-6 6h-841.7c-3.3 0-6-2.7-6-6z" stroke="#000" stroke-opacity="0" stroke-width="2" fill="#fff" fill-opacity="0"/><g><use xlink:href="#av" transform="matrix(1,0,0,1,553.9246781962449,285.1552239568988) translate(294.0395267489712 14.917037037037037)"/><use xlink:href="#aw" transform="matrix(1,0,0,1,553.9246781962449,285.1552239568988) translate(337.33654320987654 14.917037037037037)"/><use xlink:href="#ax" transform="matrix(1,0,0,1,553.9246781962449,285.1552239568988) translate(421.3387037037037 14.917037037037037)"/><use xlink:href="#ay" transform="matrix(1,0,0,1,553.9246781962449,285.1552239568988) translate(433.7881893004115 14.917037037037037)"/><use xlink:href="#az" transform="matrix(1,0,0,1,553.9246781962449,285.1552239568988) translate(499.0948765432098 14.917037037037037)"/><use xlink:href="#aA" transform="matrix(1,0,0,1,553.9246781962449,285.1552239568988) translate(524.5887037037037 14.917037037037037)"/></g><path d="M320 606c0-3.3 2.7-6 6-6h128c3.3 0 6 2.7 6 6v68c0 3.3-2.7 6-6 6H326c-3.3 0-6-2.7-6-6z" stroke="#d54d88" stroke-width="2" fill="#f3aca2"/><path d="M320 637.6h140" stroke="#d54d88" stroke-width="2" fill="none"/><g><use xlink:href="#aB" transform="matrix(1,0,0,1,328,608) translate(29.099999999999994 14.6)"/><use xlink:href="#aC" transform="matrix(1,0,0,1,328,608) translate(60.99999999999999 14.6)"/></g><g><use xlink:href="#aD" transform="matrix(1,0,0,1,332,645.6) translate(5.85 17.1)"/><use xlink:href="#aE" transform="matrix(1,0,0,1,332,645.6) translate(18 17.1)"/><use xlink:href="#aF" transform="matrix(1,0,0,1,332,645.6) translate(78 17.1)"/></g><path d="M390 562v18.5" stroke="#7b2a95" stroke-width="2" fill="none"/><path d="M391 562.03h-2V561h2" fill="#7b2a95"/><path d="M390 595.76l-4.64-14.26h9.28z" stroke="#7b2a95" stroke-width="2" fill="#7b2a95"/><path d="M318 612.5h-9.1m-9.12 0h-18.22m-9.12 0h-18.22m-9.1 0H236l-3.03-.83-2.15-2.15-.82-3.03v-9.56m0-9.55v-19.1m0-9.55v-19.1m0-9.54v-19.08m0-9.55v-19.1m0-9.54v-19.1m0-9.54v-19.1m0-9.55V406l.82-3.03 2.15-2.15L236 400h9.64m9.63 0h19.28m9.63 0h19.27m9.64 0h19.26m9.64 0h19.27m9.64 0h19.28m9.64 0h19.27m9.63 0H448m9.64 0h19.27m9.65 0h19.27m9.63 0h19.28m9.63 0H554l3.03.82 2.15 2.15.82 3.03v14.33m0 14.34V449l.82 3.03 2.15 2.15 3.03.82h12" stroke="#7b2a95" stroke-width="2" fill="none"/><path d="M319 613.5h-1.03v-2H319M579 456h-1.03v-2H579" fill="#7b2a95"/><path d="M390 682v9.17m0 9.16v18.34m0 9.16v18.34m0 9.16v9.17" stroke="#7b2a95" stroke-width="2" fill="none"/><path d="M391 682.03h-2V681h2M391 765.5h-2v-1.03h2" fill="#7b2a95"/><path d="M334.14 682v11m0 11v11l-.82 3.03-2.15 2.15-3.03.82h-8.86m-8.85 0H292.7m-8.85 0H275l-3.03.82-2.15 2.15L269 727v9.6m0 9.6v19.2m0 9.6v19.2m0 9.6V823m0 9.6v19.2m0 9.6v19.2m0 9.6v19.2m0 9.6v19.2m0 9.6V967m0 9.6v19.2m0 9.6v9.6l.82 3.03 2.15 2.15 3.03.82h9.08m9.08 0h18.17m9.08 0h18.18m9.1 0h18.15m9.1 0H384l3.03-.82 2.15-2.15.82-3.03v-11m0-11v-11" stroke="#7b2a95" stroke-width="2" fill="none"/><path d="M335.14 682.03h-2V681h2M391 982.03h-2V981h2" fill="#7b2a95"/><path d="M512.46 562v13.18m0 13.18v13.18l.82 3.03 2.15 2.15 3.03.82h13.18m13.18 0H558" stroke="#7b2a95" stroke-width="2" fill="none"/><path d="M513.46 562.03h-2V561h2M559 608.54h-1.03v-2H559" fill="#7b2a95"/><path d="M477.16 562v9.36m0 9.35v18.72m0 9.36v18.7m0 9.36v18.72m0 9.35v18.72m0 9.36v18.7m0 9.36v18.72m0 9.35v9.37l.82 3.02 2.15 2.15 3.03.82h9.14m9.14 0h18.28m9.14 0H538" stroke="#7b2a95" stroke-width="2" fill="none"/><path d="M478.16 562.03h-2V561h2M539 765.47h-1.03v-2H539" fill="#7b2a95"/><path d="M890 545v14.42l-.82 3.03-2.15 2.15-3.03.82h-10.17m-10.16 0h-20.34m-10.16 0h-20.34m-10.16 0h-20.34m-10.16 0H762" stroke="#7b2a95" stroke-width="2" fill="none"/><path d="M891 545.03h-2V544h2M762.03 566.42H761v-2h1.03" fill="#7b2a95"/><path d="M462 640h12m12 0h24m12 0h12l3.03.82 2.15 2.15.82 3.03v11.33m0 11.34v22.66m0 11.34V714l.82 3.03 2.15 2.15 3.03.82h9.58m9.6 0h19.15m9.6 0h19.15m9.58 0h19.17m9.58 0h19.18m9.58 0h19.17m9.58 0h19.18m9.58 0h19.17m9.58 0h9.6" stroke="#7b2a95" stroke-width="2" fill="none"/><path d="M462.03 641H461v-2h1.03M777 721h-1.03v-2H777" fill="#7b2a95"/><path d="M1369.5 1022v11m0 11v11l-.82 3.03-2.15 2.15-3.03.82h-9.98m-9.98 0h-19.95m-10 0h-19.94m-9.98 0h-19.96m-9.97 0h-19.96m-10 0h-19.94m-9.98 0h-19.95m-9.98 0H1144m-9.98 0h-19.96m-9.98 0h-19.95m-9.98 0h-19.95m-9.98 0h-19.96m-9.97 0h-19.97m-9.98 0H964.4m-9.98 0h-19.95m-9.98 0h-19.97m-9.97 0H874.6m-9.97 0h-19.96m-9.98 0h-19.96m-9.98 0H784.8m-9.97 0h-19.96m-9.97 0h-19.96m-9.98 0H695m-9.97 0h-19.95m-9.98 0h-19.96m-9.97 0H605.2m-9.97 0h-19.95m-9.98 0h-19.95m-9.98 0H515.4m-9.96 0h-19.96m-9.98 0h-19.95m-9.98 0h-19.95m-9.98 0h-19.96m-9.97 0h-19.95m-9.98 0h-19.95m-9.98 0H305.9m-10 0h-19.95m-9.97 0H256l-3.03-.82-2.15-2.15-.82-3.03v-10.4m0-10.43v-20.82m0-10.4V982.1m0-10.4v-20.83m0-10.4v-20.84m0-10.4v-20.84m0-10.42v-20.83m0-10.4V825.9m0-10.4v-20.82m0-10.42v-20.82m0-10.42V732.2m0-10.42v-20.82m0-10.4v-10.43l.82-3.03 2.15-2.15 3.03-.82h10.33m10.34 0h20.66m10.34 0H318" stroke="#7b2a95" stroke-width="2" fill="none"/><path d="M1370.5 1022.03h-2V1021h2M319 674.13l.27 1h-1.3v-2H319" fill="#7b2a95"/><path d="M1539 1017v9.5m0 9.5v19m0 9.5v9.5l-.82 3.03-2.16 2.15-3.02.82h-9.9m-9.9 0h-19.8m-9.9 0h-19.8m-9.92 0h-19.8m-9.9 0h-19.8m-9.9 0h-19.8m-9.9 0h-19.8m-9.9 0h-19.82m-9.9 0h-19.8m-9.9 0h-19.8m-9.9 0h-19.8m-9.9 0h-19.8m-9.92 0h-19.8m-9.9 0h-19.8m-9.9 0h-19.8m-9.9 0h-19.8m-9.9 0h-19.82m-9.9 0h-19.8m-9.9 0h-19.8m-9.9 0h-19.8m-9.9 0H929m-9.92 0h-19.8m-9.9 0h-19.8m-9.9 0h-19.8m-9.9 0h-19.8m-9.9 0h-19.82m-9.9 0h-19.8m-9.9 0h-19.8m-9.9 0h-19.8m-9.9 0h-19.8m-9.92 0h-19.8m-9.9 0h-19.8m-9.9 0h-19.8m-9.9 0h-19.8m-9.9 0h-19.82m-9.9 0h-19.8m-9.9 0h-19.8m-9.9 0h-19.8m-9.9 0h-19.8m-9.92 0h-19.8m-9.9 0h-19.8m-9.9 0h-19.8m-9.9 0h-19.8m-9.9 0H245.8m-9.9 0H226l-3.03-.82-2.15-2.15-.82-3.03v-10.2m0-10.18v-20.38m0-10.2v-20.37m0-10.2V972.1m0-10.2v-20.38m0-10.2v-20.37m0-10.2V880.4m0-10.2v-20.37m0-10.18v-20.38m0-10.2v-20.37m0-10.2V758.1m0-10.2v-20.38m0-10.2v-20.37m0-10.2V666.4m0-10.2V646l.82-3.03 2.15-2.15L226 640h10.22m10.22 0h20.45m10.2 0h20.46m10.22 0H318" stroke="#7b2a95" stroke-width="2" fill="none"/><path d="M1540 1017.03h-2V1016h2M319 641h-1.03v-2H319" fill="#7b2a95"/><defs><path fill="#461765" d="M67-125c0 53 21 87 73 88 37 1 54-22 65-47l45 17C233-25 199 4 140 4 58 4 20-42 15-125 8-235 124-281 211-232c18 10 29 29 36 50l-46 12c-8-25-30-41-62-41-52 0-71 34-72 86" id="aG"/><path fill="#461765" d="M182-182c0 78-84 86-111 141h115V0H12c-6-101 99-100 120-180 1-22-12-31-33-32-23 0-32 14-35 34l-49-3c5-45 32-70 84-70 51 0 83 22 83 69" id="aH"/><path fill="#461765" d="M35-132v-50h50v50H35zM35 0v-49h50V0H35" id="aI"/><g id="a"><use transform="matrix(0.05,0,0,0.05,0,0)" xlink:href="#aG"/><use transform="matrix(0.05,0,0,0.05,12.950000000000001,0)" xlink:href="#aH"/><use transform="matrix(0.05,0,0,0.05,22.950000000000003,0)" xlink:href="#aI"/></g><path fill="#461765" d="M110-194c64 0 96 36 96 99 0 64-35 99-97 99-61 0-95-36-95-99 0-62 34-99 96-99zm-1 164c35 0 45-28 45-65 0-40-10-65-43-65-34 0-45 26-45 65 0 36 10 65 43 65" id="aJ"/><path fill="#461765" d="M220-157c-53 9-28 100-34 157h-49v-107c1-27-5-49-29-50C55-147 81-57 75 0H25l-1-190h47c2 12-1 28 3 38 10-53 101-56 108 0 13-22 24-43 59-42 82 1 51 116 57 194h-49v-107c-1-25-5-48-29-50" id="aK"/><path fill="#461765" d="M135-194c53 0 70 44 70 98 0 56-19 98-73 100-31 1-45-17-59-34 3 33 2 69 2 105H25l-1-265h48c2 10 0 23 3 31 11-24 29-35 60-35zM114-30c33 0 39-31 40-66 0-38-9-64-40-64-56 0-55 130 0 130" id="aL"/><path fill="#461765" d="M135-194c87-1 58 113 63 194h-50c-7-57 23-157-34-157-59 0-34 97-39 157H25l-1-190h47c2 12-1 28 3 38 12-26 28-41 61-42" id="aM"/><path fill="#461765" d="M185-48c-13 30-37 53-82 52C43 2 14-33 14-96s30-98 90-98c62 0 83 45 84 108H66c0 31 8 55 39 56 18 0 30-7 34-22zm-45-69c5-46-57-63-70-21-2 6-4 13-4 21h74" id="aN"/><path fill="#461765" d="M115-3C79 11 28 4 28-45v-112H4v-33h27l15-45h31v45h36v33H77v99c-1 23 16 31 38 25v30" id="aO"/><g id="b"><use transform="matrix(0.05,0,0,0.05,0,0)" xlink:href="#aG"/><use transform="matrix(0.05,0,0,0.05,12.950000000000001,0)" xlink:href="#aJ"/><use transform="matrix(0.05,0,0,0.05,23.900000000000002,0)" xlink:href="#aK"/><use transform="matrix(0.05,0,0,0.05,39.900000000000006,0)" xlink:href="#aL"/><use transform="matrix(0.05,0,0,0.05,50.85000000000001,0)" xlink:href="#aJ"/><use transform="matrix(0.05,0,0,0.05,61.80000000000001,0)" xlink:href="#aM"/><use transform="matrix(0.05,0,0,0.05,72.75000000000001,0)" xlink:href="#aN"/><use transform="matrix(0.05,0,0,0.05,82.75000000000001,0)" xlink:href="#aM"/><use transform="matrix(0.05,0,0,0.05,93.70000000000002,0)" xlink:href="#aO"/></g><path fill="#461765" d="M16-82v-28h88v28H16" id="aP"/><use transform="matrix(0.05,0,0,0.05,0,0)" xlink:href="#aP" id="c"/><path fill="#461765" d="M59-47c-2 24 18 29 38 22v24C64 9 27 4 27-40v-127H5v-23h24l9-43h21v43h35v23H59v120" id="aQ"/><path fill="#461765" d="M179-190L93 31C79 59 56 82 12 73V49c39 6 53-20 64-50L1-190h34L92-34l54-156h33" id="aR"/><path fill="#461765" d="M115-194c55 1 70 41 70 98S169 2 115 4C84 4 66-9 55-30l1 105H24l-1-265h31l2 30c10-21 28-34 59-34zm-8 174c40 0 45-34 45-75s-6-73-45-74c-42 0-51 32-51 76 0 43 10 73 51 73" id="aS"/><path fill="#461765" d="M100-194c63 0 86 42 84 106H49c0 40 14 67 53 68 26 1 43-12 49-29l28 8c-11 28-37 45-77 45C44 4 14-33 15-96c1-61 26-98 85-98zm52 81c6-60-76-77-97-28-3 7-6 17-6 28h103" id="aT"/><path fill="#461765" d="M33-154v-36h34v36H33zM33 0v-36h34V0H33" id="aU"/><g id="d"><use transform="matrix(0.05,0,0,0.05,0,0)" xlink:href="#aQ"/><use transform="matrix(0.05,0,0,0.05,5,0)" xlink:href="#aR"/><use transform="matrix(0.05,0,0,0.05,14,0)" xlink:href="#aS"/><use transform="matrix(0.05,0,0,0.05,24,0)" xlink:href="#aT"/><use transform="matrix(0.05,0,0,0.05,34,0)" xlink:href="#aU"/></g><path fill="#461765" d="M101-251c82-7 93 87 43 132L82-64C71-53 59-42 53-27h129V0H18c2-99 128-94 128-182 0-28-16-43-45-43s-46 15-49 41l-32-3c6-41 34-60 81-64" id="aV"/><use transform="matrix(0.05,0,0,0.05,0,0)" xlink:href="#aV" id="e"/><path fill="#461765" d="M23 0v-37h61v-169l-59 37v-38l62-41h46v211h57V0H23" id="aW"/><g id="f"><use transform="matrix(0.05,0,0,0.05,0,0)" xlink:href="#aG"/><use transform="matrix(0.05,0,0,0.05,12.950000000000001,0)" xlink:href="#aW"/><use transform="matrix(0.05,0,0,0.05,22.950000000000003,0)" xlink:href="#aI"/></g><path fill="#461765" d="M27 0v-27h64v-190l-56 39v-29l58-41h29v221h61V0H27" id="aX"/><use transform="matrix(0.05,0,0,0.05,0,0)" xlink:href="#aX" id="g"/><path fill="#461765" d="M128-127c34 4 56 21 59 58 7 91-148 94-172 28-4-9-6-17-7-26l51-5c1 24 16 35 40 36 23 0 39-12 38-36-1-31-31-36-65-34v-40c32 2 59-3 59-33 0-20-13-33-34-33s-33 13-35 32l-50-3c6-44 37-68 86-68 50 0 83 20 83 66 0 35-22 52-53 58" id="aY"/><g id="h"><use transform="matrix(0.05,0,0,0.05,0,0)" xlink:href="#aG"/><use transform="matrix(0.05,0,0,0.05,12.950000000000001,0)" xlink:href="#aY"/><use transform="matrix(0.05,0,0,0.05,22.950000000000003,0)" xlink:href="#aI"/></g><path fill="#461765" d="M126-127c33 6 58 20 58 59 0 88-139 92-164 29-3-8-5-16-6-25l32-3c6 27 21 44 54 44 32 0 52-15 52-46 0-38-36-46-79-43v-28c39 1 72-4 72-42 0-27-17-43-46-43-28 0-47 15-49 41l-32-3c6-42 35-63 81-64 48-1 79 21 79 65 0 36-21 52-52 59" id="aZ"/><use transform="matrix(0.05,0,0,0.05,0,0)" xlink:href="#aZ" id="i"/><path fill="#461765" d="M24-248c93 1 206-16 204 79-1 75-69 88-152 82V0H24v-248zm52 121c47 0 100 7 100-41 0-47-54-39-100-39v80" id="ba"/><g id="j"><use transform="matrix(0.05,0,0,0.05,0,0)" xlink:href="#ba"/><use transform="matrix(0.05,0,0,0.05,12,0)" xlink:href="#aW"/><use transform="matrix(0.05,0,0,0.05,22,0)" xlink:href="#aI"/></g><path fill="#461765" d="M135-150c-39-12-60 13-60 57V0H25l-1-190h47c2 13-1 29 3 40 6-28 27-53 61-41v41" id="bb"/><path fill="#461765" d="M88-194c31-1 46 15 58 34l-1-101h50l1 261h-48c-2-10 0-23-3-31C134-8 116 4 84 4 32 4 16-41 15-95c0-56 19-97 73-99zm17 164c33 0 40-30 41-66 1-37-9-64-41-64s-38 30-39 65c0 43 13 65 39 65" id="bc"/><path fill="#461765" d="M85 4C-2 5 27-109 22-190h50c7 57-23 150 33 157 60-5 35-97 40-157h50l1 190h-47c-2-12 1-28-3-38-12 25-28 42-61 42" id="bd"/><path fill="#461765" d="M190-63c-7 42-38 67-86 67-59 0-84-38-90-98-12-110 154-137 174-36l-49 2c-2-19-15-32-35-32-30 0-35 28-38 64-6 74 65 87 74 30" id="be"/><g id="k"><use transform="matrix(0.05,0,0,0.05,0,0)" xlink:href="#ba"/><use transform="matrix(0.05,0,0,0.05,12,0)" xlink:href="#bb"/><use transform="matrix(0.05,0,0,0.05,19,0)" xlink:href="#aJ"/><use transform="matrix(0.05,0,0,0.05,29.950000000000003,0)" xlink:href="#bc"/><use transform="matrix(0.05,0,0,0.05,40.900000000000006,0)" xlink:href="#bd"/><use transform="matrix(0.05,0,0,0.05,51.85,0)" xlink:href="#be"/><use transform="matrix(0.05,0,0,0.05,61.85,0)" xlink:href="#aO"/></g><g id="l"><use transform="matrix(0.05,0,0,0.05,0,0)" xlink:href="#ba"/><use transform="matrix(0.05,0,0,0.05,12,0)" xlink:href="#aH"/><use transform="matrix(0.05,0,0,0.05,22,0)" xlink:href="#aI"/></g><path fill="#461765" d="M24 0v-248h52V0H24" id="bf"/><g id="m"><use transform="matrix(0.05,0,0,0.05,0,0)" xlink:href="#bf"/><use transform="matrix(0.05,0,0,0.05,5,0)" xlink:href="#aW"/><use transform="matrix(0.05,0,0,0.05,15,0)" xlink:href="#aI"/></g><path fill="#461765" d="M137-138c1-29-70-34-71-4 15 46 118 7 119 86 1 83-164 76-172 9l43-7c4 19 20 25 44 25 33 8 57-30 24-41C81-84 22-81 20-136c-2-80 154-74 161-7" id="bg"/><g id="n"><use transform="matrix(0.05,0,0,0.05,0,0)" xlink:href="#bf"/><use transform="matrix(0.05,0,0,0.05,5,0)" xlink:href="#aM"/><use transform="matrix(0.05,0,0,0.05,15.950000000000001,0)" xlink:href="#bg"/><use transform="matrix(0.05,0,0,0.05,25.950000000000003,0)" xlink:href="#aL"/><use transform="matrix(0.05,0,0,0.05,36.900000000000006,0)" xlink:href="#aN"/><use transform="matrix(0.05,0,0,0.05,46.900000000000006,0)" xlink:href="#be"/><use transform="matrix(0.05,0,0,0.05,56.900000000000006,0)" xlink:href="#aO"/><use transform="matrix(0.05,0,0,0.05,62.85,0)" xlink:href="#aJ"/><use transform="matrix(0.05,0,0,0.05,73.80000000000001,0)" xlink:href="#bb"/></g><path fill="#461765" d="M96-169c-40 0-48 33-48 73s9 75 48 75c24 0 41-14 43-38l32 2c-6 37-31 61-74 61-59 0-76-41-82-99-10-93 101-131 147-64 4 7 5 14 7 22l-32 3c-4-21-16-35-41-35" id="bh"/><path fill="#461765" d="M100-194c62-1 85 37 85 99 1 63-27 99-86 99S16-35 15-95c0-66 28-99 85-99zM99-20c44 1 53-31 53-75 0-43-8-75-51-75s-53 32-53 75 10 74 51 75" id="bi"/><path fill="#461765" d="M210-169c-67 3-38 105-44 169h-31v-121c0-29-5-50-35-48C34-165 62-65 56 0H25l-1-190h30c1 10-1 24 2 32 10-44 99-50 107 0 11-21 27-35 58-36 85-2 47 119 55 194h-31v-121c0-29-5-49-35-48" id="bj"/><path fill="#461765" d="M117-194c89-4 53 116 60 194h-32v-121c0-31-8-49-39-48C34-167 62-67 57 0H25l-1-190h30c1 10-1 24 2 32 11-22 29-35 61-36" id="bk"/><path fill="#461765" d="M-5 72V49h209v23H-5" id="bl"/><path fill="#461765" d="M24 0v-261h32V0H24" id="bm"/><path fill="#461765" d="M24-231v-30h32v30H24zM24 0v-190h32V0H24" id="bn"/><path fill="#461765" d="M135-143c-3-34-86-38-87 0 15 53 115 12 119 90S17 21 10-45l28-5c4 36 97 45 98 0-10-56-113-15-118-90-4-57 82-63 122-42 12 7 21 19 24 35" id="bo"/><g id="o"><use transform="matrix(0.05,0,0,0.05,0,0)" xlink:href="#bh"/><use transform="matrix(0.05,0,0,0.05,9,0)" xlink:href="#bi"/><use transform="matrix(0.05,0,0,0.05,19,0)" xlink:href="#bj"/><use transform="matrix(0.05,0,0,0.05,33.95,0)" xlink:href="#aS"/><use transform="matrix(0.05,0,0,0.05,43.95,0)" xlink:href="#bi"/><use transform="matrix(0.05,0,0,0.05,53.95,0)" xlink:href="#aT"/><use transform="matrix(0.05,0,0,0.05,63.95,0)" xlink:href="#bk"/><use transform="matrix(0.05,0,0,0.05,73.95,0)" xlink:href="#aQ"/><use transform="matrix(0.05,0,0,0.05,78.95,0)" xlink:href="#bl"/><use transform="matrix(0.05,0,0,0.05,88.95,0)" xlink:href="#bm"/><use transform="matrix(0.05,0,0,0.05,92.9,0)" xlink:href="#bn"/><use transform="matrix(0.05,0,0,0.05,96.85000000000001,0)" xlink:href="#bo"/><use transform="matrix(0.05,0,0,0.05,105.85000000000001,0)" xlink:href="#aQ"/><use transform="matrix(0.05,0,0,0.05,110.85000000000001,0)" xlink:href="#aU"/></g><path fill="#461765" d="M26 75v-336h71v23H56V52h41v23H26" id="bp"/><path fill="#461765" d="M212-179c-10-28-35-45-73-45-59 0-87 40-87 99 0 60 29 101 89 101 43 0 62-24 78-52l27 14C228-24 195 4 139 4 59 4 22-46 18-125c-6-104 99-153 187-111 19 9 31 26 39 46" id="bq"/><path fill="#461765" d="M3 75V52h41v-290H3v-23h71V75H3" id="br"/><g id="p"><use transform="matrix(0.05,0,0,0.05,0,0)" xlink:href="#bp"/><use transform="matrix(0.05,0,0,0.05,5,0)" xlink:href="#bq"/><use transform="matrix(0.05,0,0,0.05,17.950000000000003,0)" xlink:href="#aX"/><use transform="matrix(0.05,0,0,0.05,27.950000000000003,0)" xlink:href="#br"/></g><path fill="#461765" d="M206 0h-36l-40-164L89 0H53L-1-190h32L70-26l43-164h34l41 164 42-164h31" id="bs"/><path fill="#461765" d="M114-163C36-179 61-72 57 0H25l-1-190h30c1 12-1 29 2 39 6-27 23-49 58-41v29" id="bt"/><path fill="#461765" d="M143 0L79-87 56-68V0H24v-261h32v163l83-92h37l-77 82L181 0h-38" id="bu"/><path fill="#461765" d="M177-190C167-65 218 103 67 71c-23-6-38-20-44-43l32-5c15 47 100 32 89-28v-30C133-14 115 1 83 1 29 1 15-40 15-95c0-56 16-97 71-98 29-1 48 16 59 35 1-10 0-23 2-32h30zM94-22c36 0 50-32 50-73 0-42-14-75-50-75-39 0-46 34-46 75s6 73 46 73" id="bv"/><g id="q"><use transform="matrix(0.05,0,0,0.05,0,0)" xlink:href="#bn"/><use transform="matrix(0.05,0,0,0.05,3.95,0)" xlink:href="#bo"/><use transform="matrix(0.05,0,0,0.05,12.949999999999998,0)" xlink:href="#bl"/><use transform="matrix(0.05,0,0,0.05,22.95,0)" xlink:href="#bs"/><use transform="matrix(0.05,0,0,0.05,35.9,0)" xlink:href="#bi"/><use transform="matrix(0.05,0,0,0.05,45.9,0)" xlink:href="#bt"/><use transform="matrix(0.05,0,0,0.05,51.85,0)" xlink:href="#bu"/><use transform="matrix(0.05,0,0,0.05,60.85,0)" xlink:href="#bn"/><use transform="matrix(0.05,0,0,0.05,64.8,0)" xlink:href="#bk"/><use transform="matrix(0.05,0,0,0.05,74.8,0)" xlink:href="#bv"/><use transform="matrix(0.05,0,0,0.05,84.8,0)" xlink:href="#aU"/></g><path fill="#461765" d="M63-220v92h138v28H63V0H30v-248h175v28H63" id="bw"/><path fill="#461765" d="M141-36C126-15 110 5 73 4 37 3 15-17 15-53c-1-64 63-63 125-63 3-35-9-54-41-54-24 1-41 7-42 31l-33-3c5-37 33-52 76-52 45 0 72 20 72 64v82c-1 20 7 32 28 27v20c-31 9-61-2-59-35zM48-53c0 20 12 33 32 33 41-3 63-29 60-74-43 2-92-5-92 41" id="bx"/><g id="r"><use transform="matrix(0.05,0,0,0.05,0,0)" xlink:href="#bw"/><use transform="matrix(0.05,0,0,0.05,10.950000000000001,0)" xlink:href="#bx"/><use transform="matrix(0.05,0,0,0.05,20.950000000000003,0)" xlink:href="#bm"/><use transform="matrix(0.05,0,0,0.05,24.900000000000002,0)" xlink:href="#bo"/><use transform="matrix(0.05,0,0,0.05,33.900000000000006,0)" xlink:href="#aT"/></g><g id="s"><use transform="matrix(0.05,0,0,0.05,0,0)" xlink:href="#bs"/><use transform="matrix(0.05,0,0,0.05,12.950000000000001,0)" xlink:href="#bi"/><use transform="matrix(0.05,0,0,0.05,22.950000000000003,0)" xlink:href="#bt"/><use transform="matrix(0.05,0,0,0.05,28.900000000000002,0)" xlink:href="#bu"/><use transform="matrix(0.05,0,0,0.05,37.900000000000006,0)" xlink:href="#bn"/><use transform="matrix(0.05,0,0,0.05,41.85000000000001,0)" xlink:href="#bk"/><use transform="matrix(0.05,0,0,0.05,51.85,0)" xlink:href="#bv"/><use transform="matrix(0.05,0,0,0.05,61.85,0)" xlink:href="#bl"/><use transform="matrix(0.05,0,0,0.05,71.85000000000001,0)" xlink:href="#bi"/><use transform="matrix(0.05,0,0,0.05,81.85000000000001,0)" xlink:href="#bk"/><use transform="matrix(0.05,0,0,0.05,91.85000000000001,0)" xlink:href="#aU"/></g><g id="t"><use transform="matrix(0.05,0,0,0.05,0,0)" xlink:href="#bq"/><use transform="matrix(0.05,0,0,0.05,12.950000000000001,0)" xlink:href="#aX"/></g><g id="u"><use transform="matrix(0.05,0,0,0.05,0,0)" xlink:href="#bf"/><use transform="matrix(0.05,0,0,0.05,5,0)" xlink:href="#aH"/><use transform="matrix(0.05,0,0,0.05,15,0)" xlink:href="#aI"/></g><path fill="#461765" d="M68-38c1 34 0 65-14 84H32c9-13 17-26 17-46H33v-38h35" id="by"/><g id="v"><use transform="matrix(0.05,0,0,0.05,0,0)" xlink:href="#bp"/><use transform="matrix(0.05,0,0,0.05,5,0)" xlink:href="#bq"/><use transform="matrix(0.05,0,0,0.05,17.950000000000003,0)" xlink:href="#aZ"/><use transform="matrix(0.05,0,0,0.05,27.950000000000003,0)" xlink:href="#by"/><use transform="matrix(0.05,0,0,0.05,32.95,0)" xlink:href="#bq"/><use transform="matrix(0.05,0,0,0.05,45.900000000000006,0)" xlink:href="#aV"/><use transform="matrix(0.05,0,0,0.05,55.900000000000006,0)" xlink:href="#br"/></g><g id="w"><use transform="matrix(0.05,0,0,0.05,0,0)" xlink:href="#bq"/><use transform="matrix(0.05,0,0,0.05,12.950000000000001,0)" xlink:href="#aZ"/></g><path fill="#461765" d="M275 0h-61l-44-196L126 0H64L0-248h53L97-49l45-199h58l43 199 44-199h52" id="bz"/><g id="x"><use transform="matrix(0.05,0,0,0.05,0,0)" xlink:href="#bz"/><use transform="matrix(0.05,0,0,0.05,16.95,0)" xlink:href="#aW"/><use transform="matrix(0.05,0,0,0.05,26.950000000000003,0)" xlink:href="#aI"/></g><path fill="#461765" d="M147 0L96-86 75-71V0H25v-261h50v150l67-79h53l-66 74L201 0h-54" id="bA"/><path fill="#461765" d="M133-34C117-15 103 5 69 4 32 3 11-16 11-54c-1-60 55-63 116-61 1-26-3-47-28-47-18 1-26 9-28 27l-52-2c7-38 36-58 82-57s74 22 75 68l1 82c-1 14 12 18 25 15v27c-30 8-71 5-69-32zm-48 3c29 0 43-24 42-57-32 0-66-3-65 30 0 17 8 27 23 27" id="bB"/><path fill="#461765" d="M25-224v-37h50v37H25zM25 0v-190h50V0H25" id="bC"/><g id="y"><use transform="matrix(0.05,0,0,0.05,0,0)" xlink:href="#bz"/><use transform="matrix(0.05,0,0,0.05,16.599999999999998,0)" xlink:href="#aJ"/><use transform="matrix(0.05,0,0,0.05,27.549999999999997,0)" xlink:href="#bb"/><use transform="matrix(0.05,0,0,0.05,34.55,0)" xlink:href="#bA"/><use transform="matrix(0.05,0,0,0.05,44.55,0)" xlink:href="#bg"/><use transform="matrix(0.05,0,0,0.05,54.54999999999999,0)" xlink:href="#aO"/><use transform="matrix(0.05,0,0,0.05,60.5,0)" xlink:href="#bB"/><use transform="matrix(0.05,0,0,0.05,70.5,0)" xlink:href="#aO"/><use transform="matrix(0.05,0,0,0.05,76.45,0)" xlink:href="#bC"/><use transform="matrix(0.05,0,0,0.05,81.45,0)" xlink:href="#aJ"/><use transform="matrix(0.05,0,0,0.05,92.4,0)" xlink:href="#aM"/></g><path fill="#461765" d="M115-194c53 0 69 39 70 98 0 66-23 100-70 100C84 3 66-7 56-30L54 0H23l1-261h32v101c10-23 28-34 59-34zm-8 174c40 0 45-34 45-75 0-40-5-75-45-74-42 0-51 32-51 76 0 43 10 73 51 73" id="bD"/><path fill="#461765" d="M84 4C-5 8 30-112 23-190h32v120c0 31 7 50 39 49 72-2 45-101 50-169h31l1 190h-30c-1-10 1-25-2-33-11 22-28 36-60 37" id="bE"/><path fill="#461765" d="M101-234c-31-9-42 10-38 44h38v23H63V0H32v-167H5v-23h27c-7-52 17-82 69-68v24" id="bF"/><g id="z"><use transform="matrix(0.05,0,0,0.05,0,0)" xlink:href="#bD"/><use transform="matrix(0.05,0,0,0.05,10,0)" xlink:href="#bE"/><use transform="matrix(0.05,0,0,0.05,20,0)" xlink:href="#bF"/><use transform="matrix(0.05,0,0,0.05,24.65,0)" xlink:href="#bF"/><use transform="matrix(0.05,0,0,0.05,29.649999999999995,0)" xlink:href="#aT"/><use transform="matrix(0.05,0,0,0.05,39.65,0)" xlink:href="#bt"/><use transform="matrix(0.05,0,0,0.05,45.6,0)" xlink:href="#bo"/><use transform="matrix(0.05,0,0,0.05,54.6,0)" xlink:href="#aU"/></g><path fill="#461765" d="M160-131c35 5 61 23 61 61C221 17 115-2 30 0v-248c76 3 177-17 177 60 0 33-19 50-47 57zm-97-11c50-1 110 9 110-42 0-47-63-36-110-37v79zm0 115c55-2 124 14 124-45 0-56-70-42-124-44v89" id="bG"/><g id="A"><use transform="matrix(0.05,0,0,0.05,0,0)" xlink:href="#bp"/><use transform="matrix(0.05,0,0,0.05,5,0)" xlink:href="#bG"/><use transform="matrix(0.05,0,0,0.05,17,0)" xlink:href="#aX"/><use transform="matrix(0.05,0,0,0.05,27,0)" xlink:href="#br"/></g><use transform="matrix(0.05,0,0,0.05,0,0)" xlink:href="#aX" id="B"/><path fill="#461765" d="M85-194c31 0 48 13 60 33l-1-100h32l1 261h-30c-2-10 0-23-3-31C134-8 116 4 85 4 32 4 16-35 15-94c0-66 23-100 70-100zm9 24c-40 0-46 34-46 75 0 40 6 74 45 74 42 0 51-32 51-76 0-42-9-74-50-73" id="bH"/><g id="C"><use transform="matrix(0.05,0,0,0.05,0,0)" xlink:href="#aS"/><use transform="matrix(0.05,0,0,0.05,10,0)" xlink:href="#bt"/><use transform="matrix(0.05,0,0,0.05,15.949999999999998,0)" xlink:href="#bi"/><use transform="matrix(0.05,0,0,0.05,25.950000000000003,0)" xlink:href="#bH"/><use transform="matrix(0.05,0,0,0.05,35.95,0)" xlink:href="#bE"/><use transform="matrix(0.05,0,0,0.05,45.95,0)" xlink:href="#bh"/><use transform="matrix(0.05,0,0,0.05,54.95,0)" xlink:href="#aQ"/><use transform="matrix(0.05,0,0,0.05,59.95,0)" xlink:href="#bl"/><use transform="matrix(0.05,0,0,0.05,69.95,0)" xlink:href="#bD"/><use transform="matrix(0.05,0,0,0.05,79.95,0)" xlink:href="#bE"/><use transform="matrix(0.05,0,0,0.05,89.95,0)" xlink:href="#bn"/><use transform="matrix(0.05,0,0,0.05,93.9,0)" xlink:href="#bm"/><use transform="matrix(0.05,0,0,0.05,97.85000000000001,0)" xlink:href="#bH"/><use transform="matrix(0.05,0,0,0.05,107.85000000000001,0)" xlink:href="#bn"/><use transform="matrix(0.05,0,0,0.05,111.80000000000001,0)" xlink:href="#bk"/><use transform="matrix(0.05,0,0,0.05,121.80000000000001,0)" xlink:href="#bv"/><use transform="matrix(0.05,0,0,0.05,131.8,0)" xlink:href="#aU"/></g><g id="D"><use transform="matrix(0.05,0,0,0.05,0,0)" xlink:href="#bz"/><use transform="matrix(0.05,0,0,0.05,16.95,0)" xlink:href="#aY"/><use transform="matrix(0.05,0,0,0.05,26.950000000000003,0)" xlink:href="#aI"/></g><path fill="#461765" d="M155-56V0h-30v-56H8v-25l114-167h33v167h35v25h-35zm-30-156c-27 46-58 90-88 131h88v-131" id="bI"/><g id="E"><use transform="matrix(0.05,0,0,0.05,0,0)" xlink:href="#bp"/><use transform="matrix(0.05,0,0,0.05,5,0)" xlink:href="#bG"/><use transform="matrix(0.05,0,0,0.05,17,0)" xlink:href="#bI"/><use transform="matrix(0.05,0,0,0.05,27,0)" xlink:href="#by"/></g><path fill="#461765" d="M54-142c48-35 137-8 131 61C196 18 31 33 14-55l32-4c7 23 22 37 52 37 35-1 51-22 54-58 4-55-73-65-99-34H22l8-134h141v27H59" id="bJ"/><g id="F"><use transform="matrix(0.05,0,0,0.05,0,0)" xlink:href="#bG"/><use transform="matrix(0.05,0,0,0.05,12,0)" xlink:href="#bJ"/><use transform="matrix(0.05,0,0,0.05,22,0)" xlink:href="#br"/></g><use transform="matrix(0.05,0,0,0.05,0,0)" xlink:href="#aZ" id="G"/><g id="H"><use transform="matrix(0.05,0,0,0.05,0,0)" xlink:href="#bz"/><use transform="matrix(0.05,0,0,0.05,16.95,0)" xlink:href="#aH"/><use transform="matrix(0.05,0,0,0.05,26.950000000000003,0)" xlink:href="#aI"/></g><g id="I"><use transform="matrix(0.05,0,0,0.05,0,0)" xlink:href="#bp"/><use transform="matrix(0.05,0,0,0.05,5,0)" xlink:href="#bG"/><use transform="matrix(0.05,0,0,0.05,17,0)" xlink:href="#aV"/><use transform="matrix(0.05,0,0,0.05,27,0)" xlink:href="#by"/></g><g id="J"><use transform="matrix(0.05,0,0,0.05,0,0)" xlink:href="#bG"/><use transform="matrix(0.05,0,0,0.05,12,0)" xlink:href="#aZ"/><use transform="matrix(0.05,0,0,0.05,22,0)" xlink:href="#br"/></g><use transform="matrix(0.05,0,0,0.05,0,0)" xlink:href="#aV" id="K"/><path fill="#461765" d="M182-130c37 4 62 22 62 59C244 23 116-4 24 0v-248c84 5 203-23 205 63 0 31-19 50-47 55zM76-148c40-3 101 13 101-30 0-44-60-28-101-31v61zm0 110c48-3 116 14 116-37 0-48-69-32-116-35v72" id="bK"/><g id="L"><use transform="matrix(0.05,0,0,0.05,0,0)" xlink:href="#bK"/><use transform="matrix(0.05,0,0,0.05,12.950000000000001,0)" xlink:href="#aW"/><use transform="matrix(0.05,0,0,0.05,22.950000000000003,0)" xlink:href="#aI"/></g><path fill="#461765" d="M121-226c-27-7-43 5-38 36h38v33H83V0H34v-157H6v-33h28c-9-59 32-81 87-68v32" id="bL"/><g id="M"><use transform="matrix(0.05,0,0,0.05,0,0)" xlink:href="#bK"/><use transform="matrix(0.05,0,0,0.05,12.950000000000001,0)" xlink:href="#bd"/><use transform="matrix(0.05,0,0,0.05,23.900000000000002,0)" xlink:href="#bL"/><use transform="matrix(0.05,0,0,0.05,29.85,0)" xlink:href="#bL"/><use transform="matrix(0.05,0,0,0.05,35.800000000000004,0)" xlink:href="#aN"/><use transform="matrix(0.05,0,0,0.05,45.800000000000004,0)" xlink:href="#bb"/></g><g id="N"><use transform="matrix(0.05,0,0,0.05,0,0)" xlink:href="#bn"/><use transform="matrix(0.05,0,0,0.05,3.95,0)" xlink:href="#bo"/><use transform="matrix(0.05,0,0,0.05,12.949999999999998,0)" xlink:href="#bl"/><use transform="matrix(0.05,0,0,0.05,22.95,0)" xlink:href="#aT"/><use transform="matrix(0.05,0,0,0.05,32.95,0)" xlink:href="#bj"/><use transform="matrix(0.05,0,0,0.05,47.900000000000006,0)" xlink:href="#aS"/><use transform="matrix(0.05,0,0,0.05,57.900000000000006,0)" xlink:href="#aR"/><use transform="matrix(0.05,0,0,0.05,66.9,0)" xlink:href="#aQ"/><use transform="matrix(0.05,0,0,0.05,71.9,0)" xlink:href="#aR"/><use transform="matrix(0.05,0,0,0.05,80.9,0)" xlink:href="#aU"/></g><path fill="#461765" d="M127-220V0H93v-220H8v-28h204v28h-85" id="bM"/><g id="O"><use transform="matrix(0.05,0,0,0.05,0,0)" xlink:href="#bM"/><use transform="matrix(0.05,0,0,0.05,10.3,0)" xlink:href="#bt"/><use transform="matrix(0.05,0,0,0.05,16.25,0)" xlink:href="#bE"/><use transform="matrix(0.05,0,0,0.05,26.25,0)" xlink:href="#aT"/></g><g id="P"><use transform="matrix(0.05,0,0,0.05,0,0)" xlink:href="#aS"/><use transform="matrix(0.05,0,0,0.05,10,0)" xlink:href="#bt"/><use transform="matrix(0.05,0,0,0.05,15.949999999999998,0)" xlink:href="#bn"/><use transform="matrix(0.05,0,0,0.05,19.9,0)" xlink:href="#bi"/><use transform="matrix(0.05,0,0,0.05,29.899999999999995,0)" xlink:href="#bt"/><use transform="matrix(0.05,0,0,0.05,35.85,0)" xlink:href="#bn"/><use transform="matrix(0.05,0,0,0.05,39.800000000000004,0)" xlink:href="#aQ"/><use transform="matrix(0.05,0,0,0.05,44.800000000000004,0)" xlink:href="#aR"/><use transform="matrix(0.05,0,0,0.05,53.800000000000004,0)" xlink:href="#aU"/></g><path fill="#461765" d="M145-31C134-9 116 4 85 4 32 4 16-35 15-94c0-59 17-99 70-100 32-1 48 14 60 33 0-11-1-24 2-32h30l-1 268h-32zM93-21c41 0 51-33 51-76s-8-73-50-73c-40 0-46 35-46 75s5 74 45 74" id="bN"/><g id="Q"><use transform="matrix(0.05,0,0,0.05,0,0)" xlink:href="#bN"/><use transform="matrix(0.05,0,0,0.05,10,0)" xlink:href="#bE"/><use transform="matrix(0.05,0,0,0.05,20,0)" xlink:href="#aT"/><use transform="matrix(0.05,0,0,0.05,30,0)" xlink:href="#bE"/><use transform="matrix(0.05,0,0,0.05,40,0)" xlink:href="#aT"/><use transform="matrix(0.05,0,0,0.05,50,0)" xlink:href="#aU"/></g><use transform="matrix(0.05,0,0,0.05,0,0)" xlink:href="#bp" id="R"/><use transform="matrix(0.05,0,0,0.05,0,0)" xlink:href="#br" id="S"/><g id="T"><use transform="matrix(0.05,0,0,0.05,0,0)" xlink:href="#bN"/><use transform="matrix(0.05,0,0,0.05,10,0)" xlink:href="#bE"/><use transform="matrix(0.05,0,0,0.05,20,0)" xlink:href="#aT"/><use transform="matrix(0.05,0,0,0.05,30,0)" xlink:href="#bE"/><use transform="matrix(0.05,0,0,0.05,40,0)" xlink:href="#aT"/><use transform="matrix(0.05,0,0,0.05,50,0)" xlink:href="#bl"/><use transform="matrix(0.05,0,0,0.05,60,0)" xlink:href="#bm"/><use transform="matrix(0.05,0,0,0.05,63.95,0)" xlink:href="#bn"/><use transform="matrix(0.05,0,0,0.05,67.9,0)" xlink:href="#bj"/><use transform="matrix(0.05,0,0,0.05,82.85000000000001,0)" xlink:href="#bn"/><use transform="matrix(0.05,0,0,0.05,86.80000000000001,0)" xlink:href="#aQ"/><use transform="matrix(0.05,0,0,0.05,91.80000000000001,0)" xlink:href="#aU"/><use transform="matrix(0.05,0,0,0.05,96.80000000000001,0)" xlink:href="#bn"/><use transform="matrix(0.05,0,0,0.05,100.75000000000001,0)" xlink:href="#bk"/><use transform="matrix(0.05,0,0,0.05,110.75,0)" xlink:href="#aQ"/><use transform="matrix(0.05,0,0,0.05,115.75,0)" xlink:href="#aT"/><use transform="matrix(0.05,0,0,0.05,125.75,0)" xlink:href="#bv"/><use transform="matrix(0.05,0,0,0.05,135.75,0)" xlink:href="#aT"/><use transform="matrix(0.05,0,0,0.05,145.75,0)" xlink:href="#bt"/></g><path fill="#461765" d="M18-150v-26h174v26H18zm0 90v-26h174v26H18" id="bO"/><use transform="matrix(0.05,0,0,0.05,0,0)" xlink:href="#bO" id="U"/><g id="V"><use transform="matrix(0.05,0,0,0.05,0,0)" xlink:href="#bK"/><use transform="matrix(0.05,0,0,0.05,12.950000000000001,0)" xlink:href="#aH"/><use transform="matrix(0.05,0,0,0.05,22.950000000000003,0)" xlink:href="#aI"/></g><use transform="matrix(0.05,0,0,0.05,0,0)" xlink:href="#aV" id="W"/><g id="X"><use transform="matrix(0.05,0,0,0.05,0,0)" xlink:href="#bK"/><use transform="matrix(0.05,0,0,0.05,12.950000000000001,0)" xlink:href="#aY"/><use transform="matrix(0.05,0,0,0.05,22.950000000000003,0)" xlink:href="#aI"/></g><path fill="#461765" d="M165-50V0h-47v-50H5v-38l105-160h55v161h33v37h-33zm-47-37l2-116L46-87h72" id="bP"/><g id="Y"><use transform="matrix(0.05,0,0,0.05,0,0)" xlink:href="#bK"/><use transform="matrix(0.05,0,0,0.05,12.950000000000001,0)" xlink:href="#bP"/><use transform="matrix(0.05,0,0,0.05,22.950000000000003,0)" xlink:href="#aI"/></g><use transform="matrix(0.05,0,0,0.05,0,0)" xlink:href="#aX" id="Z"/><path fill="#461765" d="M139-81c0-46-55-55-73-27H18l9-140h149v37H72l-4 63c44-38 133-4 122 66C201 21 21 35 11-62l49-4c5 18 15 30 39 30 26 0 40-18 40-45" id="bQ"/><g id="aa"><use transform="matrix(0.05,0,0,0.05,0,0)" xlink:href="#bK"/><use transform="matrix(0.05,0,0,0.05,12.950000000000001,0)" xlink:href="#bQ"/><use transform="matrix(0.05,0,0,0.05,22.950000000000003,0)" xlink:href="#aI"/></g><g id="ab"><use transform="matrix(0.05,0,0,0.05,0,0)" xlink:href="#ba"/><use transform="matrix(0.05,0,0,0.05,12,0)" xlink:href="#aY"/><use transform="matrix(0.05,0,0,0.05,22,0)" xlink:href="#aI"/></g><path fill="#461765" d="M25 0v-261h50V0H25" id="bR"/><g id="ac"><use transform="matrix(0.05,0,0,0.05,0,0)" xlink:href="#bg"/><use transform="matrix(0.05,0,0,0.05,10,0)" xlink:href="#bC"/><use transform="matrix(0.05,0,0,0.05,15,0)" xlink:href="#aK"/><use transform="matrix(0.05,0,0,0.05,31,0)" xlink:href="#bd"/><use transform="matrix(0.05,0,0,0.05,41.95,0)" xlink:href="#bR"/><use transform="matrix(0.05,0,0,0.05,46.95,0)" xlink:href="#bB"/><use transform="matrix(0.05,0,0,0.05,56.95,0)" xlink:href="#aO"/><use transform="matrix(0.05,0,0,0.05,62.900000000000006,0)" xlink:href="#aJ"/><use transform="matrix(0.05,0,0,0.05,73.85000000000001,0)" xlink:href="#bb"/><use transform="matrix(0.05,0,0,0.05,80.85000000000001,0)" xlink:href="#aI"/></g><path fill="#461765" d="M169-182c-1-43-94-46-97-3 18 66 151 10 154 114 3 95-165 93-204 36-6-8-10-19-12-30l50-8c3 46 112 56 116 5-17-69-150-10-154-114-4-87 153-88 188-35 5 8 8 18 10 28" id="bS"/><g id="ad"><use transform="matrix(0.05,0,0,0.05,0,0)" xlink:href="#bS"/><use transform="matrix(0.05,0,0,0.05,12,0)" xlink:href="#bC"/><use transform="matrix(0.05,0,0,0.05,17,0)" xlink:href="#aK"/><use transform="matrix(0.05,0,0,0.05,33,0)" xlink:href="#bd"/><use transform="matrix(0.05,0,0,0.05,43.95,0)" xlink:href="#bR"/><use transform="matrix(0.05,0,0,0.05,48.95,0)" xlink:href="#bB"/><use transform="matrix(0.05,0,0,0.05,58.95,0)" xlink:href="#aO"/><use transform="matrix(0.05,0,0,0.05,64.9,0)" xlink:href="#aJ"/><use transform="matrix(0.05,0,0,0.05,75.85000000000001,0)" xlink:href="#bb"/></g><g id="ae"><use transform="matrix(0.05,0,0,0.05,0,0)" xlink:href="#bD"/><use transform="matrix(0.05,0,0,0.05,10,0)" xlink:href="#bE"/><use transform="matrix(0.05,0,0,0.05,20,0)" xlink:href="#bF"/><use transform="matrix(0.05,0,0,0.05,24.65,0)" xlink:href="#bF"/><use transform="matrix(0.05,0,0,0.05,29.649999999999995,0)" xlink:href="#aT"/><use transform="matrix(0.05,0,0,0.05,39.65,0)" xlink:href="#bt"/><use transform="matrix(0.05,0,0,0.05,45.6,0)" xlink:href="#bl"/><use transform="matrix(0.05,0,0,0.05,55.6,0)" xlink:href="#bm"/><use transform="matrix(0.05,0,0,0.05,59.550000000000004,0)" xlink:href="#bn"/><use transform="matrix(0.05,0,0,0.05,63.5,0)" xlink:href="#bo"/><use transform="matrix(0.05,0,0,0.05,72.5,0)" xlink:href="#aQ"/><use transform="matrix(0.05,0,0,0.05,77.5,0)" xlink:href="#aU"/></g><g id="af"><use transform="matrix(0.05,0,0,0.05,0,0)" xlink:href="#bp"/><use transform="matrix(0.05,0,0,0.05,5,0)" xlink:href="#bG"/><use transform="matrix(0.05,0,0,0.05,17,0)" xlink:href="#aX"/><use transform="matrix(0.05,0,0,0.05,27,0)" xlink:href="#by"/></g><g id="ag"><use transform="matrix(0.05,0,0,0.05,0,0)" xlink:href="#bG"/><use transform="matrix(0.05,0,0,0.05,12,0)" xlink:href="#aV"/><use transform="matrix(0.05,0,0,0.05,22,0)" xlink:href="#by"/></g><g id="ah"><use transform="matrix(0.05,0,0,0.05,0,0)" xlink:href="#bG"/><use transform="matrix(0.05,0,0,0.05,12,0)" xlink:href="#aZ"/><use transform="matrix(0.05,0,0,0.05,22,0)" xlink:href="#by"/></g><g id="ai"><use transform="matrix(0.05,0,0,0.05,0,0)" xlink:href="#bG"/><use transform="matrix(0.05,0,0,0.05,12,0)" xlink:href="#bI"/><use transform="matrix(0.05,0,0,0.05,22,0)" xlink:href="#by"/></g><g id="aj"><use transform="matrix(0.05,0,0,0.05,0,0)" xlink:href="#bs"/><use transform="matrix(0.05,0,0,0.05,12.950000000000001,0)" xlink:href="#bi"/><use transform="matrix(0.05,0,0,0.05,22.950000000000003,0)" xlink:href="#bt"/><use transform="matrix(0.05,0,0,0.05,28.900000000000002,0)" xlink:href="#bu"/><use transform="matrix(0.05,0,0,0.05,37.900000000000006,0)" xlink:href="#bo"/><use transform="matrix(0.05,0,0,0.05,46.900000000000006,0)" xlink:href="#aQ"/><use transform="matrix(0.05,0,0,0.05,51.900000000000006,0)" xlink:href="#bx"/><use transform="matrix(0.05,0,0,0.05,61.900000000000006,0)" xlink:href="#aQ"/><use transform="matrix(0.05,0,0,0.05,66.9,0)" xlink:href="#bn"/><use transform="matrix(0.05,0,0,0.05,70.85000000000001,0)" xlink:href="#bi"/><use transform="matrix(0.05,0,0,0.05,80.85000000000001,0)" xlink:href="#bk"/><use transform="matrix(0.05,0,0,0.05,90.85000000000001,0)" xlink:href="#bl"/><use transform="matrix(0.05,0,0,0.05,100.85000000000001,0)" xlink:href="#bm"/><use transform="matrix(0.05,0,0,0.05,104.80000000000001,0)" xlink:href="#bn"/><use transform="matrix(0.05,0,0,0.05,108.75,0)" xlink:href="#bo"/><use transform="matrix(0.05,0,0,0.05,117.75,0)" xlink:href="#aQ"/><use transform="matrix(0.05,0,0,0.05,122.75,0)" xlink:href="#aU"/></g><path fill="#461765" d="M266 0h-40l-56-210L115 0H75L2-248h35L96-30l15-64 43-154h32l59 218 59-218h35" id="bT"/><g id="ak"><use transform="matrix(0.05,0,0,0.05,0,0)" xlink:href="#bp"/><use transform="matrix(0.05,0,0,0.05,5,0)" xlink:href="#bT"/><use transform="matrix(0.05,0,0,0.05,21.95,0)" xlink:href="#aX"/><use transform="matrix(0.05,0,0,0.05,31.950000000000003,0)" xlink:href="#by"/></g><g id="al"><use transform="matrix(0.05,0,0,0.05,0,0)" xlink:href="#bT"/><use transform="matrix(0.05,0,0,0.05,16.95,0)" xlink:href="#aV"/><use transform="matrix(0.05,0,0,0.05,26.950000000000003,0)" xlink:href="#by"/></g><g id="am"><use transform="matrix(0.05,0,0,0.05,0,0)" xlink:href="#bT"/><use transform="matrix(0.05,0,0,0.05,16.95,0)" xlink:href="#aZ"/><use transform="matrix(0.05,0,0,0.05,26.950000000000003,0)" xlink:href="#br"/></g><g id="an"><use transform="matrix(0.05,0,0,0.05,0,0)" xlink:href="#bn"/><use transform="matrix(0.05,0,0,0.05,3.95,0)" xlink:href="#bk"/><use transform="matrix(0.05,0,0,0.05,13.949999999999998,0)" xlink:href="#bo"/><use transform="matrix(0.05,0,0,0.05,22.95,0)" xlink:href="#aS"/><use transform="matrix(0.05,0,0,0.05,32.95,0)" xlink:href="#aT"/><use transform="matrix(0.05,0,0,0.05,42.95,0)" xlink:href="#bh"/><use transform="matrix(0.05,0,0,0.05,51.95,0)" xlink:href="#aQ"/><use transform="matrix(0.05,0,0,0.05,56.95,0)" xlink:href="#bi"/><use transform="matrix(0.05,0,0,0.05,66.95,0)" xlink:href="#bt"/><use transform="matrix(0.05,0,0,0.05,72.9,0)" xlink:href="#bl"/><use transform="matrix(0.05,0,0,0.05,82.9,0)" xlink:href="#bm"/><use transform="matrix(0.05,0,0,0.05,86.85000000000001,0)" xlink:href="#bn"/><use transform="matrix(0.05,0,0,0.05,90.80000000000001,0)" xlink:href="#bo"/><use transform="matrix(0.05,0,0,0.05,99.80000000000001,0)" xlink:href="#aQ"/><use transform="matrix(0.05,0,0,0.05,104.80000000000001,0)" xlink:href="#aU"/></g><path fill="#461765" d="M33 0v-248h34V0H33" id="bU"/><g id="ao"><use transform="matrix(0.05,0,0,0.05,0,0)" xlink:href="#bp"/><use transform="matrix(0.05,0,0,0.05,5,0)" xlink:href="#bU"/><use transform="matrix(0.05,0,0,0.05,10,0)" xlink:href="#aX"/><use transform="matrix(0.05,0,0,0.05,20,0)" xlink:href="#by"/></g><g id="ap"><use transform="matrix(0.05,0,0,0.05,0,0)" xlink:href="#bU"/><use transform="matrix(0.05,0,0,0.05,5,0)" xlink:href="#aV"/><use transform="matrix(0.05,0,0,0.05,15,0)" xlink:href="#br"/></g><path fill="#461765" d="M118-107v75H92v-75H18v-26h74v-75h26v75h74v26h-74" id="bV"/><use transform="matrix(0.05,0,0,0.05,0,0)" xlink:href="#bV" id="aq"/><g id="ar"><use transform="matrix(0.05,0,0,0.05,0,0)" xlink:href="#bo"/><use transform="matrix(0.05,0,0,0.05,9,0)" xlink:href="#aR"/><use transform="matrix(0.05,0,0,0.05,18,0)" xlink:href="#bo"/><use transform="matrix(0.05,0,0,0.05,27,0)" xlink:href="#bl"/><use transform="matrix(0.05,0,0,0.05,37,0)" xlink:href="#bh"/><use transform="matrix(0.05,0,0,0.05,46,0)" xlink:href="#bm"/><use transform="matrix(0.05,0,0,0.05,49.95,0)" xlink:href="#bi"/><use transform="matrix(0.05,0,0,0.05,59.95,0)" xlink:href="#bh"/><use transform="matrix(0.05,0,0,0.05,68.95,0)" xlink:href="#bu"/><use transform="matrix(0.05,0,0,0.05,77.95,0)" xlink:href="#aU"/></g><g id="as"><use transform="matrix(0.05,0,0,0.05,0,0)" xlink:href="#aX"/><use transform="matrix(0.05,0,0,0.05,10,0)" xlink:href="#aV"/><use transform="matrix(0.05,0,0,0.05,20,0)" xlink:href="#aZ"/><use transform="matrix(0.05,0,0,0.05,30,0)" xlink:href="#bI"/></g><path fill="#461765" d="M140-251c80 0 125 45 125 126S219 4 139 4C58 4 15-44 15-125s44-126 125-126zm-1 214c52 0 73-35 73-88 0-50-21-86-72-86-52 0-73 35-73 86s22 88 72 88" id="bW"/><path fill="#461765" d="M135-194c52 0 70 43 70 98 0 56-19 99-73 100-30 1-46-15-58-35L72 0H24l1-261h50v104c11-23 29-37 60-37zM114-30c31 0 40-27 40-66 0-37-7-63-39-63s-41 28-41 65c0 36 8 64 40 64" id="bX"/><path fill="#461765" d="M25-224v-37h50v37H25zM75 22c2 45-34 59-81 51V38c22 5 31-5 31-27v-201h50V22" id="bY"/><g id="at"><use transform="matrix(0.0728395061728395,0,0,0.0728395061728395,0,0)" xlink:href="#bW"/><use transform="matrix(0.0728395061728395,0,0,0.0728395061728395,20.39506172839506,0)" xlink:href="#bX"/><use transform="matrix(0.0728395061728395,0,0,0.0728395061728395,36.34691358024691,0)" xlink:href="#bY"/><use transform="matrix(0.0728395061728395,0,0,0.0728395061728395,43.63086419753086,0)" xlink:href="#aN"/><use transform="matrix(0.0728395061728395,0,0,0.0728395061728395,58.19876543209875,0)" xlink:href="#be"/><use transform="matrix(0.0728395061728395,0,0,0.0728395061728395,72.76666666666667,0)" xlink:href="#aO"/></g><path fill="#461765" d="M24-248c120-7 223 5 221 122C244-46 201 0 124 0H24v-248zM76-40c74 7 117-18 117-86 0-67-45-88-117-82v168" id="bZ"/><path fill="#461765" d="M195-6C206 82 75 100 31 46c-4-6-6-13-8-21l49-6c3 16 16 24 34 25 40 0 42-37 40-79-11 22-30 35-61 35-53 0-70-43-70-97 0-56 18-96 73-97 30 0 46 14 59 34l2-30h47zm-90-29c32 0 41-27 41-63 0-35-9-62-40-62-32 0-39 29-40 63 0 36 9 62 39 62" id="ca"/><g id="au"><use transform="matrix(0.0728395061728395,0,0,0.0728395061728395,0,0)" xlink:href="#bZ"/><use transform="matrix(0.0728395061728395,0,0,0.0728395061728395,18.86543209876543,0)" xlink:href="#bC"/><use transform="matrix(0.0728395061728395,0,0,0.0728395061728395,26.14938271604938,0)" xlink:href="#bB"/><use transform="matrix(0.0728395061728395,0,0,0.0728395061728395,40.717283950617286,0)" xlink:href="#ca"/><use transform="matrix(0.0728395061728395,0,0,0.0728395061728395,56.66913580246913,0)" xlink:href="#bb"/><use transform="matrix(0.0728395061728395,0,0,0.0728395061728395,66.86666666666666,0)" xlink:href="#bB"/><use transform="matrix(0.0728395061728395,0,0,0.0728395061728395,81.43456790123457,0)" xlink:href="#aK"/></g><path fill="#461765" d="M205 0l-28-72H64L36 0H1l101-248h38L239 0h-34zm-38-99l-47-123c-12 45-31 82-46 123h93" id="cb"/><g id="av"><use transform="matrix(0.04248971193415638,0,0,0.04248971193415638,0,0)" xlink:href="#cb"/><use transform="matrix(0.04248971193415638,0,0,0.04248971193415638,10.19753086419753,0)" xlink:href="#bD"/><use transform="matrix(0.04248971193415638,0,0,0.04248971193415638,18.695473251028805,0)" xlink:href="#bH"/><use transform="matrix(0.04248971193415638,0,0,0.04248971193415638,27.193415637860078,0)" xlink:href="#bE"/><use transform="matrix(0.04248971193415638,0,0,0.04248971193415638,35.691358024691354,0)" xlink:href="#bm"/></g><path fill="#461765" d="M240 0l2-218c-23 76-54 145-80 218h-23L58-218 59 0H30v-248h44l77 211c21-75 51-140 76-211h43V0h-30" id="cc"/><g id="aw"><use transform="matrix(0.04248971193415638,0,0,0.04248971193415638,0,0)" xlink:href="#cc"/><use transform="matrix(0.04248971193415638,0,0,0.04248971193415638,12.704423868312757,0)" xlink:href="#bE"/><use transform="matrix(0.04248971193415638,0,0,0.04248971193415638,21.20236625514403,0)" xlink:href="#aQ"/><use transform="matrix(0.04248971193415638,0,0,0.04248971193415638,25.45133744855967,0)" xlink:href="#bx"/><use transform="matrix(0.04248971193415638,0,0,0.04248971193415638,33.949279835390946,0)" xlink:href="#bu"/><use transform="matrix(0.04248971193415638,0,0,0.04248971193415638,41.59742798353909,0)" xlink:href="#bx"/><use transform="matrix(0.04248971193415638,0,0,0.04248971193415638,50.09537037037037,0)" xlink:href="#bD"/><use transform="matrix(0.04248971193415638,0,0,0.04248971193415638,58.593312757201645,0)" xlink:href="#bD"/><use transform="matrix(0.04248971193415638,0,0,0.04248971193415638,67.09125514403291,0)" xlink:href="#bn"/><use transform="matrix(0.04248971193415638,0,0,0.04248971193415638,70.44794238683127,0)" xlink:href="#bt"/></g><path fill="#461765" d="M32 76v-337h29V76H32" id="cd"/><use transform="matrix(0.04248971193415638,0,0,0.04248971193415638,0,0)" xlink:href="#cd" id="ax"/><g id="ay"><use transform="matrix(0.04248971193415638,0,0,0.04248971193415638,0,0)" xlink:href="#bw"/><use transform="matrix(0.04248971193415638,0,0,0.04248971193415638,9.305246913580246,0)" xlink:href="#aT"/><use transform="matrix(0.04248971193415638,0,0,0.04248971193415638,17.80318930041152,0)" xlink:href="#bD"/><use transform="matrix(0.04248971193415638,0,0,0.04248971193415638,26.301131687242794,0)" xlink:href="#bt"/><use transform="matrix(0.04248971193415638,0,0,0.04248971193415638,31.357407407407408,0)" xlink:href="#bE"/><use transform="matrix(0.04248971193415638,0,0,0.04248971193415638,39.85534979423868,0)" xlink:href="#bx"/><use transform="matrix(0.04248971193415638,0,0,0.04248971193415638,48.35329218106995,0)" xlink:href="#bt"/><use transform="matrix(0.04248971193415638,0,0,0.04248971193415638,53.40956790123455,0)" xlink:href="#aR"/></g><path fill="#461765" d="M101-251c68 0 85 55 85 127S166 4 100 4C33 4 14-52 14-124c0-73 17-127 87-127zm-1 229c47 0 54-49 54-102s-4-102-53-102c-51 0-55 48-55 102 0 53 5 102 54 102" id="ce"/><g id="az"><use transform="matrix(0.04248971193415638,0,0,0.04248971193415638,0,0)" xlink:href="#aX"/><use transform="matrix(0.04248971193415638,0,0,0.04248971193415638,8.497942386831275,0)" xlink:href="#ce"/><use transform="matrix(0.04248971193415638,0,0,0.04248971193415638,16.99588477366255,0)" xlink:href="#by"/></g><g id="aA"><use transform="matrix(0.04248971193415638,0,0,0.04248971193415638,0,0)" xlink:href="#aV"/><use transform="matrix(0.04248971193415638,0,0,0.04248971193415638,8.497942386831275,0)" xlink:href="#ce"/><use transform="matrix(0.04248971193415638,0,0,0.04248971193415638,16.99588477366255,0)" xlink:href="#aV"/><use transform="matrix(0.04248971193415638,0,0,0.04248971193415638,25.493827160493822,0)" xlink:href="#aV"/></g><g id="aB"><use transform="matrix(0.05,0,0,0.05,0,0)" xlink:href="#bL"/><use transform="matrix(0.05,0,0,0.05,5.95,0)" xlink:href="#aN"/><use transform="matrix(0.05,0,0,0.05,15.949999999999998,0)" xlink:href="#bR"/><use transform="matrix(0.05,0,0,0.05,20.95,0)" xlink:href="#aI"/></g><path fill="#461765" d="M76-208v77h127v40H76V0H24v-248h183v40H76" id="cf"/><path fill="#461765" d="M24 0v-248h195v40H76v63h132v40H76v65h150V0H24" id="cg"/><path fill="#461765" d="M24 0v-248h52v208h133V0H24" id="ch"/><g id="aC"><use transform="matrix(0.05,0,0,0.05,0,0)" xlink:href="#cf"/><use transform="matrix(0.05,0,0,0.05,10.950000000000001,0)" xlink:href="#cg"/><use transform="matrix(0.05,0,0,0.05,22.950000000000003,0)" xlink:href="#ch"/></g><path fill="#461765" d="M62-168c30 0 50 19 50 48S92-70 62-70c-29 0-48-21-48-50s20-48 48-48" id="ci"/><use transform="matrix(0.05,0,0,0.05,0,0)" xlink:href="#ci" id="aD"/><g id="aE"><use transform="matrix(0.05,0,0,0.05,0,0)" xlink:href="#bN"/><use transform="matrix(0.05,0,0,0.05,10,0)" xlink:href="#bE"/><use transform="matrix(0.05,0,0,0.05,20,0)" xlink:href="#aT"/><use transform="matrix(0.05,0,0,0.05,30,0)" xlink:href="#bE"/><use transform="matrix(0.05,0,0,0.05,40,0)" xlink:href="#aT"/><use transform="matrix(0.05,0,0,0.05,50,0)" xlink:href="#aU"/></g><g id="aF"><use transform="matrix(0.05,0,0,0.05,0,0)" xlink:href="#bp"/><use transform="matrix(0.05,0,0,0.05,5,0)" xlink:href="#br"/></g></defs></g></svg>